{"glyphs":{"0":{"ha":688,"x_min":0,"x_max":0,"o":""},"1":{"ha":688,"x_min":0,"x_max":0,"o":""},"2":{"ha":688,"x_min":0,"x_max":0,"o":""},"3":{"ha":688,"x_min":0,"x_max":0,"o":""},"4":{"ha":688,"x_min":0,"x_max":0,"o":""},"5":{"ha":688,"x_min":0,"x_max":0,"o":""},"6":{"ha":688,"x_min":0,"x_max":0,"o":""},"7":{"ha":688,"x_min":0,"x_max":0,"o":""},"8":{"ha":688,"x_min":0,"x_max":0,"o":""},"9":{"ha":688,"x_min":0,"x_max":0,"o":""}," ":{"ha":345,"x_min":0,"x_max":0,"o":""},"!":{"ha":456,"x_min":0,"x_max":0,"o":""},"\"":{"ha":456,"x_min":0,"x_max":0,"o":""},"#":{"ha":906,"x_min":0,"x_max":0,"o":""},"$":{"ha":688,"x_min":0,"x_max":0,"o":""},"%":{"ha":1092,"x_min":0,"x_max":0,"o":""},"&":{"ha":1141,"x_min":0,"x_max":0,"o":""},"'":{"ha":235,"x_min":0,"x_max":0,"o":""},"(":{"ha":514,"x_min":0,"x_max":0,"o":""},")":{"ha":514,"x_min":0,"x_max":0,"o":""},"*":{"ha":694,"x_min":0,"x_max":0,"o":""},"+":{"ha":688,"x_min":0,"x_max":0,"o":""},",":{"ha":378,"x_min":0,"x_max":0,"o":""},"-":{"ha":454,"x_min":0,"x_max":0,"o":""},".":{"ha":378,"x_min":0,"x_max":0,"o":""},"/":{"ha":386,"x_min":0,"x_max":0,"o":""},":":{"ha":378,"x_min":0,"x_max":0,"o":""},";":{"ha":378,"x_min":0,"x_max":0,"o":""},"<":{"ha":688,"x_min":0,"x_max":0,"o":""},"=":{"ha":688,"x_min":0,"x_max":0,"o":""},">":{"ha":688,"x_min":0,"x_max":0,"o":""},"?":{"ha":507,"x_min":0,"x_max":0,"o":""},"@":{"ha":1369,"x_min":0,"x_max":0,"o":""},"A":{"ha":1904,"x_min":91,"x_max":1813,"o":"m 940 1619 q 1190 1476 1095 1619 q 1290 1495 1223 1489 q 1561 1318 1470 1495 q 1586 1191 1586 1259 q 1572 1104 1586 1168 l 1575 1104 q 1740 1009 1690 1076 q 1813 811 1813 926 q 1640 545 1813 637 q 1664 426 1664 491 q 1466 146 1664 232 q 1385 133 1417 133 l 1355 133 q 1225 168 1295 133 q 1130 57 1190 92 q 962 0 1053 0 q 704 149 797 0 q 604 133 662 133 q 327 331 414 133 q 313 423 313 389 l 313 431 q 321 499 313 462 q 145 613 202 533 q 91 789 91 698 q 256 1053 91 960 q 229 1166 229 1110 l 229 1194 q 392 1446 229 1351 q 525 1476 458 1476 q 666 1440 588 1476 l 666 1443 q 940 1619 754 1619 m 715 1408 q 913 1099 856 1256 l 913 1096 l 916 1096 q 1135 1449 1006 1373 l 1135 1454 q 943 1563 1057 1563 l 929 1563 q 718 1419 795 1563 q 715 1408 715 1414 m 948 993 l 959 993 q 1160 852 1105 993 q 1458 1028 1297 888 q 1529 1191 1529 1104 l 1529 1207 q 1374 1424 1529 1347 q 1287 1438 1329 1438 q 951 1012 1065 1438 l 948 993 m 283 1177 q 644 857 283 971 q 758 836 697 836 q 829 949 758 876 q 888 982 859 967 q 709 1332 850 1158 q 528 1419 626 1419 l 517 1419 q 305 1278 382 1419 q 283 1177 283 1230 m 1548 1053 q 1420 922 1512 988 q 1230 817 1257 817 l 1230 814 q 1504 697 1333 794 q 1610 597 1587 640 q 1735 713 1687 623 q 1756 798 1756 762 l 1756 833 q 1634 1023 1756 941 q 1548 1053 1575 1053 m 148 795 l 148 781 q 305 562 148 638 q 340 553 334 553 q 604 781 387 665 q 636 800 636 795 q 289 1001 375 883 l 286 1001 q 178 903 225 980 q 148 795 148 850 m 807 787 l 807 781 q 935 629 807 671 q 959 627 949 629 q 1111 746 1068 627 q 1116 781 1116 758 l 1116 784 q 997 933 1116 890 q 962 939 968 937 q 812 825 861 939 q 807 787 807 804 m 368 429 q 500 214 368 293 q 595 190 547 190 l 625 190 q 926 537 805 190 l 937 572 q 818 627 890 572 q 750 779 750 697 l 745 779 q 368 429 368 634 m 1171 768 l 1171 765 q 1076 605 1171 674 q 1016 578 1050 589 q 1111 374 1016 543 q 1369 187 1222 187 q 1594 345 1520 187 q 1607 410 1607 385 l 1607 445 q 1249 751 1607 629 q 1171 768 1189 768 m 975 510 q 815 217 923 339 l 758 171 l 758 168 q 959 57 837 57 l 964 57 q 1173 193 1095 57 q 1176 203 1176 197 q 1010 434 1089 283 q 981 510 981 504 l 975 510 z "},"B":{"ha":1768,"x_min":102,"x_max":1665,"o":"m 889 1619 q 1052 1375 991 1619 q 1063 1272 1063 1316 l 1063 1251 q 1339 1392 1193 1367 q 1375 1394 1357 1394 l 1394 1394 q 1499 1316 1478 1394 l 1502 1289 q 1358 1006 1502 1179 l 1326 977 q 1600 882 1449 977 q 1665 776 1665 828 q 1402 608 1665 663 q 1329 600 1374 600 l 1310 600 l 1310 597 q 1423 317 1423 438 l 1423 298 q 1331 190 1423 204 l 1320 190 q 1063 309 1217 190 l 1060 309 l 1060 307 q 984 65 1060 209 q 884 0 935 0 q 699 247 775 0 q 686 342 686 304 l 686 377 q 366 225 509 225 q 265 331 275 225 l 265 334 q 393 624 265 460 q 140 719 213 656 q 102 792 104 761 l 102 808 q 290 968 102 890 q 439 998 385 998 l 447 998 q 311 1297 311 1174 q 390 1400 311 1376 q 420 1402 408 1402 q 686 1294 536 1402 q 775 1549 697 1421 q 889 1619 829 1619 m 740 1251 q 797 1166 740 1242 q 889 1004 861 1070 l 892 1004 q 998 1175 917 1059 q 1008 1272 1006 1217 q 941 1519 1008 1390 q 889 1563 909 1563 l 881 1563 q 767 1408 830 1563 q 740 1251 740 1329 m 368 1302 l 368 1294 q 496 1028 368 1185 q 715 873 611 928 q 734 865 721 873 q 794 949 751 920 q 843 968 830 968 q 675 1232 802 1082 q 425 1348 522 1348 q 368 1302 368 1348 m 932 960 q 1011 873 991 934 q 1014 868 1011 868 q 1234 979 1126 906 q 1437 1242 1371 1062 q 1445 1286 1445 1260 l 1445 1297 q 1383 1340 1445 1340 q 1125 1232 1270 1340 q 951 1001 1006 1106 q 932 960 932 965 m 157 798 q 314 697 157 749 q 450 675 367 681 q 699 819 597 780 q 509 941 601 874 q 452 944 469 944 q 184 846 317 944 q 157 798 157 817 m 1017 811 l 1017 808 q 1220 681 1081 785 q 1315 654 1234 654 q 1573 727 1449 654 q 1608 773 1608 755 l 1608 781 q 1451 895 1608 832 q 1315 922 1364 922 q 1201 892 1230 922 q 1017 811 1085 830 m 786 819 q 857 741 786 766 l 886 741 q 962 817 962 762 l 962 830 q 897 914 962 888 l 881 917 l 873 917 q 786 846 812 917 l 786 819 m 319 336 q 357 282 325 282 l 385 282 q 634 407 479 282 q 821 694 760 543 q 745 762 791 694 q 737 776 742 776 q 431 583 577 713 q 319 336 319 432 m 998 754 q 908 686 975 709 q 897 684 897 686 q 1017 445 916 606 q 1293 247 1108 307 q 1318 244 1308 247 q 1369 309 1369 244 q 1269 559 1369 416 q 1055 727 1149 677 q 998 754 1010 754 m 740 353 q 838 84 740 218 q 886 57 865 57 q 998 255 945 57 q 1008 361 1008 321 q 862 616 907 505 l 857 632 q 748 450 823 568 q 740 353 740 369 z "},"C":{"ha":1961,"x_min":194,"x_max":1767,"o":"m 983 1611 q 1111 1481 1009 1611 q 1157 1397 1143 1430 q 1420 1481 1343 1481 q 1461 1335 1451 1481 q 1463 1280 1461 1305 q 1404 1031 1463 1141 q 1472 1015 1404 1027 q 1637 933 1533 1000 q 1767 811 1767 838 l 1767 800 q 1610 654 1767 768 q 1558 624 1558 629 q 1629 434 1602 541 q 1637 388 1629 427 q 1556 345 1637 351 q 1450 336 1499 336 l 1420 336 q 1208 380 1310 336 l 1208 377 q 1133 163 1200 280 q 1000 3 1103 106 q 981 0 989 0 q 845 144 945 7 q 802 222 823 180 q 541 136 625 136 q 498 326 507 136 l 498 331 q 552 583 498 460 l 549 583 q 302 692 439 594 q 197 789 241 737 q 194 803 197 798 q 387 974 201 854 l 403 979 q 324 1221 324 1158 l 324 1232 q 433 1272 324 1265 q 528 1278 479 1278 q 755 1232 651 1278 l 755 1234 q 831 1451 762 1331 q 964 1611 869 1516 l 983 1611 m 810 1199 q 937 1058 908 1123 l 940 1058 q 1048 1308 940 1177 l 1111 1364 q 981 1544 1086 1432 l 978 1544 q 810 1199 810 1365 m 991 1004 l 994 1004 q 1122 906 1082 1004 l 1130 879 q 1407 1283 1407 981 q 1393 1421 1407 1353 q 1100 1278 1203 1379 q 991 1004 991 1166 m 384 1210 q 509 933 418 1035 q 802 808 624 808 q 845 811 829 811 q 840 854 840 842 l 840 863 q 910 985 840 941 q 530 1223 799 1223 q 384 1210 458 1221 m 1366 974 q 1225 860 1274 872 l 1225 854 l 1227 854 q 1461 751 1332 854 q 1529 675 1484 731 q 1681 784 1598 707 q 1702 800 1697 800 l 1702 803 q 1366 974 1526 974 m 894 860 q 970 770 894 793 q 983 768 979 770 q 1073 846 1050 768 l 1073 871 q 1002 947 1073 920 l 983 949 q 897 868 897 930 q 894 860 894 868 m 262 806 l 262 803 q 590 637 437 637 q 731 754 664 727 q 663 770 731 759 q 435 933 518 815 q 262 806 375 909 m 1021 716 q 1135 499 1033 618 q 1436 391 1251 391 q 1577 404 1484 391 q 1442 689 1536 589 q 1176 803 1329 803 l 1122 803 q 1043 724 1090 743 q 1021 716 1021 720 m 555 334 q 568 195 555 264 q 867 345 766 241 q 970 616 970 455 q 948 719 970 719 q 880 751 930 719 q 663 635 742 718 q 555 334 555 524 m 1021 553 q 943 345 1021 469 q 850 252 911 305 q 983 68 871 191 q 1154 412 1154 247 q 1024 553 1052 486 l 1021 553 z "},"D":{"ha":1969,"x_min":206,"x_max":1763,"o":"m 1286 1587 q 1465 1563 1465 1587 l 1468 1546 l 1468 1226 q 1383 955 1468 1079 l 1383 952 q 1484 963 1415 960 q 1712 817 1657 963 q 1763 483 1763 689 l 1763 467 q 1742 290 1763 290 l 1723 288 l 1435 288 q 1156 355 1274 288 q 1161 293 1161 342 l 1161 266 q 1012 52 1161 109 q 670 0 880 0 q 488 27 488 0 l 488 358 q 548 594 488 481 l 515 591 l 464 591 q 244 770 300 591 q 206 1047 206 895 l 206 1118 q 228 1261 206 1261 q 239 1264 233 1264 l 562 1264 q 803 1202 688 1264 l 803 1204 q 795 1297 795 1260 l 795 1318 q 944 1535 795 1479 q 1286 1587 1084 1587 m 849 1308 q 892 1128 859 1142 q 990 966 953 1061 q 1128 876 1080 966 q 1283 930 1198 903 q 1413 1256 1413 1044 l 1413 1525 q 1275 1530 1368 1530 q 873 1413 958 1530 q 849 1308 849 1369 m 266 1210 q 260 1082 260 1155 q 382 667 260 742 q 486 646 423 646 q 865 751 631 646 q 849 822 849 798 q 933 952 849 907 q 751 1164 876 1100 q 526 1210 667 1210 l 266 1210 m 906 822 q 977 735 906 758 l 993 732 q 1080 806 1053 732 l 1080 830 q 993 909 1061 909 q 906 822 906 894 m 1053 692 q 1139 442 1139 473 q 1402 345 1253 345 l 1704 345 l 1709 475 q 1595 882 1709 789 q 1492 906 1552 906 l 1473 906 q 1137 817 1348 906 q 1053 692 1137 732 m 543 320 l 543 65 l 545 60 q 659 57 618 57 l 684 57 q 1093 198 1036 57 q 1107 279 1107 235 q 996 678 1107 425 l 990 678 q 903 705 951 678 q 629 608 789 651 q 543 320 543 513 z "},"E":{"ha":1942,"x_min":191,"x_max":1751,"o":"m 723 1549 l 726 1549 q 983 1340 902 1549 q 1062 1440 1025 1398 q 1271 1544 1181 1544 l 1274 1544 q 1390 1443 1337 1522 q 1420 1337 1420 1379 l 1420 1299 q 1382 1145 1420 1244 q 1491 1158 1435 1158 l 1507 1158 q 1737 1077 1642 1158 q 1751 998 1748 1038 q 1586 757 1751 839 q 1740 499 1740 623 q 1640 385 1714 429 q 1523 353 1583 353 l 1499 353 q 1358 385 1444 353 l 1358 382 q 1371 277 1371 321 l 1371 247 q 1290 22 1371 113 q 1219 8 1263 8 l 1200 8 q 970 165 1060 8 l 967 165 q 747 5 894 52 q 715 0 720 3 q 595 98 668 0 q 560 228 560 155 l 560 233 q 587 369 560 290 l 585 369 q 460 353 518 353 q 221 434 318 353 q 208 521 208 476 q 397 768 208 683 q 197 1015 246 859 q 191 1055 191 1049 q 300 1177 218 1131 q 406 1204 354 1204 l 433 1204 q 576 1172 490 1204 l 576 1175 q 560 1299 560 1242 q 647 1538 560 1447 q 723 1549 686 1549 m 617 1310 l 617 1294 q 785 892 617 1099 q 837 849 817 861 l 842 849 q 929 933 860 902 q 975 941 954 941 l 986 941 l 989 955 l 989 990 q 897 1392 989 1213 q 723 1495 824 1495 q 661 1468 671 1495 q 617 1310 617 1388 m 1008 1261 q 1046 985 1046 1102 q 1043 966 1043 974 q 1309 1126 1174 1078 q 1366 1316 1366 1238 q 1263 1487 1366 1428 l 1260 1487 q 1100 1397 1193 1479 q 1008 1261 1038 1327 m 248 1047 q 346 879 254 975 q 473 795 429 808 q 758 838 644 838 q 598 1099 656 942 q 419 1150 495 1150 q 248 1047 309 1150 m 1076 914 q 1143 781 1143 864 q 1138 749 1141 753 q 1165 730 1160 730 q 1624 846 1459 730 q 1694 996 1694 912 l 1694 1004 q 1670 1058 1694 1049 q 1499 1104 1590 1104 q 1114 952 1319 1104 q 1076 914 1076 918 m 883 770 q 954 684 883 718 q 986 678 975 678 q 1086 770 1059 678 l 1086 787 q 1000 887 1086 859 l 986 887 q 883 803 913 887 l 883 770 m 264 529 l 264 505 q 289 456 264 456 q 446 410 359 410 l 468 410 q 829 548 629 410 q 891 621 891 595 q 894 651 891 633 q 826 779 826 701 l 807 781 l 764 781 q 365 689 543 781 q 264 529 264 615 m 1214 675 q 1325 486 1284 584 q 1501 407 1325 435 l 1512 407 q 1683 510 1624 407 l 1683 513 q 1594 673 1683 568 q 1518 727 1533 727 q 1214 675 1340 675 m 991 624 l 975 624 l 948 627 l 945 621 l 945 556 q 1038 163 945 342 q 1208 62 1109 62 q 1274 90 1263 62 q 1317 260 1317 170 q 1154 656 1317 451 q 1116 692 1136 678 q 991 624 1061 624 m 614 231 q 718 57 614 123 q 888 155 781 60 q 943 228 919 192 q 891 524 891 418 l 888 524 q 720 418 800 452 q 652 377 652 393 q 614 231 614 288 z "},"F":{"ha":1942,"x_min":174,"x_max":1769,"o":"m 909 1617 q 1025 1478 943 1617 q 1066 1329 1066 1388 l 1069 1329 q 1256 1468 1114 1416 q 1375 1495 1316 1487 q 1408 1413 1408 1495 l 1408 1383 q 1359 1185 1408 1282 l 1362 1185 q 1470 1207 1418 1207 l 1497 1207 q 1695 1139 1695 1185 q 1579 952 1681 1067 q 1489 892 1506 892 l 1489 890 q 1674 803 1561 890 q 1769 681 1769 705 q 1592 581 1769 641 q 1495 567 1546 567 l 1478 567 q 1590 282 1590 435 q 1508 255 1590 255 q 1261 326 1368 255 q 1267 279 1267 304 l 1267 252 q 1175 11 1267 151 q 1150 0 1160 0 q 974 179 1052 47 q 960 214 960 210 l 958 214 q 770 22 916 109 q 735 11 753 11 q 656 195 701 11 q 651 258 651 243 q 654 298 654 285 l 651 298 q 418 241 560 241 l 412 241 q 355 263 355 241 q 350 271 353 263 q 429 515 350 385 l 429 521 l 426 521 q 176 629 315 521 l 174 643 l 174 651 q 296 781 174 683 l 369 825 q 176 1036 243 884 l 176 1039 q 372 1123 176 1084 q 415 1126 387 1126 l 434 1126 q 486 1120 464 1126 q 437 1316 437 1211 q 464 1427 437 1427 q 472 1430 464 1430 q 719 1335 575 1430 q 743 1313 719 1332 l 743 1318 q 901 1617 743 1474 l 909 1617 m 906 1549 q 800 1335 800 1424 l 800 1297 l 803 1297 q 958 1318 884 1318 l 971 1318 q 1012 1316 985 1318 l 1012 1318 q 909 1549 1012 1426 l 906 1549 m 1112 1297 l 1112 1294 q 1297 1194 1191 1274 l 1299 1194 q 1354 1413 1354 1279 q 1351 1435 1354 1416 q 1145 1340 1208 1405 q 1112 1297 1128 1320 m 496 1367 q 494 1337 494 1349 l 494 1313 q 548 1126 494 1204 l 551 1126 q 716 1259 659 1240 l 716 1261 q 496 1367 596 1367 m 491 795 q 719 396 491 548 q 952 331 829 331 l 960 331 q 1373 586 1221 331 q 1421 798 1421 692 q 1194 1199 1421 1044 q 958 1264 1074 1264 q 575 1063 727 1264 q 491 795 491 940 m 1362 1126 q 1449 968 1425 1039 l 1457 939 q 1617 1093 1539 968 q 1628 1126 1628 1116 q 1478 1153 1545 1153 q 1362 1126 1423 1153 m 241 1028 l 241 1025 q 396 871 307 913 q 439 860 422 860 q 499 1061 439 911 q 423 1072 460 1072 q 241 1028 341 1072 m 1476 836 l 1476 779 q 1449 627 1476 709 q 1492 621 1453 624 q 1701 686 1586 621 l 1701 689 q 1476 836 1582 836 m 239 651 q 442 575 346 575 l 456 575 q 483 581 483 575 q 437 787 437 684 q 239 651 317 751 m 1411 545 q 1283 380 1393 498 l 1283 377 q 1508 312 1373 312 l 1533 312 q 1478 477 1516 413 q 1413 545 1448 520 l 1411 545 m 410 298 l 439 298 q 654 372 575 298 l 654 374 q 518 515 584 416 q 513 526 513 522 q 418 358 458 485 q 410 298 410 311 m 998 277 q 1082 122 1004 214 q 1147 68 1137 68 l 1147 71 q 1213 269 1213 176 q 1202 334 1213 303 q 998 277 1070 277 m 716 331 q 708 263 708 294 l 708 247 q 751 76 708 172 q 920 266 870 140 l 920 277 q 716 331 846 277 z "},"G":{"ha":2099,"x_min":181,"x_max":1917,"o":"m 1334 1617 l 1342 1617 q 1432 1541 1404 1617 q 1442 1468 1442 1504 l 1442 1435 q 1296 1006 1442 1245 l 1296 1004 q 1646 1072 1474 1072 q 1914 971 1862 1072 l 1917 944 l 1917 936 q 1670 746 1917 827 q 1391 703 1532 703 q 1307 708 1353 703 q 1505 494 1450 586 q 1619 206 1619 315 l 1619 184 q 1559 87 1619 115 q 1521 81 1533 81 q 1266 241 1418 81 q 1101 496 1144 380 l 1098 496 q 941 125 1050 272 q 759 0 847 0 q 659 144 675 0 l 659 165 q 810 618 659 374 l 808 618 q 450 548 632 548 q 192 635 253 548 q 181 675 181 652 l 181 684 q 517 898 181 814 q 710 917 633 917 q 800 911 726 917 q 615 1112 648 1046 q 493 1421 493 1291 q 550 1525 493 1498 q 583 1530 569 1530 l 599 1530 q 927 1275 729 1530 q 1006 1134 990 1175 l 1008 1134 q 1082 1359 1009 1184 q 1334 1617 1217 1617 m 1052 1025 l 1052 993 q 1171 949 1116 993 l 1177 949 q 1369 1308 1307 1084 q 1388 1454 1388 1388 q 1337 1563 1383 1563 l 1334 1563 q 1198 1446 1256 1537 q 1052 1025 1052 1217 m 550 1432 l 550 1405 q 734 1050 558 1266 q 903 914 848 937 l 911 914 q 995 985 925 948 q 881 1240 983 1086 q 591 1476 697 1476 l 585 1476 q 550 1432 555 1476 m 1212 890 q 1225 808 1225 853 q 1223 787 1223 789 q 1367 760 1284 760 l 1418 760 q 1790 857 1604 760 q 1863 944 1863 906 q 1659 1015 1826 1015 l 1630 1015 q 1253 920 1435 1015 q 1212 890 1228 904 m 935 819 l 935 808 q 1033 697 935 727 l 1057 697 q 1168 798 1133 697 l 1168 827 q 1074 936 1168 905 l 1049 936 q 938 841 972 936 q 935 819 935 831 m 235 675 q 425 605 277 605 l 471 605 q 878 722 693 605 q 895 738 878 723 q 878 817 878 786 l 881 830 q 729 860 819 860 l 688 860 q 273 738 458 860 q 235 675 235 701 m 1117 651 q 1326 260 1117 500 q 1513 138 1455 138 l 1529 138 q 1565 195 1565 138 q 1396 543 1565 327 q 1187 705 1265 689 q 1117 651 1158 675 m 715 182 l 715 152 q 764 54 723 54 q 922 198 824 54 q 1052 597 1052 419 l 1049 640 q 941 678 994 640 q 816 521 866 612 q 715 182 715 315 z "},"H":{"ha":1945,"x_min":167,"x_max":1778,"o":"m 1227 1611 l 1238 1611 q 1260 1590 1260 1609 q 1257 1538 1260 1581 q 1382 1348 1257 1418 q 1420 1218 1420 1289 l 1420 1175 q 1664 1223 1563 1223 l 1718 1223 q 1746 1194 1741 1223 q 1632 1015 1746 1124 q 1507 928 1590 979 q 1645 822 1557 907 l 1648 808 q 1645 760 1648 792 q 1775 562 1645 661 l 1778 548 l 1778 543 q 1754 518 1775 518 l 1721 518 q 1710 521 1715 518 q 1512 393 1584 521 q 1366 355 1447 355 q 1312 361 1350 355 q 1358 141 1358 244 q 1306 0 1348 0 l 1295 0 q 1130 165 1261 0 q 1084 247 1086 239 l 1078 247 q 989 133 1063 210 l 972 127 q 935 130 949 130 l 916 130 q 728 3 825 130 l 715 0 l 707 0 q 682 22 690 0 q 685 62 685 49 l 685 81 q 555 269 685 193 q 522 396 523 342 l 519 396 q 368 372 434 372 l 351 372 q 216 423 216 381 l 216 431 q 392 605 237 492 q 487 656 451 642 l 487 662 q 302 787 411 682 q 294 800 300 787 q 297 860 297 841 q 208 1017 297 934 q 167 1061 167 1046 l 167 1072 q 189 1093 167 1093 l 208 1093 q 235 1090 220 1093 q 435 1223 359 1090 q 579 1256 509 1256 q 528 1446 528 1364 q 560 1525 528 1525 l 568 1525 q 831 1332 680 1494 q 840 1324 831 1328 l 842 1324 q 956 1478 858 1379 l 970 1484 q 1013 1481 998 1481 l 1024 1481 q 1217 1609 1116 1481 q 1227 1611 1221 1611 m 1016 1424 l 997 1424 l 983 1427 q 853 1139 853 1288 l 853 1112 q 913 1017 853 1105 q 932 977 913 1015 q 948 1031 937 977 q 972 1042 962 1042 l 975 1042 q 1013 966 1004 1042 q 1067 1017 1053 1017 l 1078 1017 q 1100 990 1100 1017 q 1089 930 1100 981 l 1092 930 q 1249 979 1135 954 q 1366 1199 1366 1087 q 1322 1316 1358 1316 q 1206 1506 1206 1406 l 1203 1506 q 1016 1424 1112 1424 m 585 1457 l 585 1446 q 652 1245 585 1351 q 796 1166 722 1230 l 799 1166 l 799 1169 q 815 1264 799 1196 q 587 1457 681 1414 l 585 1457 m 270 1039 q 354 844 354 948 q 351 817 351 820 q 644 686 490 686 q 747 703 686 686 l 747 705 q 723 727 723 705 l 723 738 q 785 781 723 760 l 785 787 q 723 830 723 810 l 723 841 q 747 863 723 863 l 804 863 l 804 865 q 766 928 766 909 l 766 930 q 791 955 770 955 l 793 955 q 859 930 803 955 q 845 990 853 946 q 850 1006 847 1006 q 582 1199 730 1199 l 574 1199 q 452 1142 469 1199 q 270 1039 361 1039 m 1331 979 q 1439 960 1358 979 q 1681 1169 1628 1051 l 1678 1169 q 1407 1107 1553 1169 q 1331 979 1396 1060 m 1143 868 l 1143 863 l 1200 863 q 1225 833 1225 863 q 1162 787 1225 809 l 1162 781 q 1225 735 1225 759 l 1225 732 q 1200 705 1221 705 l 1143 705 l 1143 700 q 1179 646 1179 660 l 1179 635 q 1154 613 1179 613 q 1089 637 1143 613 l 1089 635 q 1230 453 1089 566 q 1360 412 1301 412 l 1374 412 q 1477 445 1463 418 q 1637 567 1517 526 l 1672 572 q 1591 757 1591 666 l 1591 792 q 1301 925 1459 925 q 1160 887 1174 916 q 1143 868 1157 887 m 943 876 q 924 879 934 879 q 891 852 924 852 q 888 854 891 854 l 888 833 q 867 811 888 811 l 867 808 q 878 787 878 797 l 878 781 q 867 760 878 772 l 867 757 q 888 735 888 757 l 888 713 l 891 713 l 897 716 q 926 686 926 710 q 943 692 935 692 l 948 692 q 975 675 959 692 q 1000 692 975 688 l 1002 692 q 1021 689 1014 689 q 1051 716 1021 711 q 1059 713 1057 713 l 1059 716 q 1057 727 1057 721 l 1057 732 q 1078 757 1057 757 l 1078 760 q 1070 779 1070 770 l 1070 789 q 1078 808 1070 798 l 1078 811 q 1057 836 1061 811 l 1057 841 l 1059 854 q 1051 852 1057 854 q 1019 882 1029 852 q 1002 876 1010 876 l 1000 876 q 975 892 975 880 q 943 876 960 876 m 972 863 q 1054 784 1054 852 q 970 703 1054 712 q 894 781 904 703 l 894 784 q 972 863 903 863 m 951 784 l 951 781 q 967 760 951 766 l 972 760 q 997 784 997 763 q 981 806 997 795 l 972 806 q 951 784 951 806 m 579 420 l 579 399 q 636 285 579 305 q 715 193 692 238 q 739 106 728 161 q 932 187 830 187 l 945 187 l 959 184 q 1092 475 1092 326 q 1065 540 1092 516 q 1013 602 1065 545 q 975 526 1004 526 l 972 526 q 937 583 943 526 l 935 600 l 932 600 q 878 551 892 551 l 869 551 q 845 578 848 551 q 859 637 853 622 l 853 637 q 791 613 810 613 q 766 637 766 616 l 766 648 l 764 648 q 671 610 689 637 q 579 420 579 515 m 289 437 q 365 426 308 429 q 525 458 433 426 q 604 624 536 534 q 612 632 608 624 q 576 635 578 635 q 419 553 510 611 q 289 437 357 514 m 1146 445 q 1114 312 1135 357 q 1265 95 1161 204 l 1290 73 l 1293 73 q 1301 133 1301 106 l 1301 155 q 1241 382 1301 251 q 1146 445 1199 403 z "},"I":{"ha":2057,"x_min":195,"x_max":1861,"o":"m 1251 1617 q 1335 1571 1261 1617 q 1432 1546 1392 1546 q 1525 1611 1484 1546 l 1538 1614 l 1546 1614 q 1571 1587 1568 1614 q 1533 1508 1571 1581 q 1522 1451 1522 1473 q 1704 1321 1522 1355 q 1717 1297 1717 1311 l 1717 1283 q 1611 884 1717 1077 l 1611 879 q 1799 760 1706 851 q 1861 613 1861 682 q 1812 518 1861 600 q 1790 429 1790 467 q 1853 336 1790 377 l 1858 328 l 1858 312 q 1836 290 1858 290 l 1831 290 q 1761 323 1821 290 q 1706 336 1731 336 l 1693 336 q 1565 160 1599 336 q 1533 141 1558 141 q 1128 247 1332 141 q 1085 277 1128 249 q 1006 117 1057 190 q 811 0 909 0 l 808 0 q 722 43 795 0 q 627 71 665 71 q 534 8 570 71 q 513 0 515 0 q 486 24 486 5 l 486 33 l 521 106 q 534 163 532 132 q 363 293 534 259 q 336 328 341 293 l 339 345 q 445 738 339 534 l 442 738 q 214 922 274 800 q 195 1001 195 969 l 195 1009 q 239 1090 195 1017 q 266 1185 266 1147 q 201 1280 266 1242 l 198 1294 l 198 1305 q 220 1326 198 1326 l 228 1326 l 301 1291 q 358 1278 327 1280 q 491 1462 457 1278 q 521 1476 500 1472 q 871 1400 676 1476 q 968 1340 928 1370 l 971 1340 q 1063 1514 1007 1453 q 1251 1617 1147 1617 m 1017 1297 q 1120 1101 1087 1238 q 1150 1063 1120 1063 q 1245 974 1219 1028 q 1264 936 1261 936 l 1310 936 q 1552 898 1414 936 q 1633 1080 1592 951 q 1663 1272 1655 1173 q 1468 1443 1468 1317 l 1468 1462 l 1470 1495 l 1438 1492 l 1421 1492 q 1242 1560 1341 1492 l 1237 1560 q 1090 1459 1177 1560 q 1017 1297 1029 1357 m 537 1419 q 363 1223 498 1223 l 361 1223 q 315 1226 347 1223 q 320 1191 320 1214 l 320 1183 q 252 996 320 1105 l 252 993 q 361 841 252 928 q 765 735 545 735 q 895 754 829 735 l 895 760 q 860 876 860 815 q 998 1069 860 1010 q 1069 1080 1030 1080 q 966 1267 1039 1207 q 667 1402 883 1356 q 537 1419 616 1413 m 917 871 q 1039 727 917 769 l 1077 727 q 1213 846 1169 727 q 1215 876 1215 870 q 1093 1023 1215 979 l 1058 1023 q 917 895 955 1023 l 917 871 m 1270 882 l 1270 871 q 1123 678 1270 733 l 1120 678 q 1134 570 1128 654 q 1104 334 1134 496 l 1107 334 q 1397 212 1202 250 q 1516 198 1480 198 q 1701 393 1557 393 q 1739 388 1720 393 q 1736 429 1736 415 l 1736 445 q 1804 621 1736 511 l 1804 624 q 1723 754 1804 673 q 1275 882 1545 882 l 1270 882 m 393 342 q 589 168 589 302 l 589 160 q 586 119 589 146 q 621 125 598 125 l 629 125 q 817 57 708 125 l 819 57 q 947 136 872 57 q 1028 282 989 184 q 1077 572 1077 436 q 1066 670 1077 616 q 939 711 1003 670 q 760 678 847 678 q 505 716 668 678 q 429 553 460 661 q 393 342 393 416 z "},"J":{"ha":2022,"x_min":211,"x_max":1811,"o":"m 998 1611 l 1008 1611 q 1109 1432 1042 1611 q 1139 1313 1125 1386 q 1377 1522 1274 1482 l 1388 1525 q 1423 1451 1423 1525 l 1423 1449 q 1304 1128 1423 1339 q 1616 1294 1500 1294 q 1662 1259 1662 1294 q 1375 882 1584 1028 q 1527 890 1450 887 q 1811 806 1750 890 l 1811 789 q 1573 670 1811 747 l 1556 667 q 1735 439 1735 497 q 1659 404 1735 404 q 1329 532 1551 404 q 1510 198 1510 317 q 1478 152 1510 152 q 1215 307 1380 169 q 1098 442 1143 378 l 1098 439 q 1103 298 1103 357 l 1103 277 q 1022 0 1103 59 l 1006 0 q 886 236 963 0 l 886 247 q 672 84 725 84 q 640 141 640 84 l 640 165 q 756 477 640 271 q 433 296 543 296 l 409 296 q 376 326 376 298 q 542 605 391 424 q 664 703 650 703 l 664 705 l 661 705 q 498 697 588 697 q 214 779 271 697 l 211 792 q 455 917 211 840 q 488 922 464 917 l 488 925 q 333 1090 380 1013 q 306 1147 306 1130 l 306 1153 q 379 1185 306 1185 q 677 1077 487 1185 l 677 1080 q 504 1405 504 1283 q 536 1449 504 1449 q 805 1291 644 1427 q 916 1158 869 1225 l 916 1161 q 908 1321 908 1299 q 984 1609 908 1537 l 998 1611 m 965 1324 q 1003 968 965 1124 l 1006 968 q 1090 1240 1006 1050 q 1003 1535 1090 1361 q 965 1324 965 1485 m 1060 920 l 1087 911 q 1369 1451 1369 1297 l 1367 1451 q 1087 1085 1177 1331 q 1060 920 1060 999 m 564 1381 l 564 1378 q 895 936 582 1242 l 946 898 q 962 911 962 907 q 791 1223 929 1060 q 564 1381 674 1336 m 1128 871 l 1128 868 q 1136 838 1136 842 q 1410 982 1278 873 q 1565 1175 1529 1097 l 1594 1234 l 1592 1234 q 1190 944 1466 1216 q 1128 871 1150 905 m 379 1128 l 379 1126 q 753 846 503 932 q 908 817 855 817 q 911 852 911 827 q 385 1128 534 1128 l 379 1128 m 290 787 q 504 751 371 751 q 791 776 599 751 l 791 779 q 553 876 658 807 q 295 795 469 876 l 290 787 m 1255 814 l 1255 811 q 1489 713 1383 782 l 1491 713 q 1735 795 1568 713 q 1521 833 1682 833 q 1255 814 1426 833 m 1133 770 q 1122 746 1133 762 q 1651 461 1480 475 l 1662 461 l 1662 464 q 1282 746 1539 658 q 1133 770 1204 770 m 444 353 l 447 353 q 721 524 537 368 q 932 735 877 665 q 919 754 923 754 q 561 540 695 695 q 444 353 467 419 m 1063 700 q 1060 662 1060 666 q 1345 277 1142 410 q 1451 220 1388 250 l 1451 222 q 1301 475 1442 298 q 1076 705 1202 593 q 1063 700 1067 700 m 976 697 q 694 157 694 316 l 696 157 q 903 372 838 257 q 1003 694 1003 535 q 976 697 1003 697 m 1030 518 q 930 307 1017 444 q 1014 76 947 190 q 1049 290 1049 153 q 1033 518 1049 379 l 1030 518 z "},"K":{"ha":1954,"x_min":180,"x_max":1775,"o":"m 947 1617 l 966 1617 q 1219 1468 1139 1571 l 1221 1462 q 1311 1476 1270 1476 q 1552 1400 1423 1476 q 1609 1297 1573 1389 q 1639 1145 1639 1213 l 1639 1137 q 1615 1025 1639 1080 q 1775 765 1714 966 l 1775 754 q 1677 543 1765 669 q 1596 475 1628 493 q 1520 231 1596 370 q 1476 201 1502 215 q 1270 146 1354 146 l 1267 146 q 1213 100 1257 146 q 1007 0 1099 16 l 985 0 q 733 152 823 40 q 657 138 696 138 l 633 138 q 402 212 536 138 q 329 366 363 252 q 315 467 315 421 l 315 477 q 340 591 315 527 q 180 849 243 646 l 180 868 q 291 1088 210 997 q 359 1139 346 1139 q 437 1389 359 1253 q 541 1440 463 1413 q 690 1470 618 1470 l 695 1470 q 947 1617 775 1569 m 768 1462 l 768 1459 q 926 1335 870 1428 q 991 1164 967 1261 q 1002 1126 996 1126 q 1113 1392 1024 1285 q 1167 1438 1136 1414 q 953 1563 1108 1518 q 768 1462 823 1519 m 1042 982 q 1121 911 1099 958 q 1471 1069 1316 1069 q 1563 1053 1518 1069 q 1585 1145 1585 1095 q 1517 1356 1585 1238 q 1311 1419 1400 1419 l 1303 1419 q 1048 1072 1101 1419 q 1042 982 1042 1044 m 416 1145 l 416 1126 q 676 895 416 964 q 823 873 767 873 q 825 871 823 871 q 871 952 833 909 l 880 958 q 958 993 905 979 q 885 1291 958 1133 q 709 1413 809 1413 l 679 1413 q 478 1348 589 1413 q 416 1145 416 1230 m 234 857 q 484 602 317 602 q 828 779 627 602 q 820 817 823 817 q 522 890 692 817 q 380 1028 424 941 q 367 1077 367 1070 l 364 1077 q 234 857 276 1006 m 1143 852 l 1143 819 l 1140 800 q 1148 798 1145 798 q 1449 719 1299 790 q 1566 600 1539 661 q 1588 540 1579 576 q 1721 760 1682 614 q 1476 1012 1636 1012 l 1466 1012 q 1143 852 1326 1012 m 877 827 q 964 727 877 755 l 988 727 q 1086 811 1056 727 q 1088 833 1086 814 q 985 936 1067 936 l 977 936 q 877 846 904 936 l 877 827 m 1118 743 l 1097 716 q 1308 315 1308 481 l 1308 296 q 1292 203 1308 255 l 1295 203 q 1476 269 1375 210 q 1539 472 1539 387 l 1539 483 q 1164 741 1539 693 q 1118 743 1143 743 m 492 548 l 473 548 q 391 562 444 548 q 370 469 370 518 q 437 255 370 374 q 649 193 564 193 q 901 507 840 193 q 918 684 912 566 q 858 724 898 688 l 855 724 q 492 548 645 548 m 985 670 l 972 670 l 972 667 q 869 255 972 429 q 787 179 814 189 l 787 176 q 999 54 857 94 q 1254 304 1254 135 q 1048 684 1254 461 q 985 670 1015 670 z "},"L":{"ha":1978,"x_min":172,"x_max":1805,"o":"m 802 1619 q 1016 1432 957 1619 q 1032 1345 1029 1369 l 1035 1345 q 1176 1554 1084 1504 q 1271 1576 1222 1576 q 1556 1421 1400 1576 q 1618 1280 1618 1349 l 1618 1259 q 1512 1069 1618 1168 l 1512 1066 q 1564 1072 1534 1072 l 1591 1072 q 1784 939 1730 1072 q 1805 795 1805 879 l 1805 789 q 1683 510 1805 572 q 1588 488 1634 488 l 1567 488 q 1412 521 1506 488 q 1539 288 1539 385 l 1539 271 q 1233 5 1539 95 q 1173 0 1187 0 q 962 190 1019 0 q 945 274 945 257 l 943 274 q 709 43 871 43 q 422 198 576 43 q 359 336 359 271 l 359 363 q 463 548 359 449 l 465 548 l 465 553 q 416 548 452 548 l 384 548 q 186 705 235 548 q 172 814 172 759 l 172 838 q 294 1109 172 1045 q 395 1131 341 1131 l 400 1131 q 566 1099 474 1131 q 438 1329 438 1235 l 438 1356 q 734 1611 438 1518 q 802 1619 769 1617 m 492 1343 q 815 977 492 1193 l 818 977 q 978 1039 893 1039 l 978 1042 q 986 1207 986 1136 q 861 1552 986 1489 q 807 1563 830 1563 l 799 1563 q 547 1454 689 1563 q 492 1343 492 1401 m 1035 1036 q 1187 960 1095 1036 q 1198 947 1187 952 q 1401 1053 1363 1028 q 1564 1272 1564 1171 q 1347 1503 1564 1388 q 1276 1519 1305 1519 l 1257 1519 q 1062 1237 1131 1519 q 1035 1036 1043 1145 m 227 825 q 400 602 227 602 q 728 716 527 602 q 726 762 726 748 l 726 787 q 774 930 726 859 q 397 1077 532 1077 q 227 825 227 1077 m 1230 901 q 1260 770 1260 829 q 1238 667 1260 722 q 1577 543 1457 543 q 1751 795 1751 543 q 1577 1017 1751 1017 q 1230 901 1452 1017 m 780 768 q 894 586 780 657 q 981 562 942 562 l 997 562 q 1195 711 1131 562 q 1203 768 1203 739 l 1203 784 q 1081 966 1203 891 q 986 985 1034 985 q 799 860 871 985 q 780 768 780 816 m 414 350 q 642 111 414 227 q 696 100 682 100 l 720 100 q 913 377 847 100 q 932 513 932 450 q 791 594 878 513 q 747 662 764 627 q 414 350 414 497 m 994 505 q 991 450 991 468 l 991 412 q 1103 76 991 144 q 1171 57 1132 57 l 1181 57 q 1415 152 1277 57 q 1485 279 1485 210 q 1211 610 1485 411 l 1208 610 q 994 505 1116 505 z "},"M":{"ha":2009,"x_min":197,"x_max":1811,"o":"m 1003 1617 q 1147 1511 1088 1592 q 1196 1354 1196 1438 l 1196 1351 q 1177 1232 1196 1294 l 1177 1229 l 1179 1229 q 1445 1411 1276 1411 q 1584 1364 1584 1400 q 1605 1251 1605 1312 q 1423 985 1605 1080 l 1423 982 l 1426 982 q 1546 1001 1491 1001 q 1809 822 1725 1001 l 1811 808 q 1706 665 1787 724 q 1546 616 1633 616 q 1432 632 1501 616 l 1429 632 l 1429 629 q 1605 361 1605 536 q 1562 228 1593 228 q 1448 206 1498 206 q 1179 388 1276 206 l 1177 388 l 1177 385 q 1196 266 1196 325 l 1196 263 q 1017 3 1196 88 l 1000 0 q 873 92 921 27 q 810 269 810 161 q 829 385 810 315 q 748 279 795 328 q 558 206 664 206 q 422 250 433 216 q 401 366 401 314 q 583 632 401 536 l 583 635 l 580 635 q 458 616 517 616 q 200 789 288 616 q 197 803 197 794 l 197 814 q 314 963 214 886 q 463 1001 387 1001 q 580 982 513 1001 l 583 982 l 583 985 q 401 1251 401 1082 q 455 1392 410 1392 q 558 1411 508 1411 q 827 1232 729 1411 l 829 1232 q 810 1354 810 1298 q 987 1614 810 1524 q 1003 1617 989 1614 m 867 1359 l 867 1337 q 984 1025 867 1227 q 1000 979 1000 987 l 1006 979 q 1106 1188 1006 993 q 1141 1348 1141 1303 q 1003 1557 1141 1487 l 1000 1557 q 867 1359 867 1482 m 458 1253 l 458 1248 q 843 947 458 1042 q 884 928 846 943 l 884 930 q 813 1137 862 976 q 564 1354 718 1354 l 553 1354 q 463 1313 463 1354 q 458 1253 458 1273 m 1128 930 q 1315 993 1162 947 q 1548 1245 1548 1090 l 1548 1261 q 1505 1348 1548 1348 q 1453 1354 1472 1354 l 1442 1354 q 1141 968 1236 1354 q 1128 930 1128 949 m 895 1069 l 895 1066 q 960 909 925 958 l 962 909 l 962 911 q 897 1069 962 946 l 895 1069 m 1106 1063 q 1044 909 1049 958 q 1103 1036 1078 951 l 1109 1061 l 1109 1063 l 1106 1063 m 254 806 q 444 673 333 673 l 471 673 q 802 798 587 673 q 832 806 829 806 l 832 811 q 629 909 819 811 q 474 944 526 944 l 444 944 q 254 808 330 944 l 254 806 m 1174 811 l 1174 806 q 1377 708 1190 806 q 1532 673 1484 673 l 1562 673 q 1752 806 1675 673 l 1752 811 q 1562 944 1676 944 l 1532 944 q 1209 822 1420 944 l 1174 811 m 1103 849 l 1106 849 q 1263 914 1180 867 l 1263 917 l 1261 917 q 1103 852 1167 892 l 1103 849 m 748 914 l 748 911 q 903 849 826 867 q 756 914 856 886 l 748 914 m 957 811 l 957 800 q 1006 754 957 767 q 1057 808 1047 754 q 1008 854 1057 843 l 1000 854 q 957 811 957 841 m 743 703 l 743 700 l 745 700 q 903 768 863 733 l 900 768 q 743 703 826 750 m 1106 768 q 1250 703 1136 736 q 1261 700 1256 703 l 1263 700 l 1263 703 q 1106 768 1142 768 m 960 708 q 895 553 922 647 l 895 548 l 897 548 q 962 705 962 671 l 962 708 l 960 708 m 1044 705 q 1109 548 1062 631 l 1112 548 l 1112 551 q 1049 705 1105 597 l 1044 705 m 458 369 l 458 363 q 498 269 458 269 q 553 263 537 263 l 564 263 q 862 637 768 263 l 884 689 q 683 621 844 670 q 458 369 458 524 m 1122 689 q 1190 488 1141 650 q 1442 263 1287 263 l 1453 263 q 1540 301 1540 263 q 1548 355 1548 321 l 1548 372 q 1190 662 1548 570 l 1122 689 m 1000 637 q 903 434 1000 622 q 867 279 867 328 l 867 258 q 1003 60 867 132 l 1006 60 q 1141 266 1141 135 q 1017 602 1141 389 l 1006 637 l 1000 637 z "},"N":{"ha":2075,"x_min":231,"x_max":1843,"o":"m 1031 1614 l 1048 1614 q 1072 1511 1066 1614 q 1173 1275 1074 1451 q 1202 1204 1198 1204 q 1414 1278 1257 1234 q 1577 1386 1457 1291 l 1593 1386 q 1615 1370 1608 1386 l 1615 1356 q 1550 1267 1615 1346 q 1460 1034 1505 1202 q 1436 971 1436 987 q 1647 871 1491 952 q 1829 836 1740 836 q 1843 819 1843 822 l 1843 798 q 1737 773 1843 778 q 1506 675 1664 764 q 1433 646 1487 665 l 1433 643 q 1512 418 1467 568 q 1615 271 1546 347 l 1615 247 q 1598 231 1615 243 l 1585 231 q 1506 288 1571 231 q 1319 369 1439 336 q 1200 412 1275 378 q 1105 214 1179 348 q 1064 16 1064 113 q 1037 0 1050 2 q 1004 81 1004 0 q 899 347 1004 161 q 874 412 885 380 q 652 336 817 385 q 497 231 591 310 l 481 231 q 459 252 459 231 l 459 260 q 516 339 459 274 q 592 510 562 402 q 641 646 592 530 q 432 746 616 646 q 245 784 382 768 q 231 803 231 788 l 231 814 q 288 838 231 838 q 549 933 387 838 q 641 974 582 949 q 568 1185 612 1028 q 459 1348 550 1236 l 459 1364 q 481 1386 459 1386 l 489 1386 q 578 1321 502 1386 q 812 1232 648 1275 q 874 1207 862 1207 q 977 1421 892 1263 q 1013 1606 1002 1487 q 1031 1614 1023 1614 m 1034 1419 q 934 1210 1034 1406 q 926 1175 926 1181 q 1034 1077 975 1152 l 1040 1077 q 1126 1161 1076 1129 q 1148 1180 1148 1171 q 1048 1392 1148 1202 q 1040 1419 1040 1413 l 1034 1419 m 606 1237 q 673 1036 622 1200 q 847 830 751 867 q 877 838 862 838 l 877 844 q 852 871 852 852 l 852 879 q 880 903 852 899 l 896 901 l 901 901 l 901 903 q 890 928 890 918 l 890 936 q 912 958 890 958 l 923 958 q 950 947 928 958 l 947 952 l 947 974 q 969 996 947 996 l 977 996 q 1010 968 993 996 q 1015 998 1010 975 q 787 1180 974 1103 q 606 1240 665 1215 l 606 1237 m 1069 1015 q 1078 982 1078 988 q 1102 996 1092 996 l 1110 996 q 1135 968 1131 996 q 1132 947 1135 966 q 1156 958 1148 958 l 1167 958 q 1189 941 1182 958 l 1189 925 q 1178 901 1189 917 l 1186 901 l 1202 903 q 1227 884 1221 899 l 1227 865 l 1216 849 q 1249 841 1240 841 q 1409 1058 1335 884 q 1468 1240 1444 1180 l 1466 1240 q 1251 1166 1426 1223 q 1086 1050 1146 1117 q 1069 1015 1069 1022 m 427 811 l 427 806 q 619 713 443 806 q 671 697 660 697 q 766 806 688 737 l 768 806 l 768 811 q 687 895 718 845 q 665 920 674 920 q 446 817 644 920 l 427 811 m 1400 920 q 1305 808 1400 896 l 1305 806 q 1400 697 1377 753 l 1403 697 q 1620 798 1432 697 q 1647 806 1642 806 l 1647 811 q 1455 903 1589 832 q 1403 920 1415 920 l 1400 920 m 966 806 q 1040 735 966 751 l 1045 735 q 1113 803 1113 754 l 1113 811 q 1037 882 1113 869 q 966 806 979 882 m 1202 779 q 1227 746 1227 760 l 1227 732 q 1200 713 1214 713 q 1178 716 1185 716 q 1189 692 1189 700 l 1189 675 q 1173 659 1189 671 l 1156 659 q 1135 670 1147 659 l 1132 670 l 1135 646 q 1116 621 1135 631 l 1102 621 q 1075 646 1084 621 l 1069 646 q 1061 613 1069 633 q 1267 445 1099 519 q 1468 377 1421 396 l 1468 380 q 1400 581 1455 406 q 1232 784 1322 749 l 1230 784 q 1202 779 1213 779 m 608 377 q 814 448 650 395 q 980 559 905 486 q 1004 602 1004 593 q 996 629 1004 606 l 983 621 l 969 621 q 947 643 947 621 l 947 659 l 950 673 l 928 659 l 912 659 q 890 684 890 659 l 890 689 q 901 713 890 699 l 901 716 l 899 716 l 882 713 q 852 738 852 716 l 852 746 q 863 768 852 755 l 825 776 q 663 553 749 749 q 606 377 635 454 l 608 377 m 923 442 q 1029 217 923 422 l 1034 198 l 1040 198 q 1132 391 1040 214 q 1148 442 1148 431 l 1148 445 q 1040 540 1095 466 l 1037 540 q 923 442 972 465 z "},"O":{"ha":2108,"x_min":189,"x_max":1919,"o":"m 1005 1614 l 1013 1614 q 1133 1430 1064 1599 q 1149 1348 1149 1373 l 1149 1345 l 1152 1345 q 1306 1378 1225 1378 l 1339 1378 q 1567 1335 1455 1378 q 1610 1161 1582 1335 q 1615 1088 1615 1117 q 1586 928 1615 1007 l 1591 928 q 1914 836 1758 928 q 1919 819 1919 827 l 1919 814 q 1737 694 1912 767 q 1634 675 1674 675 l 1580 675 l 1580 673 q 1610 526 1610 603 l 1610 494 q 1569 269 1610 391 q 1374 220 1569 249 q 1322 217 1359 220 q 1141 255 1223 217 q 1059 11 1141 185 q 1035 0 1050 4 q 907 195 987 0 q 894 247 899 247 q 755 222 829 222 l 728 222 q 500 266 613 222 q 463 399 487 266 q 452 513 452 467 q 471 643 452 582 q 199 760 351 643 q 189 781 189 771 l 189 787 q 275 844 189 814 q 500 895 395 895 l 500 898 q 457 1074 457 977 l 457 1107 q 498 1335 457 1211 q 661 1378 528 1356 q 747 1383 732 1383 q 902 1356 825 1383 q 991 1611 929 1514 l 1005 1614 m 959 1326 q 1038 1248 990 1308 q 1095 1313 1053 1273 l 1095 1332 q 1019 1533 1095 1407 l 1016 1533 q 967 1402 987 1481 q 959 1326 959 1366 m 511 1096 q 815 803 511 803 q 940 814 895 803 l 954 860 q 853 933 895 933 l 845 933 q 821 928 838 933 q 829 903 821 921 q 802 876 821 876 l 788 876 q 758 914 762 876 l 758 925 q 850 990 758 981 q 986 911 919 990 q 1002 895 996 895 q 1029 928 1029 895 q 1035 1020 1035 1002 q 875 1308 1035 1240 q 755 1326 811 1326 l 734 1326 q 544 1294 646 1326 q 511 1096 511 1183 m 1067 1180 q 1089 1044 1089 1105 l 1089 1001 q 1081 895 1089 951 q 1116 873 1101 886 q 1176 960 1171 922 l 1176 971 q 1165 998 1173 998 q 1143 990 1164 990 q 1119 1015 1119 994 l 1119 1028 q 1152 1058 1119 1050 l 1173 1058 q 1233 960 1233 1043 q 1179 852 1233 917 l 1184 852 q 1249 854 1216 852 q 1417 830 1316 854 q 1558 1085 1558 898 q 1526 1291 1558 1187 q 1322 1324 1417 1324 q 1067 1180 1131 1324 m 1480 798 q 1545 741 1491 790 q 1618 730 1580 730 q 1838 811 1724 730 l 1838 814 q 1613 871 1706 871 l 1572 871 q 1520 830 1551 871 l 1480 798 m 997 803 l 997 792 q 1035 754 1008 754 l 1048 754 q 1089 803 1080 754 q 1038 846 1089 838 q 997 803 997 836 m 270 781 l 270 776 q 492 700 383 700 q 587 800 536 775 l 587 803 l 544 838 l 492 838 q 270 781 399 838 m 1119 732 q 1219 656 1172 656 l 1227 656 q 1252 665 1247 656 q 1246 681 1246 673 l 1246 697 q 1271 713 1256 713 l 1282 713 q 1314 673 1310 713 l 1314 667 q 1225 600 1314 610 l 1219 600 q 1081 684 1153 600 q 1073 700 1073 696 l 1040 697 q 1032 578 1032 616 q 1195 293 1032 356 q 1312 274 1252 274 l 1325 274 q 1523 309 1432 274 q 1556 507 1556 420 q 1249 798 1556 798 q 1143 787 1143 798 q 1119 732 1143 761 m 509 515 l 509 510 q 541 309 509 410 q 745 277 650 277 q 1000 420 933 277 q 978 559 978 489 l 978 564 q 932 540 960 540 q 864 627 872 540 l 864 643 q 921 754 864 688 q 818 746 881 749 q 652 770 747 746 q 538 665 578 742 q 509 515 509 600 m 970 722 q 918 632 918 666 q 926 602 918 617 q 943 608 935 608 l 954 608 q 972 594 972 608 l 978 594 l 978 605 q 986 713 978 643 q 970 722 976 722 m 1027 353 q 954 277 1010 317 l 951 277 q 1029 81 951 196 q 1089 288 1085 211 q 1029 353 1059 314 l 1027 353 z "},"P":{"ha":2007,"x_min":194,"x_max":1813,"o":"m 913 1619 q 1005 1581 966 1619 q 1095 1619 1042 1619 q 1238 1544 1161 1619 q 1276 1473 1276 1489 l 1279 1473 q 1371 1495 1345 1495 q 1534 1421 1477 1495 q 1548 1378 1548 1390 l 1548 1354 l 1564 1354 q 1675 1259 1638 1354 q 1689 1177 1689 1207 q 1667 1082 1689 1144 q 1781 993 1748 1053 q 1813 901 1813 939 q 1775 808 1813 846 q 1813 716 1813 778 q 1735 572 1813 650 q 1667 537 1682 537 q 1689 439 1689 475 q 1605 274 1689 324 q 1572 266 1580 266 l 1548 266 l 1548 241 q 1493 157 1548 199 q 1369 125 1432 125 q 1276 146 1341 125 l 1276 144 q 1179 27 1248 65 q 1097 0 1128 0 q 1002 38 1040 0 q 910 0 972 0 q 774 71 851 0 q 731 146 747 103 q 636 125 669 125 q 490 179 547 125 q 460 244 460 219 l 460 266 l 444 266 q 332 366 367 266 q 319 442 321 405 q 340 534 319 468 l 340 537 q 227 627 268 561 q 194 719 197 678 q 232 811 194 769 q 197 890 197 841 l 197 909 q 292 1061 197 981 q 340 1085 299 1061 q 319 1177 319 1152 q 373 1324 319 1260 q 438 1354 413 1354 l 460 1354 l 460 1367 q 636 1495 460 1476 q 731 1473 673 1492 q 829 1592 758 1549 q 913 1619 881 1617 m 783 1446 q 970 1218 907 1382 q 1002 1109 1002 1122 l 1005 1109 q 1078 1305 1005 1141 q 1227 1446 1141 1403 q 1135 1552 1204 1517 q 1092 1563 1105 1563 q 1051 1546 1067 1563 l 1051 1544 q 1059 1525 1059 1533 l 1059 1508 q 1035 1492 1050 1492 l 972 1492 q 948 1516 948 1495 l 948 1525 q 959 1546 948 1534 q 910 1563 941 1563 q 807 1497 847 1548 q 783 1446 783 1457 m 514 1362 q 549 1337 549 1362 l 549 1329 q 506 1275 549 1316 q 484 1264 506 1268 l 479 1264 q 452 1299 456 1264 l 449 1299 q 376 1180 376 1276 l 376 1175 q 463 996 376 1111 q 674 876 539 917 q 834 846 775 846 q 897 979 834 902 q 964 1015 946 1015 q 883 1270 964 1094 q 674 1432 831 1373 q 636 1438 652 1438 q 514 1362 534 1438 m 1043 1017 q 1135 958 1080 1017 q 1179 844 1179 895 l 1181 844 q 1474 936 1365 872 q 1572 1031 1535 975 q 1632 1172 1632 1122 l 1632 1185 q 1564 1299 1632 1271 l 1561 1299 q 1553 1297 1556 1297 l 1553 1286 q 1531 1264 1553 1264 l 1523 1264 q 1461 1321 1505 1264 q 1458 1335 1458 1326 q 1493 1362 1458 1358 l 1493 1367 q 1369 1438 1472 1438 q 1184 1345 1301 1438 q 1043 1017 1095 1272 m 251 898 q 270 854 251 871 q 289 865 275 865 l 297 865 q 321 841 321 862 l 321 779 q 305 754 321 764 l 289 754 q 270 762 280 754 l 267 762 q 251 716 251 749 q 313 613 251 679 l 368 586 q 614 781 431 717 q 704 808 650 795 l 704 811 q 500 890 595 837 q 370 1031 414 943 l 368 1031 q 273 960 317 1019 q 251 898 251 916 m 1640 1031 q 1404 841 1581 907 q 1303 811 1316 811 l 1303 808 q 1518 724 1374 797 q 1640 589 1610 654 l 1643 589 q 1740 667 1706 608 q 1756 716 1756 704 l 1756 719 q 1740 762 1756 753 l 1737 762 q 1716 751 1729 755 q 1686 781 1686 758 q 1689 808 1689 805 q 1686 838 1686 832 q 1710 865 1690 865 l 1718 865 q 1740 854 1728 865 q 1756 901 1756 871 l 1756 903 q 1686 1012 1756 950 q 1640 1031 1660 1027 m 888 814 q 978 673 888 716 q 1000 667 988 667 l 1008 667 q 1124 800 1098 667 l 1124 827 q 1032 963 1124 920 q 1008 966 1017 966 l 1005 966 q 891 846 924 966 q 888 814 888 832 m 376 445 q 444 320 376 347 l 449 320 q 460 347 452 320 q 479 355 470 355 q 536 312 502 355 q 549 290 549 305 l 549 282 q 519 258 549 260 q 517 260 519 260 q 514 252 517 258 q 587 190 540 190 q 625 182 602 182 l 642 182 q 850 298 722 182 q 967 616 930 403 q 875 684 902 637 q 837 776 849 708 q 541 686 645 748 q 384 486 445 639 q 376 445 376 461 m 1176 776 q 1105 646 1176 713 q 1040 616 1069 618 q 1165 290 1064 434 q 1366 182 1293 182 l 1379 182 q 1491 239 1455 182 l 1493 252 l 1493 255 l 1491 260 q 1488 258 1488 260 q 1458 288 1458 258 q 1520 355 1458 312 l 1529 355 q 1556 320 1556 355 l 1561 320 q 1632 434 1632 344 l 1632 448 q 1518 654 1632 525 q 1176 776 1358 757 m 1002 510 q 929 315 994 447 q 783 171 890 239 l 783 168 q 886 62 810 96 q 910 57 903 57 l 913 57 q 959 76 949 57 q 948 95 948 81 l 948 103 q 981 127 948 127 l 1029 127 q 1059 111 1050 127 l 1059 87 l 1051 76 l 1051 73 q 1089 57 1051 63 l 1097 57 q 1211 136 1149 57 l 1227 174 q 1032 420 1099 233 q 1005 510 1010 484 l 1002 510 z "},"Q":{"ha":2020,"x_min":203,"x_max":1817,"o":"m 1011 1614 q 1190 1462 1052 1613 q 1247 1378 1214 1430 q 1413 1400 1333 1400 l 1434 1400 q 1584 1375 1584 1393 q 1603 1232 1595 1375 l 1603 1210 q 1581 1044 1603 1131 q 1787 863 1664 1004 q 1817 811 1817 822 l 1817 806 q 1611 589 1777 709 l 1581 570 q 1603 404 1603 483 l 1603 382 q 1581 236 1596 236 q 1442 214 1581 222 l 1410 214 q 1247 236 1331 214 q 1065 33 1200 144 q 1014 0 1027 0 l 1011 0 q 873 103 980 0 q 772 236 808 174 q 610 214 688 214 l 583 214 q 436 239 436 220 q 417 382 417 298 l 417 404 q 439 570 417 484 q 279 697 384 595 q 203 808 203 784 q 314 952 203 838 q 436 1044 366 999 q 417 1210 417 1149 l 417 1232 q 441 1383 425 1383 q 585 1400 509 1400 l 607 1400 q 775 1381 664 1400 l 775 1383 q 876 1514 810 1442 q 1011 1614 980 1614 m 832 1367 l 832 1362 q 1011 1286 918 1339 q 1187 1364 1076 1326 q 1063 1511 1160 1419 l 1011 1552 l 1008 1552 q 832 1367 876 1450 m 471 1221 q 569 854 471 1044 l 572 854 q 800 966 707 966 q 859 958 831 963 q 851 1017 854 987 q 962 1245 851 1109 l 962 1248 q 591 1345 772 1345 q 482 1329 482 1341 q 471 1221 471 1281 m 908 1017 q 924 939 908 981 q 960 955 937 955 q 1011 968 960 961 q 1071 952 1057 962 q 1101 936 1089 952 q 1128 911 1117 936 q 1152 879 1142 911 q 1166 844 1159 879 q 1171 838 1171 843 l 1171 825 q 1168 814 1171 819 q 1171 803 1171 809 l 1171 795 q 1155 735 1167 758 q 1149 722 1155 728 l 1149 719 q 1215 705 1190 705 l 1220 705 q 1426 819 1301 705 q 1548 1226 1548 1013 q 1535 1335 1543 1335 q 1423 1345 1466 1345 q 1044 1240 1237 1345 q 908 1028 947 1170 l 908 1017 m 265 808 l 265 806 q 455 629 357 681 l 455 632 q 531 808 480 718 q 455 985 480 892 l 450 985 q 265 808 367 941 m 1565 982 q 1486 806 1535 883 q 1567 629 1520 762 q 1754 811 1693 710 q 1597 966 1670 916 q 1565 982 1577 982 m 471 388 q 493 277 471 277 q 593 269 563 269 q 965 369 777 269 q 1106 567 1059 426 q 1112 597 1112 578 l 1112 602 q 1098 667 1112 627 q 1063 651 1088 667 q 1027 643 1044 651 q 1014 648 1014 646 l 998 643 q 932 667 951 651 q 908 686 918 667 q 884 713 890 686 q 865 746 869 713 q 851 792 859 746 q 854 822 851 804 q 851 830 851 827 l 867 879 q 876 882 873 882 l 876 890 q 805 909 846 909 l 802 909 q 593 795 715 909 q 477 472 515 698 q 471 388 471 431 m 968 808 q 1008 762 977 762 l 1011 762 q 1055 808 1048 762 q 1008 849 1055 839 q 968 808 982 849 m 1217 648 q 1160 656 1188 651 l 1168 600 q 1057 369 1168 507 l 1057 366 q 1432 269 1246 269 q 1540 290 1540 269 q 1548 393 1548 357 q 1451 760 1548 568 l 1448 760 q 1217 648 1310 648 m 832 252 l 832 247 q 1014 62 922 114 q 1168 220 1118 146 q 1185 252 1185 239 q 1008 328 1074 288 l 1006 328 q 835 252 954 292 l 832 252 z "},"R":{"ha":1890,"x_min":229,"x_max":1661,"o":"m 928 1617 l 953 1617 q 1121 1413 1063 1617 q 1137 1280 1137 1346 l 1137 1237 q 1124 1123 1137 1183 l 1126 1123 q 1506 1291 1316 1291 q 1655 1204 1619 1291 q 1661 1164 1661 1179 q 1447 882 1661 1025 q 1273 808 1331 815 l 1273 803 q 1585 570 1470 736 q 1636 423 1636 491 q 1550 307 1636 340 q 1487 298 1516 298 q 1129 472 1322 298 l 1129 469 q 1137 382 1137 422 l 1137 339 q 1029 33 1137 144 q 945 0 987 0 q 758 260 808 0 q 752 334 752 303 l 752 374 q 760 475 752 417 q 397 298 574 298 q 253 412 273 298 l 253 426 q 503 754 253 584 q 616 803 600 803 l 616 808 q 326 971 491 828 q 229 1166 229 1075 q 321 1283 229 1249 q 391 1291 355 1291 q 763 1123 570 1291 l 766 1123 q 752 1245 752 1181 l 752 1286 q 844 1571 752 1452 q 928 1617 894 1617 m 806 1256 q 850 1044 806 1149 q 945 1063 911 1063 q 1040 1044 978 1063 q 1083 1264 1083 1145 q 994 1541 1083 1444 q 939 1563 970 1563 q 825 1413 880 1563 q 806 1256 806 1335 m 286 1172 l 286 1158 q 473 928 286 1061 q 711 849 615 849 q 777 993 711 910 q 787 1004 781 993 q 459 1229 700 1151 l 389 1237 q 291 1194 318 1237 q 286 1172 286 1183 m 1102 1001 q 1175 865 1148 972 l 1178 849 q 1493 985 1318 849 q 1604 1158 1604 1088 l 1604 1175 q 1514 1234 1588 1234 l 1501 1237 q 1154 1072 1341 1237 q 1102 1001 1102 1011 m 768 838 l 768 817 q 877 662 768 720 q 939 648 910 648 l 950 648 q 1118 787 1067 648 q 1121 817 1121 805 l 1121 838 q 1004 996 1121 940 q 950 1006 977 1006 l 939 1006 q 771 868 822 1006 q 768 838 768 850 m 310 431 l 310 418 q 386 355 321 355 l 418 355 q 706 499 530 355 q 804 640 800 602 q 720 765 750 672 l 720 768 q 440 637 604 768 q 310 431 310 515 m 1170 768 q 1091 646 1145 681 q 1086 635 1086 639 q 1387 374 1171 459 q 1471 355 1437 355 l 1482 355 q 1485 353 1485 355 l 1490 355 l 1501 355 q 1579 418 1569 355 l 1579 431 q 1422 659 1579 525 q 1170 768 1272 768 m 869 605 q 806 358 806 503 q 899 76 806 169 q 937 57 924 57 l 953 57 q 1056 179 1003 57 q 1083 363 1083 266 q 1018 605 1083 509 q 945 591 991 595 q 869 605 903 594 z "},"S":{"ha":2013,"x_min":198,"x_max":1815,"o":"m 1248 1617 l 1256 1617 q 1408 1506 1366 1617 q 1413 1454 1413 1468 q 1261 1099 1413 1328 l 1261 1096 q 1402 1120 1331 1120 l 1408 1120 q 1614 1066 1596 1105 q 1617 1053 1617 1061 q 1506 871 1603 985 q 1424 803 1435 803 l 1424 798 q 1815 567 1815 736 l 1815 559 q 1704 407 1815 451 q 1652 401 1666 401 q 1297 553 1526 401 l 1294 553 q 1326 391 1326 477 q 1259 179 1310 179 q 998 388 1088 245 l 996 388 q 768 0 931 0 l 757 0 q 613 92 660 0 q 600 160 600 125 q 732 494 600 279 q 616 472 671 472 l 583 472 q 385 537 385 490 q 572 789 427 671 q 613 811 610 811 l 613 814 q 198 1050 198 878 l 198 1053 q 312 1210 198 1173 q 358 1215 347 1215 q 692 1080 482 1215 l 694 1080 q 675 1202 681 1119 q 727 1405 694 1384 q 741 1411 727 1410 l 746 1411 q 979 1245 848 1385 q 1012 1199 1009 1199 q 1248 1617 1074 1617 m 1047 928 l 1061 925 q 1356 1454 1356 1293 l 1356 1465 q 1253 1563 1356 1546 q 1050 1031 1098 1563 q 1047 928 1047 1027 m 757 1343 q 732 1196 732 1267 q 822 990 743 1028 q 922 914 916 914 q 987 936 941 926 q 998 1090 987 946 q 757 1345 939 1258 l 757 1343 m 252 1053 q 581 876 252 938 q 865 846 779 846 l 879 873 q 361 1158 516 1158 l 350 1158 q 263 1096 288 1158 q 252 1053 258 1090 m 1109 887 q 1145 827 1122 882 q 1326 811 1273 819 q 1552 1039 1468 875 q 1405 1066 1468 1066 q 1172 977 1276 1066 q 1109 892 1170 970 l 1109 887 m 911 779 q 1004 697 932 697 q 1093 789 1074 697 q 1004 879 1076 879 l 998 879 q 911 806 937 879 l 911 779 m 453 551 q 602 526 536 526 q 806 597 713 526 q 884 697 855 665 q 852 792 859 735 q 732 800 811 792 q 524 665 612 768 q 453 551 453 572 m 1147 770 q 1142 738 1142 749 q 1652 458 1497 458 l 1663 458 q 1761 564 1743 458 q 1427 741 1761 681 q 1147 770 1314 762 m 1023 643 q 1009 491 1017 534 q 1218 258 1060 353 q 1245 250 1236 250 q 1270 374 1270 317 l 1270 410 q 1112 689 1270 569 q 1023 643 1071 652 m 925 659 q 656 163 656 316 l 656 152 q 762 54 656 71 q 936 369 874 54 q 966 635 966 545 l 968 646 l 925 659 z "},"T":{"ha":2014,"x_min":200,"x_max":1814,"o":"m 1011 1614 q 1060 1519 1037 1614 q 1152 1166 1122 1352 l 1155 1166 q 1434 1251 1266 1251 q 1467 1218 1467 1251 q 1388 955 1467 1093 l 1388 949 q 1803 833 1593 911 q 1814 811 1814 821 l 1814 806 q 1719 754 1814 778 q 1369 662 1434 662 l 1369 659 q 1461 388 1461 541 l 1461 361 q 1429 334 1461 338 q 1160 415 1310 334 q 1149 423 1160 419 q 1038 27 1114 241 q 1008 0 1027 0 l 1003 0 q 954 92 977 0 q 865 426 865 366 l 862 426 q 585 339 748 339 l 574 339 q 547 366 547 342 l 547 372 q 642 662 547 517 q 224 776 572 662 q 200 803 200 787 l 200 811 q 292 860 200 838 q 626 949 564 949 l 626 955 q 550 1221 550 1067 q 583 1256 554 1256 q 848 1177 699 1256 q 859 1169 848 1173 q 946 1506 895 1348 q 998 1614 981 1614 l 1011 1614 m 903 1025 l 903 1015 q 916 949 903 949 q 965 922 964 930 q 1003 928 985 928 l 1006 928 q 1049 925 1021 928 q 1106 958 1106 953 q 1112 1020 1112 994 q 1008 1503 1112 1189 q 954 1340 1002 1503 q 903 1025 903 1140 m 607 1199 l 607 1194 q 694 960 607 1072 q 794 968 732 966 q 846 966 814 966 q 848 963 846 963 q 851 966 848 966 q 848 974 848 971 q 846 1020 848 999 l 851 1104 q 607 1199 742 1184 m 1163 1101 q 1166 1034 1166 1057 l 1166 996 l 1163 963 q 1171 966 1168 966 q 1223 968 1197 966 q 1323 960 1276 966 q 1402 1142 1380 1036 q 1410 1194 1407 1170 l 1402 1194 q 1163 1101 1278 1194 m 311 806 q 797 703 624 703 q 886 713 830 703 q 867 787 871 751 q 908 890 867 838 l 908 892 q 800 911 859 911 l 789 911 q 311 808 617 911 l 311 806 m 1106 890 q 1149 789 1149 848 q 1131 713 1149 759 l 1133 713 q 1220 703 1175 703 q 1703 806 1387 703 l 1703 808 q 1217 911 1396 911 q 1106 890 1124 909 m 924 795 l 924 789 q 989 705 924 731 q 1008 703 998 705 q 1093 781 1093 720 l 1093 789 q 1006 873 1093 861 q 924 795 924 855 m 903 597 q 1006 111 903 418 l 1008 111 q 1112 597 1112 425 q 1095 667 1112 667 l 1082 670 q 1008 648 1055 648 q 930 670 970 648 q 903 621 903 670 l 903 597 m 707 651 q 640 543 666 602 q 604 396 607 451 l 612 396 q 854 494 742 396 q 846 591 848 536 q 848 648 848 617 q 851 651 851 648 l 819 648 l 789 648 q 707 651 762 648 m 1163 651 l 1166 618 l 1166 583 q 1163 486 1163 523 q 1383 393 1235 423 q 1407 391 1397 393 q 1299 651 1407 534 q 1239 648 1258 648 l 1196 648 l 1163 651 z "},"U":{"ha":2007,"x_min":196,"x_max":1810,"o":"m 1007 1614 q 1053 1527 1032 1614 q 1080 1446 1057 1527 q 1254 1522 1157 1495 q 1354 1370 1305 1505 q 1371 1302 1365 1339 l 1373 1302 q 1555 1386 1533 1386 l 1558 1386 q 1579 1364 1579 1386 l 1579 1351 q 1490 1164 1579 1338 l 1493 1164 q 1655 1099 1591 1141 q 1661 1082 1661 1090 l 1661 1077 q 1607 895 1661 1003 l 1609 895 q 1802 830 1738 857 q 1810 811 1810 820 l 1810 806 q 1715 754 1810 778 q 1596 716 1678 739 l 1639 624 q 1661 559 1661 573 l 1661 540 q 1495 445 1619 486 l 1579 269 l 1579 244 q 1566 231 1579 241 l 1544 231 q 1368 315 1510 242 l 1365 315 q 1284 149 1324 149 q 1091 206 1210 149 q 1013 0 1033 0 l 999 0 q 953 84 973 0 q 915 187 919 184 q 730 98 802 111 l 717 98 q 622 244 683 98 q 608 301 608 285 q 459 231 471 231 l 446 231 q 424 252 424 231 l 424 255 q 516 453 424 277 l 513 453 q 315 521 455 453 q 307 543 307 534 q 361 730 307 615 q 196 798 196 779 l 196 811 q 280 857 196 837 q 375 890 280 860 q 307 1047 315 996 l 307 1055 q 478 1161 307 1097 q 513 1169 513 1166 q 424 1359 424 1337 l 424 1362 q 448 1386 427 1386 l 451 1386 q 627 1305 481 1381 q 717 1492 672 1492 q 915 1424 827 1480 l 918 1424 q 991 1614 975 1614 l 1007 1614 m 899 1025 l 899 1015 q 923 903 899 935 q 999 928 959 928 l 1010 928 q 1088 906 1040 928 q 1107 1023 1107 962 q 1004 1503 1107 1189 q 947 1332 999 1503 q 899 1025 899 1135 m 1099 1386 q 1151 1166 1124 1303 q 1316 1272 1315 1272 l 1316 1275 q 1246 1459 1316 1351 q 1099 1386 1181 1447 m 679 1275 q 852 1166 774 1223 l 855 1166 q 899 1367 871 1252 l 896 1367 q 733 1432 798 1432 q 679 1275 690 1360 m 1159 1101 q 1162 1034 1162 1057 l 1162 996 l 1159 963 q 1167 966 1164 966 q 1219 968 1193 966 l 1295 963 q 1495 1299 1417 1133 l 1493 1299 q 1159 1101 1324 1219 m 513 1294 q 706 968 588 1137 q 711 963 711 968 l 790 968 q 842 966 810 966 q 844 963 842 963 q 847 966 844 966 q 844 974 844 971 q 842 1023 844 997 l 847 1099 q 519 1297 687 1215 q 513 1294 513 1297 m 367 1042 q 435 906 394 961 q 644 955 511 930 l 644 958 l 541 1115 q 367 1042 468 1115 m 1460 1112 q 1360 955 1413 1033 q 1550 914 1436 941 q 1604 1063 1598 991 q 1460 1112 1499 1112 m 307 806 q 793 703 620 703 q 861 716 861 703 l 871 743 q 863 787 866 766 q 880 857 866 819 q 852 906 859 906 q 795 911 838 911 l 785 911 q 307 808 613 911 l 307 806 m 1126 860 q 1145 789 1145 821 q 1137 738 1145 777 q 1173 705 1137 705 q 1216 703 1200 703 q 1699 806 1383 703 l 1699 808 q 1213 911 1392 911 q 1143 895 1143 911 q 1126 860 1143 890 m 920 795 l 920 789 q 985 705 920 731 q 1004 703 994 705 q 1088 781 1088 720 l 1088 789 q 1002 873 1088 861 q 920 795 920 855 m 418 711 q 367 559 367 621 q 535 507 477 507 l 546 507 l 644 662 l 641 662 q 418 711 565 673 m 1362 662 l 1362 656 q 1466 496 1407 593 q 1601 562 1509 496 l 1601 564 q 1536 697 1580 631 l 1533 697 q 1362 662 1450 675 m 909 684 q 899 600 899 651 l 899 597 q 1002 111 899 418 l 1004 111 q 1107 597 1107 425 q 1097 681 1107 637 q 1004 648 1055 648 q 909 684 951 648 m 709 651 q 511 315 587 481 q 847 515 677 393 l 842 591 q 844 648 844 617 q 847 651 847 648 l 814 648 l 777 648 q 709 651 753 648 m 1159 651 l 1162 618 l 1162 575 q 1159 515 1162 556 q 1487 317 1297 413 q 1493 320 1493 317 q 1303 643 1420 473 q 1295 651 1299 643 q 1235 648 1254 648 l 1192 648 l 1159 651 m 660 326 q 733 157 660 262 q 899 250 836 190 l 899 252 q 855 450 869 371 q 660 328 774 393 l 660 326 m 1148 448 q 1110 266 1148 422 q 1267 206 1171 222 q 1316 345 1301 271 q 1154 448 1221 399 l 1148 448 z "},"V":{"ha":2013,"x_min":195,"x_max":1817,"o":"m 1251 1614 l 1270 1614 q 1340 1516 1308 1581 q 1392 1332 1392 1413 q 1381 1253 1389 1289 l 1383 1253 q 1473 1270 1430 1270 l 1487 1270 q 1752 1188 1604 1270 q 1761 1164 1761 1173 q 1695 958 1761 1090 q 1606 857 1677 919 l 1606 854 q 1736 738 1672 833 q 1817 551 1817 590 q 1644 437 1801 498 q 1527 418 1583 418 q 1484 420 1523 418 q 1495 339 1495 372 q 1413 71 1495 223 q 1389 60 1401 60 q 1172 130 1259 77 q 1077 220 1137 150 l 1074 220 q 952 79 1047 141 q 765 0 833 10 q 651 179 715 16 q 635 290 635 238 q 640 347 635 303 q 532 323 589 323 l 529 323 q 255 404 407 323 q 247 429 247 421 q 328 662 262 562 q 404 738 361 703 q 225 949 299 783 q 195 1044 195 1021 q 388 1164 195 1090 q 480 1175 441 1175 q 559 1166 509 1175 q 548 1237 548 1196 l 548 1259 q 629 1519 548 1366 l 648 1525 q 909 1427 770 1525 q 947 1389 909 1423 q 1074 1538 972 1470 q 1251 1614 1216 1614 m 993 1329 l 993 1308 q 1023 1310 1004 1308 q 1308 1223 1173 1310 q 1335 1335 1335 1270 q 1248 1554 1335 1435 l 1245 1554 q 993 1329 993 1461 m 665 1468 q 602 1242 602 1335 q 646 1128 602 1172 q 798 1253 724 1220 q 933 1299 895 1299 q 836 1408 909 1360 q 665 1468 728 1468 m 589 814 q 808 437 589 583 q 1012 380 914 380 l 1047 380 q 1367 543 1220 380 q 1465 817 1465 672 q 1245 1196 1465 1046 q 1031 1253 1135 1253 l 1025 1253 q 646 1031 788 1253 q 589 814 589 926 m 1367 1175 q 1495 968 1482 1048 q 1516 876 1508 934 q 1652 996 1598 906 q 1704 1150 1704 1109 q 1481 1215 1573 1215 q 1367 1175 1407 1215 m 255 1028 q 486 776 351 776 q 534 784 526 784 l 534 825 q 608 1077 534 957 l 608 1082 q 480 1120 539 1120 q 255 1031 374 1120 l 255 1028 m 1519 817 l 1519 811 q 1419 515 1519 656 q 1516 475 1454 475 l 1541 475 q 1755 562 1640 475 l 1755 564 q 1527 817 1663 817 l 1519 817 m 307 442 l 307 439 q 526 377 447 377 q 678 467 631 377 q 556 667 578 577 q 540 727 541 726 q 353 594 439 727 q 307 442 307 495 m 1370 464 q 1175 345 1274 371 q 1093 328 1112 328 q 1194 184 1118 238 q 1375 119 1291 125 q 1438 331 1438 246 l 1438 353 q 1370 464 1438 441 m 692 293 l 692 274 q 776 60 692 184 q 1034 290 1034 153 q 1031 323 1034 295 q 735 418 866 323 q 692 293 692 367 z "},"W":{"ha":2013,"x_min":198,"x_max":1815,"o":"m 987 1617 l 1012 1617 q 1234 1503 1177 1617 q 1259 1386 1259 1453 q 1077 882 1259 1198 l 1077 879 q 1587 1061 1398 1061 q 1807 895 1763 1061 q 1815 814 1815 847 l 1815 789 q 1638 545 1815 582 q 1595 543 1611 543 l 1576 543 q 1090 716 1403 543 l 1090 713 q 1259 225 1259 410 q 1131 22 1259 73 q 1012 0 1078 0 l 987 0 q 743 176 780 0 q 741 220 741 204 l 741 233 q 903 705 741 409 l 901 705 q 431 543 608 543 l 418 543 q 220 667 274 543 q 198 795 198 722 l 198 808 q 431 1061 198 1061 q 914 892 602 1061 q 741 1383 741 1203 l 741 1397 q 890 1603 741 1557 q 987 1617 934 1617 m 795 1383 q 971 906 795 1224 l 1009 909 q 1025 906 1011 909 q 1202 1373 1202 1218 l 1202 1400 q 1088 1552 1202 1516 q 1001 1563 1052 1560 q 795 1383 795 1563 m 252 803 q 429 597 252 597 q 903 770 590 597 q 898 800 900 795 q 903 830 901 825 q 442 1004 597 1004 l 420 1004 q 252 803 252 1004 m 1104 827 l 1107 800 q 1104 773 1104 777 q 1584 597 1422 597 q 1761 803 1761 597 q 1595 1004 1761 1004 l 1579 1004 q 1104 827 1409 1004 m 955 803 l 955 800 q 1006 749 964 749 q 1050 795 1050 766 l 1050 808 q 1004 852 1050 842 l 1001 852 q 955 803 963 852 m 966 700 q 795 231 795 393 q 1001 54 795 54 q 1196 171 1162 54 q 1202 212 1202 197 l 1202 239 q 1034 697 1202 399 l 1006 694 l 998 694 q 966 700 985 694 z "},"X":{"ha":2014,"x_min":199,"x_max":1815,"o":"m 988 1617 l 1013 1617 q 1235 1503 1178 1617 q 1259 1386 1259 1453 q 1238 1237 1259 1333 l 1240 1237 q 1311 1242 1276 1242 l 1338 1242 q 1441 1221 1441 1242 q 1466 1080 1466 1156 q 1457 1004 1466 1057 q 1783 841 1556 973 q 1815 803 1815 819 q 1764 754 1815 776 q 1433 589 1613 656 l 1433 586 q 1457 448 1457 517 l 1457 415 q 1428 309 1457 309 q 1311 290 1369 290 l 1254 290 q 1259 225 1259 273 q 1132 22 1259 73 q 1013 0 1078 0 l 988 0 q 744 176 781 0 q 741 220 741 204 l 741 233 q 747 309 741 262 q 625 290 693 290 l 592 290 q 489 317 489 290 q 467 450 467 393 q 511 616 467 536 q 207 779 366 678 l 199 800 q 250 849 199 827 q 551 1004 386 937 l 551 1006 q 527 1164 527 1078 q 557 1283 527 1283 q 692 1302 627 1302 q 749 1297 721 1302 q 741 1383 741 1344 l 741 1397 q 890 1603 741 1557 q 988 1617 935 1617 m 795 1383 q 975 903 795 1221 q 1013 909 995 909 l 1026 906 q 1202 1373 1202 1218 l 1202 1400 q 1088 1552 1202 1516 q 1002 1563 1053 1560 q 795 1383 795 1563 m 587 1234 q 584 1194 584 1207 l 584 1145 q 606 1023 584 1079 q 817 1061 718 1061 l 828 1061 l 828 1063 q 763 1237 795 1133 q 703 1245 730 1245 l 673 1245 q 587 1234 645 1245 m 1170 1058 q 1205 1061 1193 1061 q 1403 1025 1287 1061 q 1409 1074 1409 1039 l 1409 1088 q 1384 1185 1409 1185 q 1324 1188 1372 1185 q 1211 1161 1211 1188 q 1170 1058 1211 1152 m 280 800 q 804 597 625 597 q 855 613 855 597 q 923 735 890 684 q 904 795 904 768 l 904 808 q 926 873 904 836 l 858 998 q 814 1004 846 1004 l 798 1004 q 280 800 612 1004 m 1078 882 q 1110 800 1110 848 l 1110 798 q 1083 727 1110 760 q 1151 605 1146 610 q 1211 597 1163 600 q 1693 776 1376 597 q 1734 803 1731 798 q 1224 1004 1390 1004 l 1202 1004 q 1132 977 1132 1004 l 1078 882 m 958 798 q 1007 749 972 749 l 1010 749 q 1053 798 1053 764 l 1053 811 q 1013 852 1046 845 l 1002 852 q 958 798 958 842 m 966 700 q 795 231 795 393 q 1002 54 795 54 q 1197 171 1163 54 q 1202 212 1202 197 l 1202 239 q 1034 697 1202 399 l 1015 694 l 1004 694 q 966 700 996 694 m 565 591 q 524 456 524 532 l 524 453 q 543 347 529 347 q 611 345 601 345 q 768 393 768 353 q 823 543 789 469 l 795 543 q 565 591 717 543 m 1213 543 l 1178 543 l 1178 540 q 1246 350 1211 469 q 1297 345 1263 345 q 1400 363 1392 350 q 1403 431 1400 379 q 1379 570 1403 506 l 1376 570 q 1213 543 1286 543 z "},"Y":{"ha":2013,"x_min":198,"x_max":1815,"o":"m 1009 1617 q 1142 1470 1078 1590 q 1175 1386 1161 1435 q 1427 1432 1299 1432 l 1468 1432 q 1630 1402 1630 1432 q 1663 1199 1663 1293 l 1663 1158 q 1619 966 1663 1065 q 1788 854 1688 949 q 1815 808 1815 825 q 1723 738 1815 781 q 1584 670 1668 706 q 1641 391 1641 551 l 1641 369 q 1609 195 1641 195 q 1402 163 1498 163 l 1375 163 q 1166 209 1276 163 q 1012 0 1112 52 l 1009 0 q 952 62 980 0 q 868 236 905 138 l 865 236 q 589 184 749 184 q 404 214 404 184 q 372 423 372 332 l 372 445 q 426 670 372 572 q 366 697 425 675 q 203 792 256 749 q 198 808 198 801 q 347 947 216 873 q 437 979 383 963 q 393 1237 393 1088 l 393 1242 q 423 1421 393 1421 q 618 1454 534 1454 l 670 1454 q 876 1402 774 1454 q 982 1606 916 1502 q 1009 1617 992 1615 m 876 1139 q 914 974 876 1044 q 998 993 954 993 l 1012 993 q 1069 982 1036 993 q 1137 1259 1137 1135 q 1015 1546 1137 1428 q 876 1139 876 1323 m 456 1373 q 448 1242 448 1248 q 494 990 448 1097 q 553 993 534 993 l 559 993 q 854 925 692 993 q 865 939 863 939 q 822 1142 822 1029 q 854 1348 822 1227 q 646 1400 767 1400 q 456 1373 553 1400 m 1188 1329 q 1191 1256 1191 1279 l 1191 1253 q 1120 952 1191 1124 q 1156 922 1150 922 q 1454 993 1314 993 q 1563 982 1511 993 q 1609 1183 1609 1065 q 1581 1370 1609 1272 q 1443 1378 1492 1378 q 1188 1329 1302 1378 m 865 800 q 958 675 865 721 q 1001 667 991 667 q 1134 779 1096 667 l 1137 803 q 1028 936 1137 897 q 1001 939 1025 936 q 868 827 904 939 q 865 800 865 804 m 269 817 q 675 678 490 678 q 833 708 745 678 q 811 795 811 762 l 811 806 q 822 876 811 833 q 578 936 679 936 l 540 936 q 269 817 384 936 m 1180 868 q 1191 806 1191 843 l 1191 795 q 1172 713 1191 764 q 1337 678 1254 678 q 1744 817 1521 678 q 1478 936 1624 936 l 1435 936 q 1180 871 1326 936 l 1180 868 m 1134 667 l 1123 654 q 1191 363 1191 496 l 1191 358 q 1183 269 1191 302 q 1392 217 1272 217 q 1579 244 1468 217 q 1587 385 1587 342 q 1527 654 1587 547 q 1351 624 1432 624 l 1329 624 q 1134 667 1232 624 m 684 624 l 662 624 q 483 654 584 624 q 426 437 426 563 q 464 247 437 247 q 559 241 510 241 l 616 241 q 849 290 741 241 l 849 293 q 822 475 822 389 q 854 656 822 569 l 852 656 q 684 624 768 624 m 906 632 q 876 477 876 548 q 1015 71 876 292 q 1137 358 1137 191 q 1072 627 1137 482 q 1009 613 1040 613 l 998 613 q 906 635 956 613 l 906 632 z "},"Z":{"ha":1841,"x_min":112,"x_max":1729,"o":"m 912 1617 l 923 1617 q 994 1527 969 1617 q 1078 1600 1038 1600 l 1080 1600 q 1132 1554 1117 1600 q 1143 1530 1139 1530 q 1208 1563 1168 1563 q 1259 1484 1252 1563 l 1259 1473 q 1257 1446 1257 1449 q 1335 1487 1310 1487 l 1354 1487 q 1395 1430 1390 1487 l 1395 1421 q 1390 1378 1395 1409 q 1449 1394 1426 1394 l 1460 1394 q 1506 1345 1499 1394 l 1506 1343 q 1479 1261 1506 1312 q 1547 1272 1516 1272 q 1607 1223 1607 1267 l 1607 1218 q 1585 1164 1607 1198 l 1585 1161 l 1593 1161 q 1666 1115 1666 1155 l 1666 1101 q 1609 1023 1666 1065 l 1609 1020 q 1715 949 1715 1010 q 1655 879 1715 921 q 1729 808 1729 852 q 1639 735 1729 759 l 1639 730 q 1712 646 1712 693 q 1639 589 1712 606 q 1674 524 1674 553 q 1626 472 1674 489 l 1593 469 l 1574 469 l 1555 472 q 1598 382 1598 422 q 1541 334 1598 334 l 1533 334 q 1490 339 1521 334 l 1490 336 q 1506 274 1506 300 q 1457 222 1500 222 q 1373 247 1423 222 l 1373 244 q 1384 182 1384 205 q 1335 122 1377 122 q 1273 144 1304 122 q 1219 60 1273 60 q 1129 119 1181 60 q 1067 14 1121 14 l 1059 14 q 988 73 1031 14 q 920 0 965 0 q 844 92 869 0 l 842 92 q 760 16 805 16 q 701 90 713 16 q 635 54 664 54 q 581 138 581 54 l 581 171 q 500 130 528 130 q 443 190 443 130 q 451 239 446 214 q 389 222 408 222 l 383 222 q 334 266 334 229 l 334 279 q 359 355 334 311 l 356 355 q 291 345 319 345 q 234 391 234 351 l 234 404 q 253 453 235 425 l 253 456 l 250 456 q 172 510 172 456 q 229 597 172 550 l 229 600 l 226 600 q 125 659 125 608 l 125 667 q 185 738 125 703 l 185 741 q 112 806 112 762 l 112 814 q 201 884 112 857 l 201 887 q 128 966 128 922 l 128 971 q 199 1028 128 1014 q 166 1093 166 1063 q 250 1147 166 1147 l 280 1147 l 280 1150 q 242 1223 242 1198 l 242 1240 q 288 1283 242 1277 l 302 1286 q 351 1278 307 1286 l 351 1280 q 334 1337 334 1311 l 334 1354 q 380 1394 334 1387 l 391 1394 q 467 1370 417 1394 q 456 1435 456 1400 l 456 1438 q 503 1495 456 1495 l 508 1495 q 568 1473 536 1495 q 622 1557 568 1557 q 709 1500 656 1557 q 752 1598 719 1586 q 771 1603 752 1603 l 782 1603 q 847 1544 814 1603 q 869 1587 849 1544 q 912 1617 892 1617 m 918 1557 q 888 1457 890 1504 q 923 1324 915 1373 l 926 1324 l 956 1438 q 920 1557 956 1487 l 918 1557 m 774 1544 q 763 1451 763 1503 q 861 977 763 1277 q 893 982 880 982 l 907 982 l 912 985 q 836 1430 886 1312 q 777 1544 813 1505 l 774 1544 m 1075 1541 q 994 1364 1030 1491 q 953 1158 953 1206 l 964 1031 l 966 1031 q 1050 1199 1050 1187 q 1088 1454 1088 1350 l 1088 1473 q 1075 1541 1086 1541 m 1132 1310 l 1132 1308 l 1135 1308 q 1192 1392 1192 1381 q 1202 1473 1202 1439 l 1202 1497 q 1197 1503 1202 1503 q 1143 1413 1143 1461 q 1132 1310 1143 1394 m 625 1497 q 622 1478 625 1489 q 660 1386 622 1408 q 717 1313 662 1379 l 717 1316 q 676 1443 717 1411 q 627 1497 672 1461 l 625 1497 m 511 1438 l 511 1435 q 698 1077 522 1311 l 790 1001 l 793 1001 q 725 1196 753 1162 q 554 1411 669 1295 q 511 1438 522 1438 m 994 955 q 1026 928 997 955 q 1333 1386 1276 1207 q 1341 1430 1341 1418 l 1338 1430 q 1183 1280 1286 1411 q 994 960 1059 1103 l 994 955 m 389 1340 l 389 1337 q 456 1237 427 1237 q 557 1180 553 1180 q 497 1280 502 1280 q 389 1340 420 1337 m 1289 1172 l 1292 1172 q 1392 1232 1392 1229 q 1449 1340 1449 1311 q 1346 1270 1346 1301 l 1289 1172 m 299 1229 q 513 1025 328 1154 q 766 887 743 887 q 787 928 766 896 q 299 1229 456 1215 m 1110 936 l 1110 933 l 1270 982 q 1525 1177 1395 1048 q 1550 1215 1544 1204 l 1541 1215 q 1186 1031 1423 1206 q 1110 936 1183 1022 m 1422 1009 q 1528 1034 1528 1019 q 1609 1104 1564 1048 l 1579 1104 q 1503 1074 1516 1104 q 1422 1009 1425 1015 m 226 1090 l 226 1088 q 286 1034 243 1060 q 421 1020 327 1034 q 318 1085 351 1085 q 261 1090 284 1090 l 226 1090 m 188 968 l 188 966 q 364 882 208 933 q 568 841 429 863 q 698 852 672 852 q 508 944 547 944 q 288 977 380 977 l 248 977 q 188 968 222 977 m 1056 857 l 1056 817 l 1059 817 q 1555 895 1290 817 q 1655 952 1632 926 q 1566 966 1626 966 q 1056 857 1379 966 m 812 836 l 812 830 q 907 738 812 752 q 1002 836 986 738 q 926 925 1002 897 q 907 928 915 928 q 812 836 812 913 m 172 808 l 172 806 q 272 776 243 776 q 402 814 334 798 l 402 817 q 296 846 382 817 q 172 808 201 832 m 1436 806 l 1436 803 l 1550 773 q 1666 808 1603 773 q 1569 841 1666 823 q 1436 806 1484 814 m 185 667 q 275 651 185 656 q 774 760 464 651 q 760 800 760 785 q 332 738 591 800 q 185 667 203 693 m 1140 765 l 1140 762 q 1295 681 1145 762 q 1571 640 1460 640 l 1585 640 q 1653 651 1626 640 q 1503 727 1616 688 q 1270 776 1323 776 q 1140 765 1158 765 m 1031 751 q 1015 727 1031 747 l 1015 724 q 1395 439 1246 513 q 1541 388 1497 388 l 1541 391 q 1354 572 1509 460 q 1031 751 1141 709 m 823 703 q 505 225 538 375 q 500 187 500 205 l 503 187 q 611 282 528 194 q 861 689 768 481 q 823 703 827 703 m 926 684 q 991 220 926 490 q 1064 73 1036 89 q 1078 165 1075 103 q 958 692 1078 363 q 926 684 939 684 m 291 401 l 299 401 q 652 586 412 410 q 730 684 668 610 q 562 632 601 648 q 323 453 452 572 q 291 401 291 410 m 1045 618 l 1045 616 q 1097 450 1083 483 q 1267 222 1169 325 q 1327 179 1306 186 l 1327 187 q 1145 537 1316 306 l 1045 618 m 231 513 l 256 513 q 337 543 318 513 q 418 608 347 553 q 304 581 304 597 q 231 513 246 545 m 1419 597 q 1522 532 1489 532 q 1590 526 1563 526 l 1609 526 q 1615 532 1615 526 q 1541 583 1569 583 q 1419 597 1538 583 m 871 586 q 795 442 858 554 q 749 157 749 266 q 760 79 752 109 l 763 79 q 842 236 795 103 q 888 458 888 418 q 877 586 877 557 l 871 586 m 389 279 l 394 279 q 494 350 494 317 l 549 445 l 546 445 q 446 385 446 389 q 389 279 389 302 m 1284 437 q 1362 323 1341 323 q 1449 279 1424 279 l 1449 282 q 1373 385 1411 385 l 1286 437 l 1284 437 m 635 138 q 638 114 638 123 l 641 114 q 695 190 695 159 q 709 312 698 233 q 646 222 646 239 q 635 138 635 153 m 1121 307 l 1121 304 q 1145 198 1131 198 q 1213 119 1164 159 l 1216 125 l 1216 144 q 1192 220 1216 205 q 1121 307 1181 231 m 912 290 q 882 184 912 273 q 918 60 882 144 q 953 160 931 60 q 915 290 931 222 l 912 290 z "},"[":{"ha":514,"x_min":0,"x_max":0,"o":""},"\\":{"ha":386,"x_min":0,"x_max":0,"o":""},"]":{"ha":514,"x_min":0,"x_max":0,"o":""},"^":{"ha":688,"x_min":0,"x_max":0,"o":""},"_":{"ha":694,"x_min":0,"x_max":0,"o":""},"`":{"ha":694,"x_min":0,"x_max":0,"o":""},"a":{"ha":1904,"x_min":91,"x_max":1813,"o":"m 940 1619 q 1190 1476 1095 1619 q 1290 1495 1223 1489 q 1561 1318 1470 1495 q 1586 1191 1586 1259 q 1572 1104 1586 1168 l 1575 1104 q 1740 1009 1690 1076 q 1813 811 1813 926 q 1640 545 1813 637 q 1664 426 1664 491 q 1466 146 1664 232 q 1385 133 1417 133 l 1355 133 q 1225 168 1295 133 q 1130 57 1190 92 q 962 0 1053 0 q 704 149 797 0 q 604 133 662 133 q 327 331 414 133 q 313 423 313 389 l 313 431 q 321 499 313 462 q 145 613 202 533 q 91 789 91 698 q 256 1053 91 960 q 229 1166 229 1110 l 229 1194 q 392 1446 229 1351 q 525 1476 458 1476 q 666 1440 588 1476 l 666 1443 q 940 1619 754 1619 m 715 1408 q 913 1099 856 1256 l 913 1096 l 916 1096 q 1135 1449 1006 1373 l 1135 1454 q 943 1563 1057 1563 l 929 1563 q 718 1419 795 1563 q 715 1408 715 1414 m 948 993 l 959 993 q 1160 852 1105 993 q 1458 1028 1297 888 q 1529 1191 1529 1104 l 1529 1207 q 1374 1424 1529 1347 q 1287 1438 1329 1438 q 951 1012 1065 1438 l 948 993 m 283 1177 q 644 857 283 971 q 758 836 697 836 q 829 949 758 876 q 888 982 859 967 q 709 1332 850 1158 q 528 1419 626 1419 l 517 1419 q 305 1278 382 1419 q 283 1177 283 1230 m 1548 1053 q 1420 922 1512 988 q 1230 817 1257 817 l 1230 814 q 1504 697 1333 794 q 1610 597 1587 640 q 1735 713 1687 623 q 1756 798 1756 762 l 1756 833 q 1634 1023 1756 941 q 1548 1053 1575 1053 m 148 795 l 148 781 q 305 562 148 638 q 340 553 334 553 q 604 781 387 665 q 636 800 636 795 q 289 1001 375 883 l 286 1001 q 178 903 225 980 q 148 795 148 850 m 807 787 l 807 781 q 935 629 807 671 q 959 627 949 629 q 1111 746 1068 627 q 1116 781 1116 758 l 1116 784 q 997 933 1116 890 q 962 939 968 937 q 812 825 861 939 q 807 787 807 804 m 368 429 q 500 214 368 293 q 595 190 547 190 l 625 190 q 926 537 805 190 l 937 572 q 818 627 890 572 q 750 779 750 697 l 745 779 q 368 429 368 634 m 1171 768 l 1171 765 q 1076 605 1171 674 q 1016 578 1050 589 q 1111 374 1016 543 q 1369 187 1222 187 q 1594 345 1520 187 q 1607 410 1607 385 l 1607 445 q 1249 751 1607 629 q 1171 768 1189 768 m 975 510 q 815 217 923 339 l 758 171 l 758 168 q 959 57 837 57 l 964 57 q 1173 193 1095 57 q 1176 203 1176 197 q 1010 434 1089 283 q 981 510 981 504 l 975 510 z "},"b":{"ha":1768,"x_min":102,"x_max":1665,"o":"m 889 1619 q 1052 1375 991 1619 q 1063 1272 1063 1316 l 1063 1251 q 1339 1392 1193 1367 q 1375 1394 1357 1394 l 1394 1394 q 1499 1316 1478 1394 l 1502 1289 q 1358 1006 1502 1179 l 1326 977 q 1600 882 1449 977 q 1665 776 1665 828 q 1402 608 1665 663 q 1329 600 1374 600 l 1310 600 l 1310 597 q 1423 317 1423 438 l 1423 298 q 1331 190 1423 204 l 1320 190 q 1063 309 1217 190 l 1060 309 l 1060 307 q 984 65 1060 209 q 884 0 935 0 q 699 247 775 0 q 686 342 686 304 l 686 377 q 366 225 509 225 q 265 331 275 225 l 265 334 q 393 624 265 460 q 140 719 213 656 q 102 792 104 761 l 102 808 q 290 968 102 890 q 439 998 385 998 l 447 998 q 311 1297 311 1174 q 390 1400 311 1376 q 420 1402 408 1402 q 686 1294 536 1402 q 775 1549 697 1421 q 889 1619 829 1619 m 740 1251 q 797 1166 740 1242 q 889 1004 861 1070 l 892 1004 q 998 1175 917 1059 q 1008 1272 1006 1217 q 941 1519 1008 1390 q 889 1563 909 1563 l 881 1563 q 767 1408 830 1563 q 740 1251 740 1329 m 368 1302 l 368 1294 q 496 1028 368 1185 q 715 873 611 928 q 734 865 721 873 q 794 949 751 920 q 843 968 830 968 q 675 1232 802 1082 q 425 1348 522 1348 q 368 1302 368 1348 m 932 960 q 1011 873 991 934 q 1014 868 1011 868 q 1234 979 1126 906 q 1437 1242 1371 1062 q 1445 1286 1445 1260 l 1445 1297 q 1383 1340 1445 1340 q 1125 1232 1270 1340 q 951 1001 1006 1106 q 932 960 932 965 m 157 798 q 314 697 157 749 q 450 675 367 681 q 699 819 597 780 q 509 941 601 874 q 452 944 469 944 q 184 846 317 944 q 157 798 157 817 m 1017 811 l 1017 808 q 1220 681 1081 785 q 1315 654 1234 654 q 1573 727 1449 654 q 1608 773 1608 755 l 1608 781 q 1451 895 1608 832 q 1315 922 1364 922 q 1201 892 1230 922 q 1017 811 1085 830 m 786 819 q 857 741 786 766 l 886 741 q 962 817 962 762 l 962 830 q 897 914 962 888 l 881 917 l 873 917 q 786 846 812 917 l 786 819 m 319 336 q 357 282 325 282 l 385 282 q 634 407 479 282 q 821 694 760 543 q 745 762 791 694 q 737 776 742 776 q 431 583 577 713 q 319 336 319 432 m 998 754 q 908 686 975 709 q 897 684 897 686 q 1017 445 916 606 q 1293 247 1108 307 q 1318 244 1308 247 q 1369 309 1369 244 q 1269 559 1369 416 q 1055 727 1149 677 q 998 754 1010 754 m 740 353 q 838 84 740 218 q 886 57 865 57 q 998 255 945 57 q 1008 361 1008 321 q 862 616 907 505 l 857 632 q 748 450 823 568 q 740 353 740 369 z "},"c":{"ha":1961,"x_min":194,"x_max":1767,"o":"m 983 1611 q 1111 1481 1009 1611 q 1157 1397 1143 1430 q 1420 1481 1343 1481 q 1461 1335 1451 1481 q 1463 1280 1461 1305 q 1404 1031 1463 1141 q 1472 1015 1404 1027 q 1637 933 1533 1000 q 1767 811 1767 838 l 1767 800 q 1610 654 1767 768 q 1558 624 1558 629 q 1629 434 1602 541 q 1637 388 1629 427 q 1556 345 1637 351 q 1450 336 1499 336 l 1420 336 q 1208 380 1310 336 l 1208 377 q 1133 163 1200 280 q 1000 3 1103 106 q 981 0 989 0 q 845 144 945 7 q 802 222 823 180 q 541 136 625 136 q 498 326 507 136 l 498 331 q 552 583 498 460 l 549 583 q 302 692 439 594 q 197 789 241 737 q 194 803 197 798 q 387 974 201 854 l 403 979 q 324 1221 324 1158 l 324 1232 q 433 1272 324 1265 q 528 1278 479 1278 q 755 1232 651 1278 l 755 1234 q 831 1451 762 1331 q 964 1611 869 1516 l 983 1611 m 810 1199 q 937 1058 908 1123 l 940 1058 q 1048 1308 940 1177 l 1111 1364 q 981 1544 1086 1432 l 978 1544 q 810 1199 810 1365 m 991 1004 l 994 1004 q 1122 906 1082 1004 l 1130 879 q 1407 1283 1407 981 q 1393 1421 1407 1353 q 1100 1278 1203 1379 q 991 1004 991 1166 m 384 1210 q 509 933 418 1035 q 802 808 624 808 q 845 811 829 811 q 840 854 840 842 l 840 863 q 910 985 840 941 q 530 1223 799 1223 q 384 1210 458 1221 m 1366 974 q 1225 860 1274 872 l 1225 854 l 1227 854 q 1461 751 1332 854 q 1529 675 1484 731 q 1681 784 1598 707 q 1702 800 1697 800 l 1702 803 q 1366 974 1526 974 m 894 860 q 970 770 894 793 q 983 768 979 770 q 1073 846 1050 768 l 1073 871 q 1002 947 1073 920 l 983 949 q 897 868 897 930 q 894 860 894 868 m 262 806 l 262 803 q 590 637 437 637 q 731 754 664 727 q 663 770 731 759 q 435 933 518 815 q 262 806 375 909 m 1021 716 q 1135 499 1033 618 q 1436 391 1251 391 q 1577 404 1484 391 q 1442 689 1536 589 q 1176 803 1329 803 l 1122 803 q 1043 724 1090 743 q 1021 716 1021 720 m 555 334 q 568 195 555 264 q 867 345 766 241 q 970 616 970 455 q 948 719 970 719 q 880 751 930 719 q 663 635 742 718 q 555 334 555 524 m 1021 553 q 943 345 1021 469 q 850 252 911 305 q 983 68 871 191 q 1154 412 1154 247 q 1024 553 1052 486 l 1021 553 z "},"d":{"ha":1969,"x_min":206,"x_max":1763,"o":"m 1286 1587 q 1465 1563 1465 1587 l 1468 1546 l 1468 1226 q 1383 955 1468 1079 l 1383 952 q 1484 963 1415 960 q 1712 817 1657 963 q 1763 483 1763 689 l 1763 467 q 1742 290 1763 290 l 1723 288 l 1435 288 q 1156 355 1274 288 q 1161 293 1161 342 l 1161 266 q 1012 52 1161 109 q 670 0 880 0 q 488 27 488 0 l 488 358 q 548 594 488 481 l 515 591 l 464 591 q 244 770 300 591 q 206 1047 206 895 l 206 1118 q 228 1261 206 1261 q 239 1264 233 1264 l 562 1264 q 803 1202 688 1264 l 803 1204 q 795 1297 795 1260 l 795 1318 q 944 1535 795 1479 q 1286 1587 1084 1587 m 849 1308 q 892 1128 859 1142 q 990 966 953 1061 q 1128 876 1080 966 q 1283 930 1198 903 q 1413 1256 1413 1044 l 1413 1525 q 1275 1530 1368 1530 q 873 1413 958 1530 q 849 1308 849 1369 m 266 1210 q 260 1082 260 1155 q 382 667 260 742 q 486 646 423 646 q 865 751 631 646 q 849 822 849 798 q 933 952 849 907 q 751 1164 876 1100 q 526 1210 667 1210 l 266 1210 m 906 822 q 977 735 906 758 l 993 732 q 1080 806 1053 732 l 1080 830 q 993 909 1061 909 q 906 822 906 894 m 1053 692 q 1139 442 1139 473 q 1402 345 1253 345 l 1704 345 l 1709 475 q 1595 882 1709 789 q 1492 906 1552 906 l 1473 906 q 1137 817 1348 906 q 1053 692 1137 732 m 543 320 l 543 65 l 545 60 q 659 57 618 57 l 684 57 q 1093 198 1036 57 q 1107 279 1107 235 q 996 678 1107 425 l 990 678 q 903 705 951 678 q 629 608 789 651 q 543 320 543 513 z "},"e":{"ha":1942,"x_min":191,"x_max":1751,"o":"m 723 1549 l 726 1549 q 983 1340 902 1549 q 1062 1440 1025 1398 q 1271 1544 1181 1544 l 1274 1544 q 1390 1443 1337 1522 q 1420 1337 1420 1379 l 1420 1299 q 1382 1145 1420 1244 q 1491 1158 1435 1158 l 1507 1158 q 1737 1077 1642 1158 q 1751 998 1748 1038 q 1586 757 1751 839 q 1740 499 1740 623 q 1640 385 1714 429 q 1523 353 1583 353 l 1499 353 q 1358 385 1444 353 l 1358 382 q 1371 277 1371 321 l 1371 247 q 1290 22 1371 113 q 1219 8 1263 8 l 1200 8 q 970 165 1060 8 l 967 165 q 747 5 894 52 q 715 0 720 3 q 595 98 668 0 q 560 228 560 155 l 560 233 q 587 369 560 290 l 585 369 q 460 353 518 353 q 221 434 318 353 q 208 521 208 476 q 397 768 208 683 q 197 1015 246 859 q 191 1055 191 1049 q 300 1177 218 1131 q 406 1204 354 1204 l 433 1204 q 576 1172 490 1204 l 576 1175 q 560 1299 560 1242 q 647 1538 560 1447 q 723 1549 686 1549 m 617 1310 l 617 1294 q 785 892 617 1099 q 837 849 817 861 l 842 849 q 929 933 860 902 q 975 941 954 941 l 986 941 l 989 955 l 989 990 q 897 1392 989 1213 q 723 1495 824 1495 q 661 1468 671 1495 q 617 1310 617 1388 m 1008 1261 q 1046 985 1046 1102 q 1043 966 1043 974 q 1309 1126 1174 1078 q 1366 1316 1366 1238 q 1263 1487 1366 1428 l 1260 1487 q 1100 1397 1193 1479 q 1008 1261 1038 1327 m 248 1047 q 346 879 254 975 q 473 795 429 808 q 758 838 644 838 q 598 1099 656 942 q 419 1150 495 1150 q 248 1047 309 1150 m 1076 914 q 1143 781 1143 864 q 1138 749 1141 753 q 1165 730 1160 730 q 1624 846 1459 730 q 1694 996 1694 912 l 1694 1004 q 1670 1058 1694 1049 q 1499 1104 1590 1104 q 1114 952 1319 1104 q 1076 914 1076 918 m 883 770 q 954 684 883 718 q 986 678 975 678 q 1086 770 1059 678 l 1086 787 q 1000 887 1086 859 l 986 887 q 883 803 913 887 l 883 770 m 264 529 l 264 505 q 289 456 264 456 q 446 410 359 410 l 468 410 q 829 548 629 410 q 891 621 891 595 q 894 651 891 633 q 826 779 826 701 l 807 781 l 764 781 q 365 689 543 781 q 264 529 264 615 m 1214 675 q 1325 486 1284 584 q 1501 407 1325 435 l 1512 407 q 1683 510 1624 407 l 1683 513 q 1594 673 1683 568 q 1518 727 1533 727 q 1214 675 1340 675 m 991 624 l 975 624 l 948 627 l 945 621 l 945 556 q 1038 163 945 342 q 1208 62 1109 62 q 1274 90 1263 62 q 1317 260 1317 170 q 1154 656 1317 451 q 1116 692 1136 678 q 991 624 1061 624 m 614 231 q 718 57 614 123 q 888 155 781 60 q 943 228 919 192 q 891 524 891 418 l 888 524 q 720 418 800 452 q 652 377 652 393 q 614 231 614 288 z "},"f":{"ha":1942,"x_min":174,"x_max":1769,"o":"m 909 1617 q 1025 1478 943 1617 q 1066 1329 1066 1388 l 1069 1329 q 1256 1468 1114 1416 q 1375 1495 1316 1487 q 1408 1413 1408 1495 l 1408 1383 q 1359 1185 1408 1282 l 1362 1185 q 1470 1207 1418 1207 l 1497 1207 q 1695 1139 1695 1185 q 1579 952 1681 1067 q 1489 892 1506 892 l 1489 890 q 1674 803 1561 890 q 1769 681 1769 705 q 1592 581 1769 641 q 1495 567 1546 567 l 1478 567 q 1590 282 1590 435 q 1508 255 1590 255 q 1261 326 1368 255 q 1267 279 1267 304 l 1267 252 q 1175 11 1267 151 q 1150 0 1160 0 q 974 179 1052 47 q 960 214 960 210 l 958 214 q 770 22 916 109 q 735 11 753 11 q 656 195 701 11 q 651 258 651 243 q 654 298 654 285 l 651 298 q 418 241 560 241 l 412 241 q 355 263 355 241 q 350 271 353 263 q 429 515 350 385 l 429 521 l 426 521 q 176 629 315 521 l 174 643 l 174 651 q 296 781 174 683 l 369 825 q 176 1036 243 884 l 176 1039 q 372 1123 176 1084 q 415 1126 387 1126 l 434 1126 q 486 1120 464 1126 q 437 1316 437 1211 q 464 1427 437 1427 q 472 1430 464 1430 q 719 1335 575 1430 q 743 1313 719 1332 l 743 1318 q 901 1617 743 1474 l 909 1617 m 906 1549 q 800 1335 800 1424 l 800 1297 l 803 1297 q 958 1318 884 1318 l 971 1318 q 1012 1316 985 1318 l 1012 1318 q 909 1549 1012 1426 l 906 1549 m 1112 1297 l 1112 1294 q 1297 1194 1191 1274 l 1299 1194 q 1354 1413 1354 1279 q 1351 1435 1354 1416 q 1145 1340 1208 1405 q 1112 1297 1128 1320 m 496 1367 q 494 1337 494 1349 l 494 1313 q 548 1126 494 1204 l 551 1126 q 716 1259 659 1240 l 716 1261 q 496 1367 596 1367 m 491 795 q 719 396 491 548 q 952 331 829 331 l 960 331 q 1373 586 1221 331 q 1421 798 1421 692 q 1194 1199 1421 1044 q 958 1264 1074 1264 q 575 1063 727 1264 q 491 795 491 940 m 1362 1126 q 1449 968 1425 1039 l 1457 939 q 1617 1093 1539 968 q 1628 1126 1628 1116 q 1478 1153 1545 1153 q 1362 1126 1423 1153 m 241 1028 l 241 1025 q 396 871 307 913 q 439 860 422 860 q 499 1061 439 911 q 423 1072 460 1072 q 241 1028 341 1072 m 1476 836 l 1476 779 q 1449 627 1476 709 q 1492 621 1453 624 q 1701 686 1586 621 l 1701 689 q 1476 836 1582 836 m 239 651 q 442 575 346 575 l 456 575 q 483 581 483 575 q 437 787 437 684 q 239 651 317 751 m 1411 545 q 1283 380 1393 498 l 1283 377 q 1508 312 1373 312 l 1533 312 q 1478 477 1516 413 q 1413 545 1448 520 l 1411 545 m 410 298 l 439 298 q 654 372 575 298 l 654 374 q 518 515 584 416 q 513 526 513 522 q 418 358 458 485 q 410 298 410 311 m 998 277 q 1082 122 1004 214 q 1147 68 1137 68 l 1147 71 q 1213 269 1213 176 q 1202 334 1213 303 q 998 277 1070 277 m 716 331 q 708 263 708 294 l 708 247 q 751 76 708 172 q 920 266 870 140 l 920 277 q 716 331 846 277 z "},"g":{"ha":2099,"x_min":181,"x_max":1917,"o":"m 1334 1617 l 1342 1617 q 1432 1541 1404 1617 q 1442 1468 1442 1504 l 1442 1435 q 1296 1006 1442 1245 l 1296 1004 q 1646 1072 1474 1072 q 1914 971 1862 1072 l 1917 944 l 1917 936 q 1670 746 1917 827 q 1391 703 1532 703 q 1307 708 1353 703 q 1505 494 1450 586 q 1619 206 1619 315 l 1619 184 q 1559 87 1619 115 q 1521 81 1533 81 q 1266 241 1418 81 q 1101 496 1144 380 l 1098 496 q 941 125 1050 272 q 759 0 847 0 q 659 144 675 0 l 659 165 q 810 618 659 374 l 808 618 q 450 548 632 548 q 192 635 253 548 q 181 675 181 652 l 181 684 q 517 898 181 814 q 710 917 633 917 q 800 911 726 917 q 615 1112 648 1046 q 493 1421 493 1291 q 550 1525 493 1498 q 583 1530 569 1530 l 599 1530 q 927 1275 729 1530 q 1006 1134 990 1175 l 1008 1134 q 1082 1359 1009 1184 q 1334 1617 1217 1617 m 1052 1025 l 1052 993 q 1171 949 1116 993 l 1177 949 q 1369 1308 1307 1084 q 1388 1454 1388 1388 q 1337 1563 1383 1563 l 1334 1563 q 1198 1446 1256 1537 q 1052 1025 1052 1217 m 550 1432 l 550 1405 q 734 1050 558 1266 q 903 914 848 937 l 911 914 q 995 985 925 948 q 881 1240 983 1086 q 591 1476 697 1476 l 585 1476 q 550 1432 555 1476 m 1212 890 q 1225 808 1225 853 q 1223 787 1223 789 q 1367 760 1284 760 l 1418 760 q 1790 857 1604 760 q 1863 944 1863 906 q 1659 1015 1826 1015 l 1630 1015 q 1253 920 1435 1015 q 1212 890 1228 904 m 935 819 l 935 808 q 1033 697 935 727 l 1057 697 q 1168 798 1133 697 l 1168 827 q 1074 936 1168 905 l 1049 936 q 938 841 972 936 q 935 819 935 831 m 235 675 q 425 605 277 605 l 471 605 q 878 722 693 605 q 895 738 878 723 q 878 817 878 786 l 881 830 q 729 860 819 860 l 688 860 q 273 738 458 860 q 235 675 235 701 m 1117 651 q 1326 260 1117 500 q 1513 138 1455 138 l 1529 138 q 1565 195 1565 138 q 1396 543 1565 327 q 1187 705 1265 689 q 1117 651 1158 675 m 715 182 l 715 152 q 764 54 723 54 q 922 198 824 54 q 1052 597 1052 419 l 1049 640 q 941 678 994 640 q 816 521 866 612 q 715 182 715 315 z "},"h":{"ha":1945,"x_min":167,"x_max":1778,"o":"m 1227 1611 l 1238 1611 q 1260 1590 1260 1609 q 1257 1538 1260 1581 q 1382 1348 1257 1418 q 1420 1218 1420 1289 l 1420 1175 q 1664 1223 1563 1223 l 1718 1223 q 1746 1194 1741 1223 q 1632 1015 1746 1124 q 1507 928 1590 979 q 1645 822 1557 907 l 1648 808 q 1645 760 1648 792 q 1775 562 1645 661 l 1778 548 l 1778 543 q 1754 518 1775 518 l 1721 518 q 1710 521 1715 518 q 1512 393 1584 521 q 1366 355 1447 355 q 1312 361 1350 355 q 1358 141 1358 244 q 1306 0 1348 0 l 1295 0 q 1130 165 1261 0 q 1084 247 1086 239 l 1078 247 q 989 133 1063 210 l 972 127 q 935 130 949 130 l 916 130 q 728 3 825 130 l 715 0 l 707 0 q 682 22 690 0 q 685 62 685 49 l 685 81 q 555 269 685 193 q 522 396 523 342 l 519 396 q 368 372 434 372 l 351 372 q 216 423 216 381 l 216 431 q 392 605 237 492 q 487 656 451 642 l 487 662 q 302 787 411 682 q 294 800 300 787 q 297 860 297 841 q 208 1017 297 934 q 167 1061 167 1046 l 167 1072 q 189 1093 167 1093 l 208 1093 q 235 1090 220 1093 q 435 1223 359 1090 q 579 1256 509 1256 q 528 1446 528 1364 q 560 1525 528 1525 l 568 1525 q 831 1332 680 1494 q 840 1324 831 1328 l 842 1324 q 956 1478 858 1379 l 970 1484 q 1013 1481 998 1481 l 1024 1481 q 1217 1609 1116 1481 q 1227 1611 1221 1611 m 1016 1424 l 997 1424 l 983 1427 q 853 1139 853 1288 l 853 1112 q 913 1017 853 1105 q 932 977 913 1015 q 948 1031 937 977 q 972 1042 962 1042 l 975 1042 q 1013 966 1004 1042 q 1067 1017 1053 1017 l 1078 1017 q 1100 990 1100 1017 q 1089 930 1100 981 l 1092 930 q 1249 979 1135 954 q 1366 1199 1366 1087 q 1322 1316 1358 1316 q 1206 1506 1206 1406 l 1203 1506 q 1016 1424 1112 1424 m 585 1457 l 585 1446 q 652 1245 585 1351 q 796 1166 722 1230 l 799 1166 l 799 1169 q 815 1264 799 1196 q 587 1457 681 1414 l 585 1457 m 270 1039 q 354 844 354 948 q 351 817 351 820 q 644 686 490 686 q 747 703 686 686 l 747 705 q 723 727 723 705 l 723 738 q 785 781 723 760 l 785 787 q 723 830 723 810 l 723 841 q 747 863 723 863 l 804 863 l 804 865 q 766 928 766 909 l 766 930 q 791 955 770 955 l 793 955 q 859 930 803 955 q 845 990 853 946 q 850 1006 847 1006 q 582 1199 730 1199 l 574 1199 q 452 1142 469 1199 q 270 1039 361 1039 m 1331 979 q 1439 960 1358 979 q 1681 1169 1628 1051 l 1678 1169 q 1407 1107 1553 1169 q 1331 979 1396 1060 m 1143 868 l 1143 863 l 1200 863 q 1225 833 1225 863 q 1162 787 1225 809 l 1162 781 q 1225 735 1225 759 l 1225 732 q 1200 705 1221 705 l 1143 705 l 1143 700 q 1179 646 1179 660 l 1179 635 q 1154 613 1179 613 q 1089 637 1143 613 l 1089 635 q 1230 453 1089 566 q 1360 412 1301 412 l 1374 412 q 1477 445 1463 418 q 1637 567 1517 526 l 1672 572 q 1591 757 1591 666 l 1591 792 q 1301 925 1459 925 q 1160 887 1174 916 q 1143 868 1157 887 m 943 876 q 924 879 934 879 q 891 852 924 852 q 888 854 891 854 l 888 833 q 867 811 888 811 l 867 808 q 878 787 878 797 l 878 781 q 867 760 878 772 l 867 757 q 888 735 888 757 l 888 713 l 891 713 l 897 716 q 926 686 926 710 q 943 692 935 692 l 948 692 q 975 675 959 692 q 1000 692 975 688 l 1002 692 q 1021 689 1014 689 q 1051 716 1021 711 q 1059 713 1057 713 l 1059 716 q 1057 727 1057 721 l 1057 732 q 1078 757 1057 757 l 1078 760 q 1070 779 1070 770 l 1070 789 q 1078 808 1070 798 l 1078 811 q 1057 836 1061 811 l 1057 841 l 1059 854 q 1051 852 1057 854 q 1019 882 1029 852 q 1002 876 1010 876 l 1000 876 q 975 892 975 880 q 943 876 960 876 m 972 863 q 1054 784 1054 852 q 970 703 1054 712 q 894 781 904 703 l 894 784 q 972 863 903 863 m 951 784 l 951 781 q 967 760 951 766 l 972 760 q 997 784 997 763 q 981 806 997 795 l 972 806 q 951 784 951 806 m 579 420 l 579 399 q 636 285 579 305 q 715 193 692 238 q 739 106 728 161 q 932 187 830 187 l 945 187 l 959 184 q 1092 475 1092 326 q 1065 540 1092 516 q 1013 602 1065 545 q 975 526 1004 526 l 972 526 q 937 583 943 526 l 935 600 l 932 600 q 878 551 892 551 l 869 551 q 845 578 848 551 q 859 637 853 622 l 853 637 q 791 613 810 613 q 766 637 766 616 l 766 648 l 764 648 q 671 610 689 637 q 579 420 579 515 m 289 437 q 365 426 308 429 q 525 458 433 426 q 604 624 536 534 q 612 632 608 624 q 576 635 578 635 q 419 553 510 611 q 289 437 357 514 m 1146 445 q 1114 312 1135 357 q 1265 95 1161 204 l 1290 73 l 1293 73 q 1301 133 1301 106 l 1301 155 q 1241 382 1301 251 q 1146 445 1199 403 z "},"i":{"ha":2057,"x_min":195,"x_max":1861,"o":"m 1251 1617 q 1335 1571 1261 1617 q 1432 1546 1392 1546 q 1525 1611 1484 1546 l 1538 1614 l 1546 1614 q 1571 1587 1568 1614 q 1533 1508 1571 1581 q 1522 1451 1522 1473 q 1704 1321 1522 1355 q 1717 1297 1717 1311 l 1717 1283 q 1611 884 1717 1077 l 1611 879 q 1799 760 1706 851 q 1861 613 1861 682 q 1812 518 1861 600 q 1790 429 1790 467 q 1853 336 1790 377 l 1858 328 l 1858 312 q 1836 290 1858 290 l 1831 290 q 1761 323 1821 290 q 1706 336 1731 336 l 1693 336 q 1565 160 1599 336 q 1533 141 1558 141 q 1128 247 1332 141 q 1085 277 1128 249 q 1006 117 1057 190 q 811 0 909 0 l 808 0 q 722 43 795 0 q 627 71 665 71 q 534 8 570 71 q 513 0 515 0 q 486 24 486 5 l 486 33 l 521 106 q 534 163 532 132 q 363 293 534 259 q 336 328 341 293 l 339 345 q 445 738 339 534 l 442 738 q 214 922 274 800 q 195 1001 195 969 l 195 1009 q 239 1090 195 1017 q 266 1185 266 1147 q 201 1280 266 1242 l 198 1294 l 198 1305 q 220 1326 198 1326 l 228 1326 l 301 1291 q 358 1278 327 1280 q 491 1462 457 1278 q 521 1476 500 1472 q 871 1400 676 1476 q 968 1340 928 1370 l 971 1340 q 1063 1514 1007 1453 q 1251 1617 1147 1617 m 1017 1297 q 1120 1101 1087 1238 q 1150 1063 1120 1063 q 1245 974 1219 1028 q 1264 936 1261 936 l 1310 936 q 1552 898 1414 936 q 1633 1080 1592 951 q 1663 1272 1655 1173 q 1468 1443 1468 1317 l 1468 1462 l 1470 1495 l 1438 1492 l 1421 1492 q 1242 1560 1341 1492 l 1237 1560 q 1090 1459 1177 1560 q 1017 1297 1029 1357 m 537 1419 q 363 1223 498 1223 l 361 1223 q 315 1226 347 1223 q 320 1191 320 1214 l 320 1183 q 252 996 320 1105 l 252 993 q 361 841 252 928 q 765 735 545 735 q 895 754 829 735 l 895 760 q 860 876 860 815 q 998 1069 860 1010 q 1069 1080 1030 1080 q 966 1267 1039 1207 q 667 1402 883 1356 q 537 1419 616 1413 m 917 871 q 1039 727 917 769 l 1077 727 q 1213 846 1169 727 q 1215 876 1215 870 q 1093 1023 1215 979 l 1058 1023 q 917 895 955 1023 l 917 871 m 1270 882 l 1270 871 q 1123 678 1270 733 l 1120 678 q 1134 570 1128 654 q 1104 334 1134 496 l 1107 334 q 1397 212 1202 250 q 1516 198 1480 198 q 1701 393 1557 393 q 1739 388 1720 393 q 1736 429 1736 415 l 1736 445 q 1804 621 1736 511 l 1804 624 q 1723 754 1804 673 q 1275 882 1545 882 l 1270 882 m 393 342 q 589 168 589 302 l 589 160 q 586 119 589 146 q 621 125 598 125 l 629 125 q 817 57 708 125 l 819 57 q 947 136 872 57 q 1028 282 989 184 q 1077 572 1077 436 q 1066 670 1077 616 q 939 711 1003 670 q 760 678 847 678 q 505 716 668 678 q 429 553 460 661 q 393 342 393 416 z "},"j":{"ha":2022,"x_min":211,"x_max":1811,"o":"m 998 1611 l 1008 1611 q 1109 1432 1042 1611 q 1139 1313 1125 1386 q 1377 1522 1274 1482 l 1388 1525 q 1423 1451 1423 1525 l 1423 1449 q 1304 1128 1423 1339 q 1616 1294 1500 1294 q 1662 1259 1662 1294 q 1375 882 1584 1028 q 1527 890 1450 887 q 1811 806 1750 890 l 1811 789 q 1573 670 1811 747 l 1556 667 q 1735 439 1735 497 q 1659 404 1735 404 q 1329 532 1551 404 q 1510 198 1510 317 q 1478 152 1510 152 q 1215 307 1380 169 q 1098 442 1143 378 l 1098 439 q 1103 298 1103 357 l 1103 277 q 1022 0 1103 59 l 1006 0 q 886 236 963 0 l 886 247 q 672 84 725 84 q 640 141 640 84 l 640 165 q 756 477 640 271 q 433 296 543 296 l 409 296 q 376 326 376 298 q 542 605 391 424 q 664 703 650 703 l 664 705 l 661 705 q 498 697 588 697 q 214 779 271 697 l 211 792 q 455 917 211 840 q 488 922 464 917 l 488 925 q 333 1090 380 1013 q 306 1147 306 1130 l 306 1153 q 379 1185 306 1185 q 677 1077 487 1185 l 677 1080 q 504 1405 504 1283 q 536 1449 504 1449 q 805 1291 644 1427 q 916 1158 869 1225 l 916 1161 q 908 1321 908 1299 q 984 1609 908 1537 l 998 1611 m 965 1324 q 1003 968 965 1124 l 1006 968 q 1090 1240 1006 1050 q 1003 1535 1090 1361 q 965 1324 965 1485 m 1060 920 l 1087 911 q 1369 1451 1369 1297 l 1367 1451 q 1087 1085 1177 1331 q 1060 920 1060 999 m 564 1381 l 564 1378 q 895 936 582 1242 l 946 898 q 962 911 962 907 q 791 1223 929 1060 q 564 1381 674 1336 m 1128 871 l 1128 868 q 1136 838 1136 842 q 1410 982 1278 873 q 1565 1175 1529 1097 l 1594 1234 l 1592 1234 q 1190 944 1466 1216 q 1128 871 1150 905 m 379 1128 l 379 1126 q 753 846 503 932 q 908 817 855 817 q 911 852 911 827 q 385 1128 534 1128 l 379 1128 m 290 787 q 504 751 371 751 q 791 776 599 751 l 791 779 q 553 876 658 807 q 295 795 469 876 l 290 787 m 1255 814 l 1255 811 q 1489 713 1383 782 l 1491 713 q 1735 795 1568 713 q 1521 833 1682 833 q 1255 814 1426 833 m 1133 770 q 1122 746 1133 762 q 1651 461 1480 475 l 1662 461 l 1662 464 q 1282 746 1539 658 q 1133 770 1204 770 m 444 353 l 447 353 q 721 524 537 368 q 932 735 877 665 q 919 754 923 754 q 561 540 695 695 q 444 353 467 419 m 1063 700 q 1060 662 1060 666 q 1345 277 1142 410 q 1451 220 1388 250 l 1451 222 q 1301 475 1442 298 q 1076 705 1202 593 q 1063 700 1067 700 m 976 697 q 694 157 694 316 l 696 157 q 903 372 838 257 q 1003 694 1003 535 q 976 697 1003 697 m 1030 518 q 930 307 1017 444 q 1014 76 947 190 q 1049 290 1049 153 q 1033 518 1049 379 l 1030 518 z "},"k":{"ha":1954,"x_min":180,"x_max":1775,"o":"m 947 1617 l 966 1617 q 1219 1468 1139 1571 l 1221 1462 q 1311 1476 1270 1476 q 1552 1400 1423 1476 q 1609 1297 1573 1389 q 1639 1145 1639 1213 l 1639 1137 q 1615 1025 1639 1080 q 1775 765 1714 966 l 1775 754 q 1677 543 1765 669 q 1596 475 1628 493 q 1520 231 1596 370 q 1476 201 1502 215 q 1270 146 1354 146 l 1267 146 q 1213 100 1257 146 q 1007 0 1099 16 l 985 0 q 733 152 823 40 q 657 138 696 138 l 633 138 q 402 212 536 138 q 329 366 363 252 q 315 467 315 421 l 315 477 q 340 591 315 527 q 180 849 243 646 l 180 868 q 291 1088 210 997 q 359 1139 346 1139 q 437 1389 359 1253 q 541 1440 463 1413 q 690 1470 618 1470 l 695 1470 q 947 1617 775 1569 m 768 1462 l 768 1459 q 926 1335 870 1428 q 991 1164 967 1261 q 1002 1126 996 1126 q 1113 1392 1024 1285 q 1167 1438 1136 1414 q 953 1563 1108 1518 q 768 1462 823 1519 m 1042 982 q 1121 911 1099 958 q 1471 1069 1316 1069 q 1563 1053 1518 1069 q 1585 1145 1585 1095 q 1517 1356 1585 1238 q 1311 1419 1400 1419 l 1303 1419 q 1048 1072 1101 1419 q 1042 982 1042 1044 m 416 1145 l 416 1126 q 676 895 416 964 q 823 873 767 873 q 825 871 823 871 q 871 952 833 909 q 687 1142 688 1137 l 687 1147 l 880 958 q 958 993 905 979 q 885 1291 958 1133 q 709 1413 809 1413 l 679 1413 q 478 1348 589 1413 q 416 1145 416 1230 m 234 857 q 484 602 317 602 q 828 779 627 602 q 820 817 823 817 q 522 890 692 817 q 380 1028 424 941 q 367 1077 367 1070 l 364 1077 q 234 857 276 1006 m 1143 852 l 1143 819 l 1140 800 q 1148 798 1145 798 q 1449 719 1299 790 q 1566 600 1539 661 q 1588 540 1579 576 q 1721 760 1682 614 q 1476 1012 1636 1012 l 1466 1012 q 1143 852 1326 1012 m 877 827 q 964 727 877 755 l 988 727 q 1086 811 1056 727 q 1088 833 1086 814 q 985 936 1067 936 l 977 936 q 877 846 904 936 l 877 827 m 1118 743 l 1097 716 q 1308 315 1308 481 l 1308 296 q 1292 203 1308 255 l 1295 203 q 1476 269 1375 210 q 1539 472 1539 387 l 1539 483 q 1164 741 1539 693 q 1118 743 1143 743 m 492 548 l 473 548 q 391 562 444 548 q 370 469 370 518 q 437 255 370 374 q 649 193 564 193 q 901 507 840 193 q 918 684 912 566 q 858 724 898 688 l 855 724 q 492 548 645 548 m 985 670 l 972 670 l 972 667 q 869 255 972 429 q 787 179 814 189 l 787 176 q 999 54 857 94 q 1254 304 1254 135 q 1048 684 1254 461 q 985 670 1015 670 m 994 597 l 999 597 q 1002 529 1002 552 l 1002 345 l 996 345 l 994 363 l 994 597 z "},"l":{"ha":1978,"x_min":172,"x_max":1805,"o":"m 802 1619 q 1016 1432 957 1619 q 1032 1345 1029 1369 l 1035 1345 q 1176 1554 1084 1504 q 1271 1576 1222 1576 q 1556 1421 1400 1576 q 1618 1280 1618 1349 l 1618 1259 q 1512 1069 1618 1168 l 1512 1066 q 1564 1072 1534 1072 l 1591 1072 q 1784 939 1730 1072 q 1805 795 1805 879 l 1805 789 q 1683 510 1805 572 q 1588 488 1634 488 l 1567 488 q 1412 521 1506 488 q 1539 288 1539 385 l 1539 271 q 1233 5 1539 95 q 1173 0 1187 0 q 962 190 1019 0 q 945 274 945 257 l 943 274 q 709 43 871 43 q 422 198 576 43 q 359 336 359 271 l 359 363 q 463 548 359 449 l 465 548 l 465 553 q 416 548 452 548 l 384 548 q 186 705 235 548 q 172 814 172 759 l 172 838 q 294 1109 172 1045 q 395 1131 341 1131 l 400 1131 q 566 1099 474 1131 q 438 1329 438 1235 l 438 1356 q 734 1611 438 1518 q 802 1619 769 1617 m 492 1343 q 815 977 492 1193 l 818 977 q 978 1039 893 1039 l 978 1042 q 986 1207 986 1136 q 861 1552 986 1489 q 807 1563 830 1563 l 799 1563 q 547 1454 689 1563 q 492 1343 492 1401 m 1035 1036 q 1187 960 1095 1036 q 1198 947 1187 952 q 1401 1053 1363 1028 q 1564 1272 1564 1171 q 1347 1503 1564 1388 q 1276 1519 1305 1519 l 1257 1519 q 1062 1237 1131 1519 q 1035 1036 1043 1145 m 227 825 q 400 602 227 602 q 728 716 527 602 q 726 762 726 748 l 726 787 q 774 930 726 859 q 397 1077 532 1077 q 227 825 227 1077 m 1230 901 q 1260 770 1260 829 q 1238 667 1260 722 q 1577 543 1457 543 q 1751 795 1751 543 q 1577 1017 1751 1017 q 1230 901 1452 1017 m 780 768 q 894 586 780 657 q 981 562 942 562 l 997 562 q 1195 711 1131 562 q 1203 768 1203 739 l 1203 784 q 1081 966 1203 891 q 986 985 1034 985 q 799 860 871 985 q 780 768 780 816 m 414 350 q 642 111 414 227 q 696 100 682 100 l 720 100 q 913 377 847 100 q 932 513 932 450 q 791 594 878 513 q 747 662 764 627 q 414 350 414 497 m 994 505 q 991 450 991 468 l 991 412 q 1103 76 991 144 q 1171 57 1132 57 l 1181 57 q 1415 152 1277 57 q 1485 279 1485 210 q 1211 610 1485 411 l 1208 610 q 994 505 1116 505 z "},"m":{"ha":2009,"x_min":197,"x_max":1811,"o":"m 1003 1617 q 1147 1511 1088 1592 q 1196 1354 1196 1438 l 1196 1351 q 1177 1232 1196 1294 l 1177 1229 l 1179 1229 q 1445 1411 1276 1411 q 1584 1364 1584 1400 q 1605 1251 1605 1312 q 1423 985 1605 1080 l 1423 982 l 1426 982 q 1546 1001 1491 1001 q 1809 822 1725 1001 l 1811 808 q 1706 665 1787 724 q 1546 616 1633 616 q 1432 632 1501 616 l 1429 632 l 1429 629 q 1605 361 1605 536 q 1562 228 1593 228 q 1448 206 1498 206 q 1179 388 1276 206 l 1177 388 l 1177 385 q 1196 266 1196 325 l 1196 263 q 1017 3 1196 88 l 1000 0 q 873 92 921 27 q 810 269 810 161 q 829 385 810 315 q 748 279 795 328 q 558 206 664 206 q 422 250 433 216 q 401 366 401 314 q 583 632 401 536 l 583 635 l 580 635 q 458 616 517 616 q 200 789 288 616 q 197 803 197 794 l 197 814 q 314 963 214 886 q 463 1001 387 1001 q 580 982 513 1001 l 583 982 l 583 985 q 401 1251 401 1082 q 455 1392 410 1392 q 558 1411 508 1411 q 827 1232 729 1411 l 829 1232 q 810 1354 810 1298 q 987 1614 810 1524 q 1003 1617 989 1614 m 867 1359 l 867 1337 q 984 1025 867 1227 q 1000 979 1000 987 l 1006 979 q 1106 1188 1006 993 q 1141 1348 1141 1303 q 1003 1557 1141 1487 l 1000 1557 q 867 1359 867 1482 m 458 1253 l 458 1248 q 843 947 458 1042 q 884 928 846 943 l 884 930 q 813 1137 862 976 q 564 1354 718 1354 l 553 1354 q 463 1313 463 1354 q 458 1253 458 1273 m 1128 930 q 1315 993 1162 947 q 1548 1245 1548 1090 l 1548 1261 q 1505 1348 1548 1348 q 1453 1354 1472 1354 l 1442 1354 q 1141 968 1236 1354 q 1128 930 1128 949 m 895 1069 l 895 1066 q 960 909 925 958 l 962 909 l 962 911 q 897 1069 962 946 l 895 1069 m 1106 1063 q 1044 909 1049 958 q 1103 1036 1078 951 l 1109 1061 l 1109 1063 l 1106 1063 m 254 806 q 444 673 333 673 l 471 673 q 802 798 587 673 q 832 806 829 806 l 832 811 q 629 909 819 811 q 474 944 526 944 l 444 944 q 254 808 330 944 l 254 806 m 1174 811 l 1174 806 q 1377 708 1190 806 q 1532 673 1484 673 l 1562 673 q 1752 806 1675 673 l 1752 811 q 1562 944 1676 944 l 1532 944 q 1209 822 1420 944 l 1174 811 m 1103 849 l 1106 849 q 1263 914 1180 867 l 1263 917 l 1261 917 q 1103 852 1167 892 l 1103 849 m 748 914 l 748 911 q 903 849 826 867 q 756 914 856 886 l 748 914 m 957 811 l 957 800 q 1006 754 957 767 q 1057 808 1047 754 q 1008 854 1057 843 l 1000 854 q 957 811 957 841 m 743 703 l 743 700 l 745 700 q 903 768 863 733 l 900 768 q 743 703 826 750 m 1106 768 q 1250 703 1136 736 q 1261 700 1256 703 l 1263 700 l 1263 703 q 1106 768 1142 768 m 960 708 q 895 553 922 647 l 895 548 l 897 548 q 962 705 962 671 l 962 708 l 960 708 m 1044 705 q 1109 548 1062 631 l 1112 548 l 1112 551 q 1049 705 1105 597 l 1044 705 m 458 369 l 458 363 q 498 269 458 269 q 553 263 537 263 l 564 263 q 862 637 768 263 l 884 689 q 683 621 844 670 q 458 369 458 524 m 1122 689 q 1190 488 1141 650 q 1442 263 1287 263 l 1453 263 q 1540 301 1540 263 q 1548 355 1548 321 l 1548 372 q 1190 662 1548 570 l 1122 689 m 1000 637 q 903 434 1000 622 q 867 279 867 328 l 867 258 q 1003 60 867 132 l 1006 60 q 1141 266 1141 135 q 1017 602 1141 389 l 1006 637 l 1000 637 z "},"n":{"ha":2075,"x_min":231,"x_max":1843,"o":"m 1031 1614 l 1048 1614 q 1072 1511 1066 1614 q 1173 1275 1074 1451 q 1202 1204 1198 1204 q 1414 1278 1257 1234 q 1577 1386 1457 1291 l 1593 1386 q 1615 1370 1608 1386 l 1615 1356 q 1550 1267 1615 1346 q 1460 1034 1505 1202 q 1436 971 1436 987 q 1647 871 1491 952 q 1829 836 1740 836 q 1843 819 1843 822 l 1843 798 q 1737 773 1843 778 q 1506 675 1664 764 q 1433 646 1487 665 l 1433 643 q 1512 418 1467 568 q 1615 271 1546 347 l 1615 247 q 1598 231 1615 243 l 1585 231 q 1506 288 1571 231 q 1319 369 1439 336 q 1200 412 1275 378 q 1105 214 1179 348 q 1064 16 1064 113 q 1037 0 1050 2 q 1004 81 1004 0 q 899 347 1004 161 q 874 412 885 380 q 652 336 817 385 q 497 231 591 310 l 481 231 q 459 252 459 231 l 459 260 q 516 339 459 274 q 592 510 562 402 q 641 646 592 530 q 432 746 616 646 q 245 784 382 768 q 231 803 231 788 l 231 814 q 288 838 231 838 q 549 933 387 838 q 641 974 582 949 q 568 1185 612 1028 q 459 1348 550 1236 l 459 1364 q 481 1386 459 1386 l 489 1386 q 578 1321 502 1386 q 812 1232 648 1275 q 874 1207 862 1207 q 977 1421 892 1263 q 1013 1606 1002 1487 q 1031 1614 1023 1614 m 1034 1419 q 934 1210 1034 1406 q 926 1175 926 1181 q 1034 1077 975 1152 l 1040 1077 q 1126 1161 1076 1129 q 1148 1180 1148 1171 q 1048 1392 1148 1202 q 1040 1419 1040 1413 l 1034 1419 m 606 1237 q 673 1036 622 1200 q 847 830 751 867 q 877 838 862 838 l 877 844 q 852 871 852 852 l 852 879 q 880 903 852 899 l 896 901 l 901 901 l 901 903 q 890 928 890 918 l 890 936 q 912 958 890 958 l 923 958 q 950 947 928 958 l 947 952 l 947 974 q 969 996 947 996 l 977 996 q 1010 968 993 996 q 1015 998 1010 975 q 787 1180 974 1103 q 606 1240 665 1215 l 606 1237 m 1069 1015 q 1078 982 1078 988 q 1102 996 1092 996 l 1110 996 q 1135 968 1131 996 q 1132 947 1135 966 q 1156 958 1148 958 l 1167 958 q 1189 941 1182 958 l 1189 925 q 1178 901 1189 917 l 1186 901 l 1202 903 q 1227 884 1221 899 l 1227 865 l 1216 849 q 1249 841 1240 841 q 1409 1058 1335 884 q 1468 1240 1444 1180 l 1466 1240 q 1251 1166 1426 1223 q 1086 1050 1146 1117 q 1069 1015 1069 1022 m 427 811 l 427 806 q 619 713 443 806 q 671 697 660 697 q 766 806 688 737 l 768 806 l 768 811 q 687 895 718 845 q 665 920 674 920 q 446 817 644 920 l 427 811 m 1400 920 q 1305 808 1400 896 l 1305 806 q 1400 697 1377 753 l 1403 697 q 1620 798 1432 697 q 1647 806 1642 806 l 1647 811 q 1455 903 1589 832 q 1403 920 1415 920 l 1400 920 m 966 806 q 1040 735 966 751 l 1045 735 q 1113 803 1113 754 l 1113 811 q 1037 882 1113 869 q 966 806 979 882 m 1202 779 q 1227 746 1227 760 l 1227 732 q 1200 713 1214 713 q 1178 716 1185 716 q 1189 692 1189 700 l 1189 675 q 1173 659 1189 671 l 1156 659 q 1135 670 1147 659 l 1132 670 l 1135 646 q 1116 621 1135 631 l 1102 621 q 1075 646 1084 621 l 1069 646 q 1061 613 1069 633 q 1267 445 1099 519 q 1468 377 1421 396 l 1468 380 q 1400 581 1455 406 q 1232 784 1322 749 l 1230 784 q 1202 779 1213 779 m 608 377 q 814 448 650 395 q 980 559 905 486 q 1004 602 1004 593 q 996 629 1004 606 l 983 621 l 969 621 q 947 643 947 621 l 947 659 l 950 673 l 928 659 l 912 659 q 890 684 890 659 l 890 689 q 901 713 890 699 l 901 716 l 899 716 l 882 713 q 852 738 852 716 l 852 746 q 863 768 852 755 l 825 776 q 663 553 749 749 q 606 377 635 454 l 608 377 m 923 442 q 1029 217 923 422 l 1034 198 l 1040 198 q 1132 391 1040 214 q 1148 442 1148 431 l 1148 445 q 1040 540 1095 466 l 1037 540 q 923 442 972 465 z "},"o":{"ha":2108,"x_min":189,"x_max":1919,"o":"m 1005 1614 l 1013 1614 q 1133 1430 1064 1599 q 1149 1348 1149 1373 l 1149 1345 l 1152 1345 q 1306 1378 1225 1378 l 1339 1378 q 1567 1335 1455 1378 q 1610 1161 1582 1335 q 1615 1088 1615 1117 q 1586 928 1615 1007 l 1591 928 q 1914 836 1758 928 q 1919 819 1919 827 l 1919 814 q 1737 694 1912 767 q 1634 675 1674 675 l 1580 675 l 1580 673 q 1610 526 1610 603 l 1610 494 q 1569 269 1610 391 q 1374 220 1569 249 q 1322 217 1359 220 q 1141 255 1223 217 q 1059 11 1141 185 q 1035 0 1050 4 q 907 195 987 0 q 894 247 899 247 q 755 222 829 222 l 728 222 q 500 266 613 222 q 463 399 487 266 q 452 513 452 467 q 471 643 452 582 q 199 760 351 643 q 189 781 189 771 l 189 787 q 275 844 189 814 q 500 895 395 895 l 500 898 q 457 1074 457 977 l 457 1107 q 498 1335 457 1211 q 661 1378 528 1356 q 747 1383 732 1383 q 902 1356 825 1383 q 991 1611 929 1514 l 1005 1614 m 959 1326 q 1038 1248 990 1308 q 1095 1313 1053 1273 l 1095 1332 q 1019 1533 1095 1407 l 1016 1533 q 967 1402 987 1481 q 959 1326 959 1366 m 511 1096 q 815 803 511 803 q 940 814 895 803 l 954 860 q 853 933 895 933 l 845 933 q 821 928 838 933 q 829 903 821 921 q 802 876 821 876 l 788 876 q 758 914 762 876 l 758 925 q 850 990 758 981 q 986 911 919 990 q 1002 895 996 895 q 1029 928 1029 895 q 1035 1020 1035 1002 q 875 1308 1035 1240 q 755 1326 811 1326 l 734 1326 q 544 1294 646 1326 q 511 1096 511 1183 m 1067 1180 q 1089 1044 1089 1105 l 1089 1001 q 1081 895 1089 951 q 1116 873 1101 886 q 1176 960 1171 922 l 1176 971 q 1165 998 1173 998 q 1143 990 1164 990 q 1119 1015 1119 994 l 1119 1028 q 1152 1058 1119 1050 l 1173 1058 q 1233 960 1233 1043 q 1179 852 1233 917 l 1184 852 q 1249 854 1216 852 q 1417 830 1316 854 q 1558 1085 1558 898 q 1526 1291 1558 1187 q 1322 1324 1417 1324 q 1067 1180 1131 1324 m 1480 798 q 1545 741 1491 790 q 1618 730 1580 730 q 1838 811 1724 730 l 1838 814 q 1613 871 1706 871 l 1572 871 q 1520 830 1551 871 l 1480 798 m 997 803 l 997 792 q 1035 754 1008 754 l 1048 754 q 1089 803 1080 754 q 1038 846 1089 838 q 997 803 997 836 m 270 781 l 270 776 q 492 700 383 700 q 587 800 536 775 l 587 803 l 544 838 l 492 838 q 270 781 399 838 m 1119 732 q 1219 656 1172 656 l 1227 656 q 1252 665 1247 656 q 1246 681 1246 673 l 1246 697 q 1271 713 1256 713 l 1282 713 q 1314 673 1310 713 l 1314 667 q 1225 600 1314 610 l 1219 600 q 1081 684 1153 600 q 1073 700 1073 696 l 1040 697 q 1032 578 1032 616 q 1195 293 1032 356 q 1312 274 1252 274 l 1325 274 q 1523 309 1432 274 q 1556 507 1556 420 q 1249 798 1556 798 q 1143 787 1143 798 q 1119 732 1143 761 m 509 515 l 509 510 q 541 309 509 410 q 745 277 650 277 q 1000 420 933 277 q 978 559 978 489 l 978 564 q 932 540 960 540 q 864 627 872 540 l 864 643 q 921 754 864 688 q 818 746 881 749 q 652 770 747 746 q 538 665 578 742 q 509 515 509 600 m 970 722 q 918 632 918 666 q 926 602 918 617 q 943 608 935 608 l 954 608 q 972 594 972 608 l 978 594 l 978 605 q 986 713 978 643 q 970 722 976 722 m 1027 353 q 954 277 1010 317 l 951 277 q 1029 81 951 196 q 1089 288 1085 211 q 1029 353 1059 314 l 1027 353 z "},"p":{"ha":2007,"x_min":194,"x_max":1813,"o":"m 913 1619 q 1005 1581 966 1619 q 1095 1619 1042 1619 q 1238 1544 1161 1619 q 1276 1473 1276 1489 l 1279 1473 q 1371 1495 1345 1495 q 1534 1421 1477 1495 q 1548 1378 1548 1390 l 1548 1354 l 1564 1354 q 1675 1259 1638 1354 q 1689 1177 1689 1207 q 1667 1082 1689 1144 q 1781 993 1748 1053 q 1813 901 1813 939 q 1775 808 1813 846 q 1813 716 1813 778 q 1735 572 1813 650 q 1667 537 1682 537 q 1689 439 1689 475 q 1605 274 1689 324 q 1572 266 1580 266 l 1548 266 l 1548 241 q 1493 157 1548 199 q 1369 125 1432 125 q 1276 146 1341 125 l 1276 144 q 1179 27 1248 65 q 1097 0 1128 0 q 1002 38 1040 0 q 910 0 972 0 q 774 71 851 0 q 731 146 747 103 q 636 125 669 125 q 490 179 547 125 q 460 244 460 219 l 460 266 l 444 266 q 332 366 367 266 q 319 442 321 405 q 340 534 319 468 l 340 537 q 227 627 268 561 q 194 719 197 678 q 232 811 194 769 q 197 890 197 841 l 197 909 q 292 1061 197 981 q 340 1085 299 1061 q 319 1177 319 1152 q 373 1324 319 1260 q 438 1354 413 1354 l 460 1354 l 460 1367 q 636 1495 460 1476 q 731 1473 673 1492 q 829 1592 758 1549 q 913 1619 881 1617 m 783 1446 q 970 1218 907 1382 q 1002 1109 1002 1122 l 1005 1109 q 1078 1305 1005 1141 q 1227 1446 1141 1403 q 1135 1552 1204 1517 q 1092 1563 1105 1563 q 1051 1546 1067 1563 l 1051 1544 q 1059 1525 1059 1533 l 1059 1508 q 1035 1492 1050 1492 l 972 1492 q 948 1516 948 1495 l 948 1525 q 959 1546 948 1534 q 910 1563 941 1563 q 807 1497 847 1548 q 783 1446 783 1457 m 514 1362 q 549 1337 549 1362 l 549 1329 q 506 1275 549 1316 q 484 1264 506 1268 l 479 1264 q 452 1299 456 1264 l 449 1299 q 376 1180 376 1276 l 376 1175 q 463 996 376 1111 q 674 876 539 917 q 834 846 775 846 q 897 979 834 902 q 964 1015 946 1015 q 883 1270 964 1094 q 674 1432 831 1373 q 636 1438 652 1438 q 514 1362 534 1438 m 1043 1017 q 1135 958 1080 1017 q 1179 844 1179 895 l 1181 844 q 1474 936 1365 872 q 1572 1031 1535 975 q 1632 1172 1632 1122 l 1632 1185 q 1564 1299 1632 1271 l 1561 1299 q 1553 1297 1556 1297 l 1553 1286 q 1531 1264 1553 1264 l 1523 1264 q 1461 1321 1505 1264 q 1458 1335 1458 1326 q 1493 1362 1458 1358 l 1493 1367 q 1369 1438 1472 1438 q 1184 1345 1301 1438 q 1043 1017 1095 1272 m 251 898 q 270 854 251 871 q 289 865 275 865 l 297 865 q 321 841 321 862 l 321 779 q 305 754 321 764 l 289 754 q 270 762 280 754 l 267 762 q 251 716 251 749 q 313 613 251 679 l 368 586 q 614 781 431 717 q 704 808 650 795 l 704 811 q 500 890 595 837 q 370 1031 414 943 l 368 1031 q 273 960 317 1019 q 251 898 251 916 m 1640 1031 q 1404 841 1581 907 q 1303 811 1316 811 l 1303 808 q 1518 724 1374 797 q 1640 589 1610 654 l 1643 589 q 1740 667 1706 608 q 1756 716 1756 704 l 1756 719 q 1740 762 1756 753 l 1737 762 q 1716 751 1729 755 q 1686 781 1686 758 q 1689 808 1689 805 q 1686 838 1686 832 q 1710 865 1690 865 l 1718 865 q 1740 854 1728 865 q 1756 901 1756 871 l 1756 903 q 1686 1012 1756 950 q 1640 1031 1660 1027 m 888 814 q 978 673 888 716 q 1000 667 988 667 l 1008 667 q 1124 800 1098 667 l 1124 827 q 1032 963 1124 920 q 1008 966 1017 966 l 1005 966 q 891 846 924 966 q 888 814 888 832 m 376 445 q 444 320 376 347 l 449 320 q 460 347 452 320 q 479 355 470 355 q 536 312 502 355 q 549 290 549 305 l 549 282 q 519 258 549 260 q 517 260 519 260 q 514 252 517 258 q 587 190 540 190 q 625 182 602 182 l 642 182 q 850 298 722 182 q 967 616 930 403 q 875 684 902 637 q 837 776 849 708 q 541 686 645 748 q 384 486 445 639 q 376 445 376 461 m 1176 776 q 1105 646 1176 713 q 1040 616 1069 618 q 1165 290 1064 434 q 1366 182 1293 182 l 1379 182 q 1491 239 1455 182 l 1493 252 l 1493 255 l 1491 260 q 1488 258 1488 260 q 1458 288 1458 258 q 1520 355 1458 312 l 1529 355 q 1556 320 1556 355 l 1561 320 q 1632 434 1632 344 l 1632 448 q 1518 654 1632 525 q 1176 776 1358 757 m 1002 510 q 929 315 994 447 q 783 171 890 239 l 783 168 q 886 62 810 96 q 910 57 903 57 l 913 57 q 959 76 949 57 q 948 95 948 81 l 948 103 q 981 127 948 127 l 1029 127 q 1059 111 1050 127 l 1059 87 l 1051 76 l 1051 73 q 1089 57 1051 63 l 1097 57 q 1211 136 1149 57 l 1227 174 q 1032 420 1099 233 q 1005 510 1010 484 l 1002 510 z "},"q":{"ha":2020,"x_min":203,"x_max":1817,"o":"m 1011 1614 q 1190 1462 1052 1613 q 1247 1378 1214 1430 q 1413 1400 1333 1400 l 1434 1400 q 1584 1375 1584 1393 q 1603 1232 1595 1375 l 1603 1210 q 1581 1044 1603 1131 q 1787 863 1664 1004 q 1817 811 1817 822 l 1817 806 q 1611 589 1777 709 l 1581 570 q 1603 404 1603 483 l 1603 382 q 1581 236 1596 236 q 1442 214 1581 222 l 1410 214 q 1247 236 1331 214 q 1065 33 1200 144 q 1014 0 1027 0 l 1011 0 q 873 103 980 0 q 772 236 808 174 q 610 214 688 214 l 583 214 q 436 239 436 220 q 417 382 417 298 l 417 404 q 439 570 417 484 q 279 697 384 595 q 203 808 203 784 q 314 952 203 838 q 436 1044 366 999 q 417 1210 417 1149 l 417 1232 q 441 1383 425 1383 q 585 1400 509 1400 l 607 1400 q 775 1381 664 1400 l 775 1383 q 876 1514 810 1442 q 1011 1614 980 1614 m 832 1367 l 832 1362 q 1011 1286 918 1339 q 1187 1364 1076 1326 q 1063 1511 1160 1419 l 1011 1552 l 1008 1552 q 832 1367 876 1450 m 471 1221 q 569 854 471 1044 l 572 854 q 800 966 707 966 q 859 958 831 963 q 851 1017 854 987 q 962 1245 851 1109 l 962 1248 q 591 1345 772 1345 q 482 1329 482 1341 q 471 1221 471 1281 m 908 1017 q 924 939 908 981 q 960 955 937 955 q 1011 968 960 961 q 1071 952 1057 962 q 1101 936 1089 952 q 1128 911 1117 936 q 1152 879 1142 911 q 1166 844 1159 879 q 1171 838 1171 843 l 1171 825 q 1168 814 1171 819 q 1171 803 1171 809 l 1171 795 q 1155 735 1167 758 q 1149 722 1155 728 l 1149 719 q 1215 705 1190 705 l 1220 705 q 1426 819 1301 705 q 1548 1226 1548 1013 q 1535 1335 1543 1335 q 1423 1345 1466 1345 q 1044 1240 1237 1345 q 908 1028 947 1170 l 908 1017 m 265 808 l 265 806 q 455 629 357 681 l 455 632 q 531 808 480 718 q 455 985 480 892 l 450 985 q 265 808 367 941 m 1565 982 q 1486 806 1535 883 q 1567 629 1520 762 q 1754 811 1693 710 q 1597 966 1670 916 q 1565 982 1577 982 m 471 388 q 493 277 471 277 q 593 269 563 269 q 965 369 777 269 q 1106 567 1059 426 q 1112 597 1112 578 l 1112 602 q 1098 667 1112 627 q 1063 651 1088 667 q 1027 643 1044 651 q 1014 648 1014 646 l 998 643 q 932 667 951 651 q 908 686 918 667 q 884 713 890 686 q 865 746 869 713 q 851 792 859 746 q 854 822 851 804 q 851 830 851 827 l 867 879 q 876 882 873 882 l 876 890 q 805 909 846 909 l 802 909 q 593 795 715 909 q 477 472 515 698 q 471 388 471 431 m 968 808 q 1008 762 977 762 l 1011 762 q 1055 808 1048 762 q 1008 849 1055 839 q 968 808 982 849 m 1217 648 q 1160 656 1188 651 l 1168 600 q 1057 369 1168 507 l 1057 366 q 1432 269 1246 269 q 1540 290 1540 269 q 1548 393 1548 357 q 1451 760 1548 568 l 1448 760 q 1217 648 1310 648 m 832 252 l 832 247 q 1014 62 922 114 q 1168 220 1118 146 q 1185 252 1185 239 q 1008 328 1074 288 l 1006 328 q 835 252 954 292 l 832 252 z "},"r":{"ha":1890,"x_min":229,"x_max":1661,"o":"m 928 1617 l 953 1617 q 1121 1413 1063 1617 q 1137 1280 1137 1346 l 1137 1237 q 1124 1123 1137 1183 l 1126 1123 q 1506 1291 1316 1291 q 1655 1204 1619 1291 q 1661 1164 1661 1179 q 1447 882 1661 1025 q 1273 808 1331 815 l 1273 803 q 1585 570 1470 736 q 1636 423 1636 491 q 1550 307 1636 340 q 1487 298 1516 298 q 1129 472 1322 298 l 1129 469 q 1137 382 1137 422 l 1137 339 q 1029 33 1137 144 q 945 0 987 0 q 758 260 808 0 q 752 334 752 303 l 752 374 q 760 475 752 417 q 397 298 574 298 q 253 412 273 298 l 253 426 q 503 754 253 584 q 616 803 600 803 l 616 808 q 326 971 491 828 q 229 1166 229 1075 q 321 1283 229 1249 q 391 1291 355 1291 q 763 1123 570 1291 l 766 1123 q 752 1245 752 1181 l 752 1286 q 844 1571 752 1452 q 928 1617 894 1617 m 806 1256 q 850 1044 806 1149 q 945 1063 911 1063 q 1040 1044 978 1063 q 1083 1264 1083 1145 q 994 1541 1083 1444 q 939 1563 970 1563 q 825 1413 880 1563 q 806 1256 806 1335 m 286 1172 l 286 1158 q 473 928 286 1061 q 711 849 615 849 q 777 993 711 910 q 787 1004 781 993 q 459 1229 700 1151 l 389 1237 q 291 1194 318 1237 q 286 1172 286 1183 m 1102 1001 q 1175 865 1148 972 l 1178 849 q 1493 985 1318 849 q 1604 1158 1604 1088 l 1604 1175 q 1514 1234 1588 1234 l 1501 1237 q 1154 1072 1341 1237 q 1102 1001 1102 1011 m 768 838 l 768 817 q 877 662 768 720 q 939 648 910 648 l 950 648 q 1118 787 1067 648 q 1121 817 1121 805 l 1121 838 q 1004 996 1121 940 q 950 1006 977 1006 l 939 1006 q 771 868 822 1006 q 768 838 768 850 m 310 431 l 310 418 q 386 355 321 355 l 418 355 q 706 499 530 355 q 804 640 800 602 q 720 765 750 672 l 720 768 q 440 637 604 768 q 310 431 310 515 m 1170 768 q 1091 646 1145 681 q 1086 635 1086 639 q 1387 374 1171 459 q 1471 355 1437 355 l 1482 355 q 1485 353 1485 355 l 1490 355 l 1501 355 q 1579 418 1569 355 l 1579 431 q 1422 659 1579 525 q 1170 768 1272 768 m 869 605 q 806 358 806 503 q 899 76 806 169 q 937 57 924 57 l 953 57 q 1056 179 1003 57 q 1083 363 1083 266 q 1018 605 1083 509 q 945 591 991 595 q 869 605 903 594 z "},"s":{"ha":2013,"x_min":198,"x_max":1815,"o":"m 1248 1617 l 1256 1617 q 1408 1506 1366 1617 q 1413 1454 1413 1468 q 1261 1099 1413 1328 l 1261 1096 q 1402 1120 1331 1120 l 1408 1120 q 1614 1066 1596 1105 q 1617 1053 1617 1061 q 1506 871 1603 985 q 1424 803 1435 803 l 1424 798 q 1815 567 1815 736 l 1815 559 q 1704 407 1815 451 q 1652 401 1666 401 q 1297 553 1526 401 l 1294 553 q 1326 391 1326 477 q 1259 179 1310 179 q 998 388 1088 245 l 996 388 q 768 0 931 0 l 757 0 q 613 92 660 0 q 600 160 600 125 q 732 494 600 279 q 616 472 671 472 l 583 472 q 385 537 385 490 q 572 789 427 671 q 613 811 610 811 l 613 814 q 198 1050 198 878 l 198 1053 q 312 1210 198 1173 q 358 1215 347 1215 q 692 1080 482 1215 l 694 1080 q 675 1202 681 1119 q 727 1405 694 1384 q 741 1411 727 1410 l 746 1411 q 979 1245 848 1385 q 1012 1199 1009 1199 q 1248 1617 1074 1617 m 1047 928 l 1061 925 q 1356 1454 1356 1293 l 1356 1465 q 1253 1563 1356 1546 q 1050 1031 1098 1563 q 1047 928 1047 1027 m 757 1343 q 732 1196 732 1267 q 822 990 743 1028 q 922 914 916 914 q 987 936 941 926 q 998 1090 987 946 q 757 1345 939 1258 l 757 1343 m 252 1053 q 581 876 252 938 q 865 846 779 846 l 879 873 q 361 1158 516 1158 l 350 1158 q 263 1096 288 1158 q 252 1053 258 1090 m 1109 887 q 1145 827 1122 882 q 1326 811 1273 819 q 1552 1039 1468 875 q 1405 1066 1468 1066 q 1172 977 1276 1066 q 1109 892 1170 970 l 1109 887 m 911 779 q 1004 697 932 697 q 1093 789 1074 697 q 1004 879 1076 879 l 998 879 q 911 806 937 879 l 911 779 m 453 551 q 602 526 536 526 q 806 597 713 526 q 884 697 855 665 q 852 792 859 735 q 732 800 811 792 q 524 665 612 768 q 453 551 453 572 m 1147 770 q 1142 738 1142 749 q 1652 458 1497 458 l 1663 458 q 1761 564 1743 458 q 1427 741 1761 681 q 1147 770 1314 762 m 1023 643 q 1009 491 1017 534 q 1218 258 1060 353 q 1245 250 1236 250 q 1270 374 1270 317 l 1270 410 q 1112 689 1270 569 q 1023 643 1071 652 m 925 659 q 656 163 656 316 l 656 152 q 762 54 656 71 q 936 369 874 54 q 966 635 966 545 l 968 646 l 925 659 z "},"t":{"ha":2014,"x_min":200,"x_max":1814,"o":"m 1011 1614 q 1060 1519 1037 1614 q 1152 1166 1122 1352 l 1155 1166 q 1434 1251 1266 1251 q 1467 1218 1467 1251 q 1388 955 1467 1093 l 1388 949 q 1803 833 1593 911 q 1814 811 1814 821 l 1814 806 q 1719 754 1814 778 q 1369 662 1434 662 l 1369 659 q 1461 388 1461 541 l 1461 361 q 1429 334 1461 338 q 1160 415 1310 334 q 1149 423 1160 419 q 1038 27 1114 241 q 1008 0 1027 0 l 1003 0 q 954 92 977 0 q 865 426 865 366 l 862 426 q 585 339 748 339 l 574 339 q 547 366 547 342 l 547 372 q 642 662 547 517 q 224 776 572 662 q 200 803 200 787 l 200 811 q 292 860 200 838 q 626 949 564 949 l 626 955 q 550 1221 550 1067 q 583 1256 554 1256 q 848 1177 699 1256 q 859 1169 848 1173 q 946 1506 895 1348 q 998 1614 981 1614 l 1011 1614 m 903 1025 l 903 1015 q 916 949 903 949 q 965 922 964 930 q 1003 928 985 928 l 1006 928 q 1049 925 1021 928 q 1106 958 1106 953 q 1112 1020 1112 994 q 1008 1503 1112 1189 q 954 1340 1002 1503 q 903 1025 903 1140 m 607 1199 l 607 1194 q 694 960 607 1072 q 794 968 732 966 q 846 966 814 966 q 848 963 846 963 q 851 966 848 966 q 848 974 848 971 q 846 1020 848 999 l 851 1104 q 607 1199 742 1184 m 1163 1101 q 1166 1034 1166 1057 l 1166 996 l 1163 963 q 1171 966 1168 966 q 1223 968 1197 966 q 1323 960 1276 966 q 1402 1142 1380 1036 q 1410 1194 1407 1170 l 1402 1194 q 1163 1101 1278 1194 m 311 806 q 797 703 624 703 q 886 713 830 703 q 867 787 871 751 q 908 890 867 838 l 908 892 q 800 911 859 911 l 789 911 q 311 808 617 911 l 311 806 m 1106 890 q 1149 789 1149 848 q 1131 713 1149 759 l 1133 713 q 1220 703 1175 703 q 1703 806 1387 703 l 1703 808 q 1217 911 1396 911 q 1106 890 1124 909 m 924 795 l 924 789 q 989 705 924 731 q 1008 703 998 705 q 1093 781 1093 720 l 1093 789 q 1006 873 1093 861 q 924 795 924 855 m 903 597 q 1006 111 903 418 l 1008 111 q 1112 597 1112 425 q 1095 667 1112 667 l 1082 670 q 1008 648 1055 648 q 930 670 970 648 q 903 621 903 670 l 903 597 m 707 651 q 640 543 666 602 q 604 396 607 451 l 612 396 q 854 494 742 396 q 846 591 848 536 q 848 648 848 617 q 851 651 851 648 l 819 648 l 789 648 q 707 651 762 648 m 1163 651 l 1166 618 l 1166 583 q 1163 486 1163 523 q 1383 393 1235 423 q 1407 391 1397 393 q 1299 651 1407 534 q 1239 648 1258 648 l 1196 648 l 1163 651 z "},"u":{"ha":2007,"x_min":196,"x_max":1810,"o":"m 1007 1614 q 1053 1527 1032 1614 q 1080 1446 1057 1527 q 1254 1522 1157 1495 q 1354 1370 1305 1505 q 1371 1302 1365 1339 l 1373 1302 q 1555 1386 1533 1386 l 1558 1386 q 1579 1364 1579 1386 l 1579 1351 q 1490 1164 1579 1338 l 1493 1164 q 1655 1099 1591 1141 q 1661 1082 1661 1090 l 1661 1077 q 1607 895 1661 1003 l 1609 895 q 1802 830 1738 857 q 1810 811 1810 820 l 1810 806 q 1715 754 1810 778 q 1596 716 1678 739 l 1639 624 q 1661 559 1661 573 l 1661 540 q 1495 445 1619 486 l 1579 269 l 1579 244 q 1566 231 1579 241 l 1544 231 q 1368 315 1510 242 l 1365 315 q 1284 149 1324 149 q 1091 206 1210 149 q 1013 0 1033 0 l 999 0 q 953 84 973 0 q 915 187 919 184 q 730 98 802 111 l 717 98 q 622 244 683 98 q 608 301 608 285 q 459 231 471 231 l 446 231 q 424 252 424 231 l 424 255 q 516 453 424 277 l 513 453 q 315 521 455 453 q 307 543 307 534 q 361 730 307 615 q 196 798 196 779 l 196 811 q 280 857 196 837 q 375 890 280 860 q 307 1047 315 996 l 307 1055 q 478 1161 307 1097 q 513 1169 513 1166 q 424 1359 424 1337 l 424 1362 q 448 1386 427 1386 l 451 1386 q 627 1305 481 1381 q 717 1492 672 1492 q 915 1424 827 1480 l 918 1424 q 991 1614 975 1614 l 1007 1614 m 899 1025 l 899 1015 q 923 903 899 935 q 999 928 959 928 l 1010 928 q 1088 906 1040 928 q 1107 1023 1107 962 q 1004 1503 1107 1189 q 947 1332 999 1503 q 899 1025 899 1135 m 1099 1386 q 1151 1166 1124 1303 q 1316 1272 1315 1272 l 1316 1275 q 1246 1459 1316 1351 q 1099 1386 1181 1447 m 679 1275 q 852 1166 774 1223 l 855 1166 q 899 1367 871 1252 l 896 1367 q 733 1432 798 1432 q 679 1275 690 1360 m 1159 1101 q 1162 1034 1162 1057 l 1162 996 l 1159 963 q 1167 966 1164 966 q 1219 968 1193 966 l 1295 963 q 1495 1299 1417 1133 l 1493 1299 q 1159 1101 1324 1219 m 513 1294 q 706 968 588 1137 q 711 963 711 968 l 790 968 q 842 966 810 966 q 844 963 842 963 q 847 966 844 966 q 844 974 844 971 q 842 1023 844 997 l 847 1099 q 519 1297 687 1215 q 513 1294 513 1297 m 367 1042 q 435 906 394 961 q 644 955 511 930 l 644 958 l 541 1115 q 367 1042 468 1115 m 1460 1112 q 1360 955 1413 1033 q 1550 914 1436 941 q 1604 1063 1598 991 q 1460 1112 1499 1112 m 307 806 q 793 703 620 703 q 861 716 861 703 l 871 743 q 863 787 866 766 q 880 857 866 819 q 852 906 859 906 q 795 911 838 911 l 785 911 q 307 808 613 911 l 307 806 m 1126 860 q 1145 789 1145 821 q 1137 738 1145 777 q 1173 705 1137 705 q 1216 703 1200 703 q 1699 806 1383 703 l 1699 808 q 1213 911 1392 911 q 1143 895 1143 911 q 1126 860 1143 890 m 920 795 l 920 789 q 985 705 920 731 q 1004 703 994 705 q 1088 781 1088 720 l 1088 789 q 1002 873 1088 861 q 920 795 920 855 m 418 711 q 367 559 367 621 q 535 507 477 507 l 546 507 l 644 662 l 641 662 q 418 711 565 673 m 1362 662 l 1362 656 q 1466 496 1407 593 q 1601 562 1509 496 l 1601 564 q 1536 697 1580 631 l 1533 697 q 1362 662 1450 675 m 909 684 q 899 600 899 651 l 899 597 q 1002 111 899 418 l 1004 111 q 1107 597 1107 425 q 1097 681 1107 637 q 1004 648 1055 648 q 909 684 951 648 m 709 651 q 511 315 587 481 q 847 515 677 393 l 842 591 q 844 648 844 617 q 847 651 847 648 l 814 648 l 777 648 q 709 651 753 648 m 1159 651 l 1162 618 l 1162 575 q 1159 515 1162 556 q 1487 317 1297 413 q 1493 320 1493 317 q 1303 643 1420 473 q 1295 651 1299 643 q 1235 648 1254 648 l 1192 648 l 1159 651 m 660 326 q 733 157 660 262 q 899 250 836 190 l 899 252 q 855 450 869 371 q 660 328 774 393 l 660 326 m 1148 448 q 1110 266 1148 422 q 1267 206 1171 222 q 1316 345 1301 271 q 1154 448 1221 399 l 1148 448 z "},"v":{"ha":2013,"x_min":195,"x_max":1817,"o":"m 1251 1614 l 1270 1614 q 1340 1516 1308 1581 q 1392 1332 1392 1413 q 1381 1253 1389 1289 l 1383 1253 q 1473 1270 1430 1270 l 1487 1270 q 1752 1188 1604 1270 q 1761 1164 1761 1173 q 1695 958 1761 1090 q 1606 857 1677 919 l 1606 854 q 1736 738 1672 833 q 1817 551 1817 590 q 1644 437 1801 498 q 1527 418 1583 418 q 1484 420 1523 418 q 1495 339 1495 372 q 1413 71 1495 223 q 1389 60 1401 60 q 1172 130 1259 77 q 1077 220 1137 150 l 1074 220 q 952 79 1047 141 q 765 0 833 10 q 651 179 715 16 q 635 290 635 238 q 640 347 635 303 q 532 323 589 323 l 529 323 q 255 404 407 323 q 247 429 247 421 q 328 662 262 562 q 404 738 361 703 q 225 949 299 783 q 195 1044 195 1021 q 388 1164 195 1090 q 480 1175 441 1175 q 559 1166 509 1175 q 548 1237 548 1196 l 548 1259 q 629 1519 548 1366 l 648 1525 q 909 1427 770 1525 q 947 1389 909 1423 q 1074 1538 972 1470 q 1251 1614 1216 1614 m 993 1329 l 993 1308 q 1023 1310 1004 1308 q 1308 1223 1173 1310 q 1335 1335 1335 1270 q 1248 1554 1335 1435 l 1245 1554 q 993 1329 993 1461 m 665 1468 q 602 1242 602 1335 q 646 1128 602 1172 q 798 1253 724 1220 q 933 1299 895 1299 q 836 1408 909 1360 q 665 1468 728 1468 m 589 814 q 808 437 589 583 q 1012 380 914 380 l 1047 380 q 1367 543 1220 380 q 1465 817 1465 672 q 1245 1196 1465 1046 q 1031 1253 1135 1253 l 1025 1253 q 646 1031 788 1253 q 589 814 589 926 m 1367 1175 q 1495 968 1482 1048 q 1516 876 1508 934 q 1652 996 1598 906 q 1704 1150 1704 1109 q 1481 1215 1573 1215 q 1367 1175 1407 1215 m 255 1028 q 486 776 351 776 q 534 784 526 784 l 534 825 q 608 1077 534 957 l 608 1082 q 480 1120 539 1120 q 255 1031 374 1120 l 255 1028 m 1519 817 l 1519 811 q 1419 515 1519 656 q 1516 475 1454 475 l 1541 475 q 1755 562 1640 475 l 1755 564 q 1527 817 1663 817 l 1519 817 m 307 442 l 307 439 q 526 377 447 377 q 678 467 631 377 q 556 667 578 577 q 540 727 541 726 q 353 594 439 727 q 307 442 307 495 m 1370 464 q 1175 345 1274 371 q 1093 328 1112 328 q 1194 184 1118 238 q 1375 119 1291 125 q 1438 331 1438 246 l 1438 353 q 1370 464 1438 441 m 692 293 l 692 274 q 776 60 692 184 q 1034 290 1034 153 q 1031 323 1034 295 q 735 418 866 323 q 692 293 692 367 z "},"w":{"ha":2013,"x_min":198,"x_max":1815,"o":"m 987 1617 l 1012 1617 q 1234 1503 1177 1617 q 1259 1386 1259 1453 q 1077 882 1259 1198 l 1077 879 q 1587 1061 1398 1061 q 1807 895 1763 1061 q 1815 814 1815 847 l 1815 789 q 1638 545 1815 582 q 1595 543 1611 543 l 1576 543 q 1090 716 1403 543 l 1090 713 q 1259 225 1259 410 q 1131 22 1259 73 q 1012 0 1078 0 l 987 0 q 743 176 780 0 q 741 220 741 204 l 741 233 q 903 705 741 409 l 901 705 q 431 543 608 543 l 418 543 q 220 667 274 543 q 198 795 198 722 l 198 808 q 431 1061 198 1061 q 914 892 602 1061 q 741 1383 741 1203 l 741 1397 q 890 1603 741 1557 q 987 1617 934 1617 m 795 1383 q 971 906 795 1224 l 1009 909 q 1025 906 1011 909 q 1202 1373 1202 1218 l 1202 1400 q 1088 1552 1202 1516 q 1001 1563 1052 1560 q 795 1383 795 1563 m 252 803 q 429 597 252 597 q 903 770 590 597 q 898 800 900 795 q 903 830 901 825 q 442 1004 597 1004 l 420 1004 q 252 803 252 1004 m 1104 827 l 1107 800 q 1104 773 1104 777 q 1584 597 1422 597 q 1761 803 1761 597 q 1595 1004 1761 1004 l 1579 1004 q 1104 827 1409 1004 m 955 803 l 955 800 q 1006 749 964 749 q 1050 795 1050 766 l 1050 808 q 1004 852 1050 842 l 1001 852 q 955 803 963 852 m 966 700 q 795 231 795 393 q 1001 54 795 54 q 1196 171 1162 54 q 1202 212 1202 197 l 1202 239 q 1034 697 1202 399 l 1006 694 l 998 694 q 966 700 985 694 z "},"x":{"ha":2014,"x_min":199,"x_max":1815,"o":"m 988 1617 l 1013 1617 q 1235 1503 1178 1617 q 1259 1386 1259 1453 q 1238 1237 1259 1333 l 1240 1237 q 1311 1242 1276 1242 l 1338 1242 q 1441 1221 1441 1242 q 1466 1080 1466 1156 q 1457 1004 1466 1057 q 1783 841 1556 973 q 1815 803 1815 819 q 1764 754 1815 776 q 1433 589 1613 656 l 1433 586 q 1457 448 1457 517 l 1457 415 q 1428 309 1457 309 q 1311 290 1369 290 l 1254 290 q 1259 225 1259 273 q 1132 22 1259 73 q 1013 0 1078 0 l 988 0 q 744 176 781 0 q 741 220 741 204 l 741 233 q 747 309 741 262 q 625 290 693 290 l 592 290 q 489 317 489 290 q 467 450 467 393 q 511 616 467 536 q 207 779 366 678 l 199 800 q 250 849 199 827 q 551 1004 386 937 l 551 1006 q 527 1164 527 1078 q 557 1283 527 1283 q 692 1302 627 1302 q 749 1297 721 1302 q 741 1383 741 1344 l 741 1397 q 890 1603 741 1557 q 988 1617 935 1617 m 795 1383 q 975 903 795 1221 q 1013 909 995 909 l 1026 906 q 1202 1373 1202 1218 l 1202 1400 q 1088 1552 1202 1516 q 1002 1563 1053 1560 q 795 1383 795 1563 m 587 1234 q 584 1194 584 1207 l 584 1145 q 606 1023 584 1079 q 817 1061 718 1061 l 828 1061 l 828 1063 q 763 1237 795 1133 q 703 1245 730 1245 l 673 1245 q 587 1234 645 1245 m 1170 1058 q 1205 1061 1193 1061 q 1403 1025 1287 1061 q 1409 1074 1409 1039 l 1409 1088 q 1384 1185 1409 1185 q 1324 1188 1372 1185 q 1211 1161 1211 1188 q 1170 1058 1211 1152 m 280 800 q 804 597 625 597 q 855 613 855 597 q 923 735 890 684 q 904 795 904 768 l 904 808 q 926 873 904 836 l 858 998 q 814 1004 846 1004 l 798 1004 q 280 800 612 1004 m 1078 882 q 1110 800 1110 848 l 1110 798 q 1083 727 1110 760 q 1151 605 1146 610 q 1211 597 1163 600 q 1693 776 1376 597 q 1734 803 1731 798 q 1224 1004 1390 1004 l 1202 1004 q 1132 977 1132 1004 l 1078 882 m 958 798 q 1007 749 972 749 l 1010 749 q 1053 798 1053 764 l 1053 811 q 1013 852 1046 845 l 1002 852 q 958 798 958 842 m 966 700 q 795 231 795 393 q 1002 54 795 54 q 1197 171 1163 54 q 1202 212 1202 197 l 1202 239 q 1034 697 1202 399 l 1015 694 l 1004 694 q 966 700 996 694 m 565 591 q 524 456 524 532 l 524 453 q 543 347 529 347 q 611 345 601 345 q 768 393 768 353 q 823 543 789 469 l 795 543 q 565 591 717 543 m 1213 543 l 1178 543 l 1178 540 q 1246 350 1211 469 q 1297 345 1263 345 q 1400 363 1392 350 q 1403 431 1400 379 q 1379 570 1403 506 l 1376 570 q 1213 543 1286 543 z "},"y":{"ha":2013,"x_min":198,"x_max":1815,"o":"m 1009 1617 q 1142 1470 1078 1590 q 1175 1386 1161 1435 q 1427 1432 1299 1432 l 1468 1432 q 1630 1402 1630 1432 q 1663 1199 1663 1293 l 1663 1158 q 1619 966 1663 1065 q 1788 854 1688 949 q 1815 808 1815 825 q 1723 738 1815 781 q 1584 670 1668 706 q 1641 391 1641 551 l 1641 369 q 1609 195 1641 195 q 1402 163 1498 163 l 1375 163 q 1166 209 1276 163 q 1012 0 1112 52 l 1009 0 q 952 62 980 0 q 868 236 905 138 l 865 236 q 589 184 749 184 q 404 214 404 184 q 372 423 372 332 l 372 445 q 426 670 372 572 q 366 697 425 675 q 203 792 256 749 q 198 808 198 801 q 347 947 216 873 q 437 979 383 963 q 393 1237 393 1088 l 393 1242 q 423 1421 393 1421 q 618 1454 534 1454 l 670 1454 q 876 1402 774 1454 q 982 1606 916 1502 q 1009 1617 992 1615 m 876 1139 q 914 974 876 1044 q 998 993 954 993 l 1012 993 q 1069 982 1036 993 q 1137 1259 1137 1135 q 1015 1546 1137 1428 q 876 1139 876 1323 m 456 1373 q 448 1242 448 1248 q 494 990 448 1097 q 553 993 534 993 l 559 993 q 854 925 692 993 q 865 939 863 939 q 822 1142 822 1029 q 854 1348 822 1227 q 646 1400 767 1400 q 456 1373 553 1400 m 1188 1329 q 1191 1256 1191 1279 l 1191 1253 q 1120 952 1191 1124 q 1156 922 1150 922 q 1454 993 1314 993 q 1563 982 1511 993 q 1609 1183 1609 1065 q 1581 1370 1609 1272 q 1443 1378 1492 1378 q 1188 1329 1302 1378 m 865 800 q 958 675 865 721 q 1001 667 991 667 q 1134 779 1096 667 l 1137 803 q 1028 936 1137 897 q 1001 939 1025 936 q 868 827 904 939 q 865 800 865 804 m 269 817 q 675 678 490 678 q 833 708 745 678 q 811 795 811 762 l 811 806 q 822 876 811 833 q 578 936 679 936 l 540 936 q 269 817 384 936 m 1180 868 q 1191 806 1191 843 l 1191 795 q 1172 713 1191 764 q 1337 678 1254 678 q 1744 817 1521 678 q 1478 936 1624 936 l 1435 936 q 1180 871 1326 936 l 1180 868 m 1134 667 l 1123 654 q 1191 363 1191 496 l 1191 358 q 1183 269 1191 302 q 1392 217 1272 217 q 1579 244 1468 217 q 1587 385 1587 342 q 1527 654 1587 547 q 1351 624 1432 624 l 1329 624 q 1134 667 1232 624 m 684 624 l 662 624 q 483 654 584 624 q 426 437 426 563 q 464 247 437 247 q 559 241 510 241 l 616 241 q 849 290 741 241 l 849 293 q 822 475 822 389 q 854 656 822 569 l 852 656 q 684 624 768 624 m 906 632 q 876 477 876 548 q 1015 71 876 292 q 1137 358 1137 191 q 1072 627 1137 482 q 1009 613 1040 613 l 998 613 q 906 635 956 613 l 906 632 z "},"z":{"ha":1841,"x_min":112,"x_max":1729,"o":"m 912 1617 l 923 1617 q 994 1527 969 1617 q 1078 1600 1038 1600 l 1080 1600 q 1132 1554 1117 1600 q 1143 1530 1139 1530 q 1208 1563 1168 1563 q 1259 1484 1252 1563 l 1259 1473 q 1257 1446 1257 1449 q 1335 1487 1310 1487 l 1354 1487 q 1395 1430 1390 1487 l 1395 1421 q 1390 1378 1395 1409 q 1449 1394 1426 1394 l 1460 1394 q 1506 1345 1499 1394 l 1506 1343 q 1479 1261 1506 1312 q 1547 1272 1516 1272 q 1607 1223 1607 1267 l 1607 1218 q 1585 1164 1607 1198 l 1585 1161 l 1593 1161 q 1666 1115 1666 1155 l 1666 1101 q 1609 1023 1666 1065 l 1609 1020 q 1715 949 1715 1010 q 1655 879 1715 921 q 1729 808 1729 852 q 1639 735 1729 759 l 1639 730 q 1712 646 1712 693 q 1639 589 1712 606 q 1674 524 1674 553 q 1626 472 1674 489 l 1593 469 l 1574 469 l 1555 472 q 1598 382 1598 422 q 1541 334 1598 334 l 1533 334 q 1490 339 1521 334 l 1490 336 q 1506 274 1506 300 q 1457 222 1500 222 q 1373 247 1423 222 l 1373 244 q 1384 182 1384 205 q 1335 122 1377 122 q 1273 144 1304 122 q 1219 60 1273 60 q 1129 119 1181 60 q 1067 14 1121 14 l 1059 14 q 988 73 1031 14 q 920 0 965 0 q 844 92 869 0 l 842 92 q 760 16 805 16 q 701 90 713 16 q 635 54 664 54 q 581 138 581 54 l 581 171 q 500 130 528 130 q 443 190 443 130 q 451 239 446 214 q 389 222 408 222 l 383 222 q 334 266 334 229 l 334 279 q 359 355 334 311 l 356 355 q 291 345 319 345 q 234 391 234 351 l 234 404 q 253 453 235 425 l 253 456 l 250 456 q 172 510 172 456 q 229 597 172 550 l 229 600 l 226 600 q 125 659 125 608 l 125 667 q 185 738 125 703 l 185 741 q 112 806 112 762 l 112 814 q 201 884 112 857 l 201 887 q 128 966 128 922 l 128 971 q 199 1028 128 1014 q 166 1093 166 1063 q 250 1147 166 1147 l 280 1147 l 280 1150 q 242 1223 242 1198 l 242 1240 q 288 1283 242 1277 l 302 1286 q 351 1278 307 1286 l 351 1280 q 334 1337 334 1311 l 334 1354 q 380 1394 334 1387 l 391 1394 q 467 1370 417 1394 q 456 1435 456 1400 l 456 1438 q 503 1495 456 1495 l 508 1495 q 568 1473 536 1495 q 622 1557 568 1557 q 709 1500 656 1557 q 752 1598 719 1586 q 771 1603 752 1603 l 782 1603 q 847 1544 814 1603 q 869 1587 849 1544 q 912 1617 892 1617 m 918 1557 q 888 1457 890 1504 q 923 1324 915 1373 l 926 1324 l 956 1438 q 920 1557 956 1487 l 918 1557 m 774 1544 q 763 1451 763 1503 q 861 977 763 1277 q 893 982 880 982 l 907 982 l 912 985 q 836 1430 886 1312 q 777 1544 813 1505 l 774 1544 m 1075 1541 q 994 1364 1030 1491 q 953 1158 953 1206 l 964 1031 l 966 1031 q 1050 1199 1050 1187 q 1088 1454 1088 1350 l 1088 1473 q 1075 1541 1086 1541 m 1132 1310 l 1132 1308 l 1135 1308 q 1192 1392 1192 1381 q 1202 1473 1202 1439 l 1202 1497 q 1197 1503 1202 1503 q 1143 1413 1143 1461 q 1132 1310 1143 1394 m 625 1497 q 622 1478 625 1489 q 660 1386 622 1408 q 717 1313 662 1379 l 717 1316 q 676 1443 717 1411 q 627 1497 672 1461 l 625 1497 m 511 1438 l 511 1435 q 698 1077 522 1311 l 790 1001 l 793 1001 q 725 1196 753 1162 q 554 1411 669 1295 q 511 1438 522 1438 m 994 955 q 1026 928 997 955 q 1333 1386 1276 1207 q 1341 1430 1341 1418 l 1338 1430 q 1183 1280 1286 1411 q 994 960 1059 1103 l 994 955 m 389 1340 l 389 1337 q 456 1237 427 1237 q 557 1180 553 1180 q 497 1280 502 1280 q 389 1340 420 1337 m 1289 1172 l 1292 1172 q 1392 1232 1392 1229 q 1449 1340 1449 1311 q 1346 1270 1346 1301 l 1289 1172 m 299 1229 q 513 1025 328 1154 q 766 887 743 887 q 787 928 766 896 q 299 1229 456 1215 m 1110 936 l 1110 933 l 1270 982 q 1525 1177 1395 1048 q 1550 1215 1544 1204 l 1541 1215 q 1186 1031 1423 1206 q 1110 936 1183 1022 m 1422 1009 q 1528 1034 1528 1019 q 1609 1104 1564 1048 l 1579 1104 q 1503 1074 1516 1104 q 1422 1009 1425 1015 m 226 1090 l 226 1088 q 286 1034 243 1060 q 421 1020 327 1034 q 318 1085 351 1085 q 261 1090 284 1090 l 226 1090 m 188 968 l 188 966 q 364 882 208 933 q 568 841 429 863 q 698 852 672 852 q 508 944 547 944 q 288 977 380 977 l 248 977 q 188 968 222 977 m 1056 857 l 1056 817 l 1059 817 q 1555 895 1290 817 q 1655 952 1632 926 q 1566 966 1626 966 q 1056 857 1379 966 m 812 836 l 812 830 q 907 738 812 752 q 1002 836 986 738 q 926 925 1002 897 q 907 928 915 928 q 812 836 812 913 m 172 808 l 172 806 q 272 776 243 776 q 402 814 334 798 l 402 817 q 296 846 382 817 q 172 808 201 832 m 1436 806 l 1436 803 l 1550 773 q 1666 808 1603 773 q 1569 841 1666 823 q 1436 806 1484 814 m 185 667 q 275 651 185 656 q 774 760 464 651 q 760 800 760 785 q 332 738 591 800 q 185 667 203 693 m 1140 765 l 1140 762 q 1295 681 1145 762 q 1571 640 1460 640 l 1585 640 q 1653 651 1626 640 q 1503 727 1616 688 q 1270 776 1323 776 q 1140 765 1158 765 m 1031 751 q 1015 727 1031 747 l 1015 724 q 1395 439 1246 513 q 1541 388 1497 388 l 1541 391 q 1354 572 1509 460 q 1031 751 1141 709 m 823 703 q 505 225 538 375 q 500 187 500 205 l 503 187 q 611 282 528 194 q 861 689 768 481 q 823 703 827 703 m 926 684 q 991 220 926 490 q 1064 73 1036 89 q 1078 165 1075 103 q 958 692 1078 363 q 926 684 939 684 m 291 401 l 299 401 q 652 586 412 410 q 730 684 668 610 q 562 632 601 648 q 323 453 452 572 q 291 401 291 410 m 1045 618 l 1045 616 q 1097 450 1083 483 q 1267 222 1169 325 q 1327 179 1306 186 l 1327 187 q 1145 537 1316 306 l 1045 618 m 231 513 l 256 513 q 337 543 318 513 q 418 608 347 553 q 304 581 304 597 q 231 513 246 545 m 1419 597 q 1522 532 1489 532 q 1590 526 1563 526 l 1609 526 q 1615 532 1615 526 q 1541 583 1569 583 q 1419 597 1538 583 m 871 586 q 795 442 858 554 q 749 157 749 266 q 760 79 752 109 l 763 79 q 842 236 795 103 q 888 458 888 418 q 877 586 877 557 l 871 586 m 389 279 l 394 279 q 494 350 494 317 l 549 445 l 546 445 q 446 385 446 389 q 389 279 389 302 m 1284 437 q 1362 323 1341 323 q 1449 279 1424 279 l 1449 282 q 1373 385 1411 385 l 1286 437 l 1284 437 m 635 138 q 638 114 638 123 l 641 114 q 695 190 695 159 q 709 312 698 233 q 646 222 646 239 q 635 138 635 153 m 1121 307 l 1121 304 q 1145 198 1131 198 q 1213 119 1164 159 l 1216 125 l 1216 144 q 1192 220 1216 205 q 1121 307 1181 231 m 912 290 q 882 184 912 273 q 918 60 882 144 q 953 160 931 60 q 915 290 931 222 l 912 290 z "},"{":{"ha":688,"x_min":0,"x_max":0,"o":""},"|":{"ha":688,"x_min":0,"x_max":0,"o":""},"}":{"ha":688,"x_min":0,"x_max":0,"o":""},"~":{"ha":688,"x_min":0,"x_max":0,"o":""},"":{"ha":456,"x_min":0,"x_max":0,"o":""},"":{"ha":772,"x_min":0,"x_max":0,"o":""},"":{"ha":688,"x_min":0,"x_max":0,"o":""},"":{"ha":688,"x_min":0,"x_max":0,"o":""},"":{"ha":856,"x_min":0,"x_max":0,"o":""},"":{"ha":688,"x_min":0,"x_max":0,"o":""},"":{"ha":688,"x_min":0,"x_max":0,"o":""},"":{"ha":694,"x_min":0,"x_max":0,"o":""},"":{"ha":1135,"x_min":0,"x_max":0,"o":""},"":{"ha":439,"x_min":0,"x_max":0,"o":""},"":{"ha":640,"x_min":0,"x_max":0,"o":""},"":{"ha":688,"x_min":0,"x_max":0,"o":""},"":{"ha":1135,"x_min":0,"x_max":0,"o":""},"":{"ha":454,"x_min":0,"x_max":0,"o":""},"":{"ha":457,"x_min":0,"x_max":0,"o":""},"":{"ha":688,"x_min":0,"x_max":0,"o":""},"":{"ha":688,"x_min":0,"x_max":0,"o":""},"":{"ha":688,"x_min":0,"x_max":0,"o":""},"":{"ha":694,"x_min":0,"x_max":0,"o":""},"":{"ha":800,"x_min":0,"x_max":0,"o":""},"":{"ha":694,"x_min":0,"x_max":0,"o":""},"":{"ha":345,"x_min":0,"x_max":0,"o":""},"":{"ha":694,"x_min":0,"x_max":0,"o":""},"":{"ha":688,"x_min":0,"x_max":0,"o":""},"":{"ha":487,"x_min":0,"x_max":0,"o":""},"":{"ha":640,"x_min":0,"x_max":0,"o":""},"":{"ha":1158,"x_min":0,"x_max":0,"o":""},"":{"ha":1332,"x_min":0,"x_max":0,"o":""},"":{"ha":1158,"x_min":0,"x_max":0,"o":""},"":{"ha":507,"x_min":0,"x_max":0,"o":""},"":{"ha":1044,"x_min":0,"x_max":0,"o":""},"":{"ha":1044,"x_min":0,"x_max":0,"o":""},"":{"ha":1044,"x_min":0,"x_max":0,"o":""},"":{"ha":1044,"x_min":0,"x_max":0,"o":""},"":{"ha":1044,"x_min":0,"x_max":0,"o":""},"":{"ha":1044,"x_min":0,"x_max":0,"o":""},"":{"ha":1436,"x_min":0,"x_max":0,"o":""},"":{"ha":949,"x_min":0,"x_max":0,"o":""},"":{"ha":781,"x_min":0,"x_max":0,"o":""},"":{"ha":781,"x_min":0,"x_max":0,"o":""},"":{"ha":781,"x_min":0,"x_max":0,"o":""},"":{"ha":781,"x_min":0,"x_max":0,"o":""},"":{"ha":446,"x_min":0,"x_max":0,"o":""},"":{"ha":446,"x_min":0,"x_max":0,"o":""},"":{"ha":446,"x_min":0,"x_max":0,"o":""},"":{"ha":446,"x_min":0,"x_max":0,"o":""},"":{"ha":1029,"x_min":0,"x_max":0,"o":""},"":{"ha":1054,"x_min":0,"x_max":0,"o":""},"":{"ha":1095,"x_min":0,"x_max":0,"o":""},"":{"ha":1095,"x_min":0,"x_max":0,"o":""},"":{"ha":1095,"x_min":0,"x_max":0,"o":""},"":{"ha":1095,"x_min":0,"x_max":0,"o":""},"":{"ha":1095,"x_min":0,"x_max":0,"o":""},"":{"ha":688,"x_min":0,"x_max":0,"o":""},"":{"ha":1095,"x_min":0,"x_max":0,"o":""},"":{"ha":1018,"x_min":0,"x_max":0,"o":""},"":{"ha":1018,"x_min":0,"x_max":0,"o":""},"":{"ha":1018,"x_min":0,"x_max":0,"o":""},"":{"ha":1018,"x_min":0,"x_max":0,"o":""},"":{"ha":836,"x_min":0,"x_max":0,"o":""},"":{"ha":760,"x_min":0,"x_max":0,"o":""},"":{"ha":848,"x_min":0,"x_max":0,"o":""},"":{"ha":625,"x_min":0,"x_max":0,"o":""},"":{"ha":625,"x_min":0,"x_max":0,"o":""},"":{"ha":625,"x_min":0,"x_max":0,"o":""},"":{"ha":625,"x_min":0,"x_max":0,"o":""},"":{"ha":625,"x_min":0,"x_max":0,"o":""},"":{"ha":625,"x_min":0,"x_max":0,"o":""},"":{"ha":986,"x_min":0,"x_max":0,"o":""},"":{"ha":614,"x_min":0,"x_max":0,"o":""},"":{"ha":616,"x_min":0,"x_max":0,"o":""},"":{"ha":616,"x_min":0,"x_max":0,"o":""},"":{"ha":616,"x_min":0,"x_max":0,"o":""},"":{"ha":616,"x_min":0,"x_max":0,"o":""},"":{"ha":349,"x_min":0,"x_max":0,"o":""},"":{"ha":349,"x_min":0,"x_max":0,"o":""},"":{"ha":349,"x_min":0,"x_max":0,"o":""},"":{"ha":349,"x_min":0,"x_max":0,"o":""},"":{"ha":772,"x_min":0,"x_max":0,"o":""},"":{"ha":751,"x_min":0,"x_max":0,"o":""},"":{"ha":685,"x_min":0,"x_max":0,"o":""},"":{"ha":685,"x_min":0,"x_max":0,"o":""},"":{"ha":685,"x_min":0,"x_max":0,"o":""},"":{"ha":685,"x_min":0,"x_max":0,"o":""},"":{"ha":685,"x_min":0,"x_max":0,"o":""},"":{"ha":688,"x_min":0,"x_max":0,"o":""},"":{"ha":685,"x_min":0,"x_max":0,"o":""},"":{"ha":718,"x_min":0,"x_max":0,"o":""},"":{"ha":718,"x_min":0,"x_max":0,"o":""},"":{"ha":718,"x_min":0,"x_max":0,"o":""},"":{"ha":718,"x_min":0,"x_max":0,"o":""},"":{"ha":589,"x_min":0,"x_max":0,"o":""},"":{"ha":685,"x_min":0,"x_max":0,"o":""},"":{"ha":589,"x_min":0,"x_max":0,"o":""},"":{"ha":349,"x_min":0,"x_max":0,"o":""},"":{"ha":694,"x_min":0,"x_max":0,"o":""},"":{"ha":694,"x_min":0,"x_max":0,"o":""},"":{"ha":694,"x_min":0,"x_max":0,"o":""},"":{"ha":694,"x_min":0,"x_max":0,"o":""},"":{"ha":694,"x_min":0,"x_max":0,"o":""},"":{"ha":694,"x_min":0,"x_max":0,"o":""},"":{"ha":694,"x_min":0,"x_max":0,"o":""},"":{"ha":694,"x_min":0,"x_max":0,"o":""},"":{"ha":694,"x_min":0,"x_max":0,"o":""},"":{"ha":751,"x_min":0,"x_max":0,"o":""},"":{"ha":1389,"x_min":0,"x_max":0,"o":""},"":{"ha":378,"x_min":0,"x_max":0,"o":""},"":{"ha":378,"x_min":0,"x_max":0,"o":""},"":{"ha":378,"x_min":0,"x_max":0,"o":""},"":{"ha":617,"x_min":0,"x_max":0,"o":""},"":{"ha":617,"x_min":0,"x_max":0,"o":""},"":{"ha":617,"x_min":0,"x_max":0,"o":""},"":{"ha":688,"x_min":0,"x_max":0,"o":""},"":{"ha":688,"x_min":0,"x_max":0,"o":""},"":{"ha":694,"x_min":0,"x_max":0,"o":""},"":{"ha":1389,"x_min":0,"x_max":0,"o":""},"":{"ha":428,"x_min":0,"x_max":0,"o":""},"":{"ha":428,"x_min":0,"x_max":0,"o":""},"":{"ha":232,"x_min":0,"x_max":0,"o":""},"":{"ha":688,"x_min":0,"x_max":0,"o":""},"":{"ha":688,"x_min":0,"x_max":0,"o":""},"":{"ha":1375,"x_min":0,"x_max":0,"o":""},"":{"ha":688,"x_min":0,"x_max":0,"o":""},"":{"ha":1540,"x_min":0,"x_max":0,"o":""},"":{"ha":1015,"x_min":0,"x_max":0,"o":""},"":{"ha":688,"x_min":0,"x_max":0,"o":""},"":{"ha":733,"x_min":0,"x_max":0,"o":""},"":{"ha":1027,"x_min":0,"x_max":0,"o":""},"":{"ha":818,"x_min":0,"x_max":0,"o":""},"":{"ha":688,"x_min":0,"x_max":0,"o":""},"":{"ha":688,"x_min":0,"x_max":0,"o":""},"":{"ha":688,"x_min":0,"x_max":0,"o":""},"":{"ha":451,"x_min":0,"x_max":0,"o":""},"":{"ha":688,"x_min":0,"x_max":0,"o":""},"":{"ha":688,"x_min":0,"x_max":0,"o":""},"":{"ha":688,"x_min":0,"x_max":0,"o":""},"":{"ha":728,"x_min":0,"x_max":0,"o":""},"":{"ha":733,"x_min":0,"x_max":0,"o":""}}}
